<svg viewBox="0 0 471 505" fill="none" xmlns="http://www.w3.org/2000/svg">
    <path fill-rule="evenodd" clip-rule="evenodd"
        d="M270.877 502.404C198.501 508.282 127.694 477.759 79.4509 423.488C27.253 364.767 -18.6436 282.871 11.083 210.145C38.9481 141.974 136.818 157.016 202.215 123.147C274.046 85.947 326.698 -22.0056 401.925 7.73374C477.114 37.4579 463.682 147.735 468.556 228.439C472.202 288.81 460.726 346.348 425.337 395.395C386.777 448.834 336.559 497.069 270.877 502.404Z"
        fill="#BDA5AB" />
    <path fill-rule="evenodd" clip-rule="evenodd"
        d="M101.555 206.183C103.404 205.524 105.185 204.763 106.807 203.644C111.485 200.159 114.537 194.917 117.419 189.95C121.479 182.725 124.371 175.027 126.371 166.997C127.23 163.547 127.521 159.546 129.473 156.488C133.898 150.082 146.874 150.912 153.763 152.036C158.377 152.853 159.33 158.019 160.379 161.84C161.251 165.017 161.822 168.228 162.302 171.483C163.442 172.233 164.731 172.843 165.958 173.373C179.335 177.477 181.686 185.085 186.796 196.836C195.426 213.917 218.843 220.605 222.38 240.819C224.659 254.165 218.178 266.72 211.497 277.815C205.274 289.933 196.586 295.749 182.752 292.887C169.775 289.974 157.305 285.103 144.556 281.339C138.382 279.821 132.217 275.87 125.722 277.247C112.34 280.254 98.5886 281.668 84.8738 281.277C65.6178 282.057 65.6208 263.567 67.5972 249.249C68.9812 226.967 80.2159 212.659 101.555 206.183Z"
        fill="white" />
    <path fill-rule="evenodd" clip-rule="evenodd"
        d="M100.267 238.426C98.6587 239.49 97.3049 241.104 96.219 242.802C100.754 242.331 105.282 241.787 109.8 241.168C109.208 240.789 108.611 240.419 108.001 240.07C105.772 238.814 102.755 236.781 100.267 238.426ZM175.622 251.838C176.453 251.513 176.775 250.245 177.099 249.518C178.114 247.24 179.041 244.922 180.005 242.621C176.344 241.578 172.784 240.419 168.991 239.862C164.913 239.265 160.774 239.12 156.659 239.255C148.322 239.527 140.062 240.89 131.866 242.351C123.679 243.811 115.492 245.213 107.248 246.314C99.1715 247.392 91.0695 248.182 82.9515 248.875C81.374 249.009 78.7449 249.577 77.4757 248.335C76.4724 247.352 76.4391 245.537 77.6963 244.739C78.479 244.24 79.6132 244.233 80.5067 244.118C81.6329 243.973 82.7641 243.876 83.8974 243.801C84.3587 243.771 84.8201 243.742 85.2825 243.714C81.5755 242.316 77.7043 241.554 73.6861 241.767C73.4585 243.148 72.435 244.568 71.8739 245.708C70.8958 247.696 70.1333 249.709 69.6326 251.87C68.586 256.39 68.5397 261.08 68.8358 265.69C69.1068 269.533 69.6901 273.785 72.704 276.507C74.9856 278.568 78.205 279.33 81.1907 279.57C84.6619 279.849 88.1866 279.552 91.6286 279.086C96.4557 278.433 101.306 277.569 106.038 276.412C115.205 274.171 123.991 270.605 132.097 265.769C136.05 263.411 139.822 260.758 143.829 258.491C147.912 256.179 152.258 254.385 156.82 253.272C161.925 252.026 167.263 251.494 172.51 251.801C173.421 251.854 174.736 252.185 175.622 251.838ZM181.539 249.524C181.002 251.266 180.592 253.254 179.447 254.718C178.312 256.169 176.601 256.68 174.828 256.809C172.691 256.964 170.528 256.865 168.386 256.944C163.993 257.108 159.659 257.822 155.459 259.131C151.544 260.352 147.912 262.256 144.411 264.367C141.175 266.321 138.033 268.418 134.796 270.365C135.658 270.76 136.509 271.187 137.366 271.56C139.162 272.34 140.97 273.093 142.786 273.827C146.367 275.275 149.963 276.688 153.595 277.999C160.92 280.646 168.365 282.958 175.899 284.927C179.493 285.867 183.138 286.964 186.871 287.12C190.182 287.258 193.248 286.322 195.918 284.353C201.456 280.269 205.862 274.374 209.424 268.559C211.54 265.104 213.386 261.474 214.914 257.721C215.686 255.823 216.387 253.896 217.017 251.946C217.313 251.03 217.594 250.11 217.859 249.185C217.976 248.779 218.088 248.371 218.199 247.962C212.536 246.233 206.806 244.673 200.941 243.807C197.81 243.344 194.637 243.11 191.472 243.144C189.901 243.161 188.33 243.246 186.768 243.408C185.926 243.496 185.088 243.607 184.254 243.747C183.909 243.804 183.555 243.888 183.2 243.951C182.657 245.812 182.109 247.672 181.539 249.524ZM64.4812 242.126C64.1759 241.508 64.048 240.9 63.9382 240.228C63.8546 239.715 63.633 238.993 63.8274 238.327C64.044 237.581 64.6353 236.914 65.0604 236.278C65.5288 235.575 65.9972 234.872 66.4656 234.168C67.4014 232.76 68.3342 231.351 69.267 229.942C73.0737 224.185 76.8542 218.411 80.6407 212.641C84.0011 207.521 87.3052 202.354 90.7673 197.303C93.7289 192.983 96.9554 188.734 101.009 185.375C106.133 181.127 112.234 179.126 118.609 177.565C119.305 176.842 120.235 176.447 121.228 176.527C122.632 174.934 123.748 173.822 124.254 171.795C124.497 170.825 124.421 168.098 125.365 167.524C126.487 166.842 127.073 167.745 127.383 168.762C128.418 172.167 127.231 176.744 124.496 180.154C125.648 184.137 127.175 189.799 129.9 192.99C132.818 196.407 136.854 197.471 141.208 197.541C149.512 197.674 157.807 194.587 164.14 189.237C166.065 187.611 167.853 185.794 169.471 183.863C170.685 182.413 172.119 180.177 173.069 178.487C173.069 177.828 173.846 177.139 165.931 176.607C158.015 176.074 157.415 165.232 157.239 163.757C157.096 162.559 156.488 160.698 157.331 159.721C157.69 159.306 158.425 159.24 158.88 159.522C159.736 160.054 160.017 161.415 160.286 162.338C160.664 163.632 161.897 171.664 164.233 172.594C165.326 173.029 166.581 173.037 167.737 173.118C169.166 173.217 170.597 173.291 172.02 173.457C172.545 173.519 173.118 173.688 173.635 173.693C173.972 173.697 174.32 173.533 174.645 173.418C175.744 173.029 176.842 173.32 177.975 173.473C187.985 174.819 198.291 177.89 206.83 183.417C214.355 188.288 219.657 195.293 223.156 203.484C226.725 211.842 228.771 220.882 230.486 229.78C231.06 232.761 231.562 235.757 231.993 238.762C232.409 241.666 232.93 244.636 233.055 247.569C233.104 248.73 232.827 249.808 232.4 250.868C231.92 252.062 230.784 252.532 229.695 253.089C227.303 254.313 224.78 255.262 222.181 255.934C220.593 258.824 219.257 261.827 218.183 264.942C218.582 265.732 218.59 266.912 218.667 267.679C218.857 269.59 218.938 271.511 218.955 273.431C218.989 277.279 218.758 281.124 218.577 284.966C218.393 288.862 217.781 304.238 217.682 306.116C217.604 307.575 217.709 309.614 216.941 310.91C215.76 312.899 212.847 312.833 211.498 311.219C177.975 318.429 114.96 316.257 89.5807 312.629C86.2787 312.158 87.3152 312.681 86.4761 311.847C85.8455 311.22 85.3096 310.146 85.1354 309.284C84.9017 308.133 85.2784 307.091 85.9372 306.159C86.6292 305.18 86.7562 303.594 87.013 302.429C87.6215 299.676 87.9237 287.585 88.2087 286.245C88.2964 285.828 88.383 285.387 88.4857 284.946C83.8309 285.386 78.9796 285.386 74.5514 283.829C72.0391 282.945 69.6971 281.558 67.894 279.577C65.7111 277.178 64.4963 274.159 63.8717 271.007C63.0659 266.942 62.8946 262.732 63.0538 258.6C63.2734 253.718 64.0833 248.766 66.0929 244.282C65.4311 243.668 64.877 242.927 64.4812 242.126Z"
        fill="black" />
    <path fill-rule="evenodd" clip-rule="evenodd"
        d="M117.651 113.547C118.155 107.001 117.369 100.141 119.898 93.9196C124.289 83.5973 136.629 80.1555 146.189 76.2256C150.017 75.0933 162.91 74.9351 167.393 73.4364C177.547 70.0445 179.974 66.0031 188.043 72.4614C189.403 73.5646 190.249 74.7637 190.874 76.4019L190.843 76.409C191.025 77.0919 190.833 77.7734 190.431 78.294C193.936 81.8702 195.397 87.2319 193.604 91.9925C187.741 104.381 188.023 111.079 189.907 124.398C192.375 136.83 186.744 141.372 177.416 148.137C177.799 148.874 177.879 149.853 177.375 150.503C166.597 165.661 146.269 172.898 128.843 165.205C121.771 162.056 118.618 154.523 116.815 147.725C114.72 140.115 114.075 132.095 115.788 124.341C116.473 120.756 117.369 117.197 117.651 113.547Z"
        fill="white" />
    <path fill-rule="evenodd" clip-rule="evenodd"
        d="M179.843 41.0294C178.534 40.8328 177.547 41.6452 177.083 42.7902L177.053 42.8519C176.902 43.2415 176.731 43.6204 176.56 43.9929C173.276 42.3856 168.602 42.7986 166.537 46.0538C165.056 48.3786 165.952 51.1378 166.516 53.6032L166.879 55.2277C166.174 55.678 165.64 56.4847 165.66 57.32L165.67 57.3843L165.811 59.6495C165.348 59.1705 164.915 58.6489 164.522 58.0933C164.26 57.6058 163.978 57.1267 163.666 56.6626C161.853 53.9311 157.773 56.3049 159.274 59.2302C159.556 59.7943 159.878 60.3287 160.231 60.8439C160.624 61.6039 160.946 62.3853 161.188 63.188C160.483 63.4966 159.939 64.1822 159.878 65.2168C159.747 67.6333 161.016 69.6493 163.031 70.9162C163.625 71.2887 164.24 71.3611 164.794 71.2227C164.895 71.3548 164.985 71.4867 165.086 71.6208C164.28 72.2744 163.555 73.0196 162.93 73.8457C161.047 73.5646 159.163 73.4326 157.279 73.4283C154.973 72.2978 152.202 72.3213 149.724 72.745C148.133 73.0174 146.602 73.5476 145.03 73.9287C143.368 74.3289 141.696 74.3438 140.014 74.6163C137.908 74.9591 136.055 75.9342 134.886 77.4905C133.607 77.5288 132.267 78.0525 131.149 78.7636C128.55 80.42 125.972 82.0997 123.383 83.7667C122.385 84.4067 122.013 85.4284 122.204 86.5679L122.214 86.6408L122.295 87.1135L122.093 87.4044C121.298 88.5241 120.441 89.697 119.928 90.9328C118.981 92.3018 118.125 93.7367 117.359 95.2164C116.342 97.2049 115.495 99.3126 114.921 101.476C114.78 102.023 114.629 102.574 114.538 103.132C114.407 103.92 114.609 104.531 114.73 105.287C114.871 106.245 114.921 107.215 115.062 108.176C115.163 108.812 115.707 109.125 116.271 109.142C116.06 110.762 115.908 112.393 115.757 114.011C115.556 116.323 115.415 118.642 115.294 120.96C114.669 121.869 113.39 122.589 112.463 122.838C111.184 123.181 109.844 122.808 108.635 122.372C107.88 122.097 107.255 123.053 107.618 123.692C108.787 125.697 111.275 125.688 113.158 124.801C113.964 124.426 114.659 123.883 115.183 123.176C115.143 123.849 115.113 124.522 115.082 125.197L115.052 125.808C114.659 132.947 113.833 140.332 115.173 147.4C117.5 159.644 127.624 168.967 140.004 169.69C146.491 170.07 151.9 168.152 154.59 167.082C157.279 166.011 156.232 163.83 154.368 164.453C151.145 165.528 145.242 167.129 139.953 166.438C127.503 164.808 116.936 158.578 118.024 131.75C118.175 127.946 118.648 124.139 118.749 120.334C118.85 116.615 118.809 112.893 118.971 109.176L119.031 107.908C119.092 106.426 119.162 104.937 119.273 103.453C119.404 102.879 119.515 102.295 119.686 101.731C120.129 100.196 120.703 98.7037 121.429 97.2794C121.59 97.4008 121.771 97.488 121.962 97.5221C123.433 97.7861 124.813 97.7115 126.183 97.0984C126.828 96.8152 127.392 96.4385 127.926 95.9722C128.178 95.7529 128.339 95.5401 128.48 95.3185C129.145 95.3292 129.81 95.1291 130.223 94.6501C130.696 94.1041 130.777 93.5402 130.595 93.0181L130.575 92.966L130.625 92.949C131.179 94.4031 132.298 95.6827 133.526 96.547C135.471 97.918 137.898 98.314 140.225 98.3503C142.794 98.3886 145.514 97.9926 148.042 97.588C148.717 97.4817 149.382 97.3603 150.037 97.1964C150.057 97.2219 150.087 97.2517 150.117 97.2773C152.293 99.3615 155.355 99.898 158.115 98.7079C159.717 98.0203 161.047 96.9132 162.235 95.6443C162.255 96.3085 162.286 96.9728 162.346 97.6307L162.366 97.8919C162.487 99.1172 162.709 100.417 163.635 101.301C165.136 102.734 167.302 102.159 169.025 101.227C169.025 101.271 169.025 101.318 169.025 101.365C168.561 102.949 168.098 104.535 167.625 106.121L167.524 106.459C167.181 107.585 166.809 108.713 166.708 109.892C166.516 112.144 168.007 114.369 170.516 113.613C171.825 113.218 172.873 112.114 173.89 111.229L174.525 110.679C172.873 116.059 171.734 121.631 171.634 127.245C171.624 127.55 171.886 127.779 172.178 127.789C172.853 127.818 173.578 127.684 174.263 127.413C174.303 127.411 174.333 127.409 174.374 127.403C175.542 127.234 176.62 126.814 177.567 126.195C177.355 126.891 177.255 127.638 177.315 128.42C177.325 128.609 177.617 128.676 177.668 128.466C178.212 125.765 181.375 123.724 184.094 124.241C187.026 124.797 189.171 127.313 189.705 130.177C190.269 133.253 189.181 136.81 187.177 139.184C186.25 140.278 185.041 141.192 183.601 141.422C182.936 141.526 182.251 141.49 181.616 141.303C181.334 141.221 181.082 141.108 180.82 141.003C180.448 140.849 180.005 140.825 179.642 140.664C178.836 140.299 178.02 141.047 178.433 141.88C178.786 142.605 179.108 143.095 179.702 143.47C179.219 144.058 178.786 144.875 178.624 145.094C177.798 146.209 176.962 147.264 176.016 148.284C175.059 149.318 174.011 150.264 172.913 151.138L172.45 151.505C171.382 152.349 170.455 153.132 169.71 154.343C169.115 155.299 169.881 156.595 170.989 156.58C174.454 156.532 176.983 153.482 178.776 150.819C179.027 150.438 179.269 150.035 179.501 149.622C179.581 149.752 179.662 149.874 179.763 149.985L179.571 150.517C178.977 152.084 181.516 153.108 182.241 151.645C182.775 150.585 183.399 149.576 184.084 148.622C184.497 148.565 184.89 148.318 185.112 147.998C185.676 147.188 186.3 146.368 186.834 145.503C187.126 145.224 187.429 144.956 187.741 144.694C187.821 144.773 187.912 144.852 188.003 144.934C188.396 145.819 188.869 146.625 189.463 147.385L189.594 147.547C190.733 148.982 192.213 150.449 194.047 150.8C194.601 150.907 195.145 150.211 194.651 149.765C193.362 148.611 191.841 147.826 190.662 146.538C190.078 145.903 189.544 145.204 189.081 144.472L188.98 144.303C188.899 144.177 188.819 144.051 188.738 143.924C189.272 143.559 189.816 143.194 190.35 142.827C191.82 144.084 193.734 144.658 195.356 145.7L195.517 145.806C196.988 146.789 198.539 144.613 197.361 143.419C196.061 142.107 194.973 140.543 193.825 139.085C194.369 138.087 194.621 136.908 194.722 135.715C194.752 135.378 194.782 135.04 194.812 134.703C195.638 134.716 196.474 134.433 197.169 133.945L197.441 133.755C198.288 134.028 199.184 134.16 200.05 134.137C202.065 134.077 202.891 131.771 201.622 130.313C200.342 128.822 198.086 128.497 196.303 129.221C196.243 129.191 196.182 129.158 196.122 129.127C196.212 128.735 196.192 128.38 196.092 128.068L196.122 127.877C196.515 127.275 196.776 126.587 196.867 125.859C196.948 125.283 196.938 124.713 196.797 124.144C196.756 123.955 196.666 123.759 196.595 123.562C196.736 123.195 196.827 122.816 196.847 122.435C196.887 122.387 196.928 122.337 196.968 122.283C197.854 121.039 197.673 119.539 196.837 118.532C196.827 118.468 196.827 118.404 196.817 118.341C196.867 118.229 196.907 118.117 196.948 118.004C197.774 117.172 198.378 116.172 198.267 114.932C198.197 114.203 197.905 113.546 197.451 113.056C197.532 112.818 197.532 112.542 197.441 112.312C198.157 110.386 198.066 108.066 197.552 105.912C197.663 105.585 197.723 105.229 197.713 104.852C197.653 103.253 196.273 101.784 194.631 101.804C194.429 101.805 194.248 101.831 194.067 101.869V101.831C194.006 101.351 193.875 100.907 193.684 100.509C193.775 100.475 193.865 100.426 193.936 100.36C194.994 100.921 196.102 101.349 197.27 101.641C198.126 101.856 199.003 100.882 198.469 100.077C198.217 99.7041 197.945 99.369 197.653 99.0629C198.076 99.0652 198.499 99.0935 198.922 99.1486C199.698 99.2487 200.554 98.7228 201.058 98.0117C201.672 98.6164 202.297 99.2189 202.921 99.8214C204.503 101.352 206.89 100.226 207.132 98.2076C207.605 98.082 208.049 97.8691 208.431 97.5647C210.919 98.6462 213.599 99.2402 216.339 99.353C218.303 99.434 219.451 97.1431 218.535 95.5251C217.92 94.4393 217.155 93.4643 216.268 92.6169C217.638 93.0363 219.059 93.3386 220.499 93.5323C221.285 93.6367 222.383 92.9895 222.695 92.272C223.894 89.5128 223.793 86.6366 222.413 83.952C222.363 83.8455 222.302 83.7433 222.242 83.6411C222.101 83.2855 221.95 82.9343 221.778 82.5894C223.471 80.8223 223.622 78.1951 222.705 75.9959C223.068 75.4019 223.209 74.6866 222.967 74.0394C222.252 72.1765 221.234 70.4563 219.945 68.9788C220.066 68.7403 220.177 68.487 220.267 68.2144C220.993 66.011 220.157 63.3518 218.454 61.8169C217.386 60.8503 216.168 60.2712 214.858 59.9007C214.304 58.9257 213.599 58.0465 212.773 57.3056C212.743 57.2353 212.702 57.1651 212.672 57.0947C211.383 54.672 209.046 53.3733 206.538 53.0731C206.437 52.1257 205.802 51.2209 204.865 50.9271C204.614 50.1074 204.231 49.3239 203.707 48.6128C202.891 47.493 201.521 46.9651 200.232 47.6995C199.527 48.1019 198.842 48.5639 198.207 49.0749C197.925 48.9412 197.602 48.8548 197.24 48.8272L197.149 48.8215L195.044 48.7151C194.168 48.3255 193.291 47.9167 192.415 47.5186C191.891 47.0821 191.297 46.7181 190.652 46.4477C189.927 46.1433 189.181 45.9708 188.436 45.9133C187.831 45.7153 187.217 45.5407 186.592 45.4045C185.132 45.0852 183.611 44.9063 182.09 44.9212C182.06 44.5288 182.049 44.1319 182.049 43.7301V43.5289C182.09 42.2408 181.062 41.2125 179.843 41.0294ZM181.314 144.083C181.526 144.127 181.737 144.164 181.949 144.19C181.888 144.347 181.818 144.505 181.757 144.662C181.586 144.758 181.415 144.85 181.244 144.934C181.294 144.645 181.324 144.353 181.314 144.083ZM192.254 140.832L192.395 141.093C192.415 141.136 192.435 141.178 192.465 141.219C192.163 141.196 191.861 141.202 191.559 141.236V141.205C191.599 141.192 191.639 141.18 191.679 141.162C191.881 141.063 192.072 140.952 192.254 140.832ZM186.341 128.942C184.457 129.052 182.865 129.34 181.153 130.164L181.002 130.236C179.491 130.988 176.993 132.376 177.204 134.366C177.255 134.932 177.668 135.529 178.312 135.484C180.085 135.363 181.103 133.575 182.301 132.458C183.51 131.334 185.001 130.179 186.472 129.406C186.673 129.297 186.592 128.953 186.371 128.942H186.341ZM194.883 102.715C195.336 102.73 195.185 103.168 194.953 102.802C194.933 102.772 194.903 102.742 194.883 102.715ZM170.526 73.4364C174.797 73.5488 179.098 76.0728 182.301 78.6239C185.081 80.8434 187.489 83.4834 189.614 86.3288C190.168 87.7458 190.642 89.1924 191.035 90.6497C191.297 91.612 191.458 92.585 191.679 93.5558L191.75 93.8534C191.921 94.1753 192.052 94.5217 192.143 94.8796C191.75 95.2688 191.246 95.5475 190.692 95.6797C190.521 95.7223 190.37 95.8144 190.249 95.9366C189.806 95.1919 189.413 94.4059 189.191 93.5726L189.181 93.5341C188.325 92.1291 187.388 90.7678 186.391 89.4533C183.641 85.8233 180.609 82.5148 176.962 79.7621C174.192 77.6757 171.11 76.0406 167.826 74.9782C168.622 74.3291 169.538 73.8156 170.526 73.4364Z"
        fill="black" />
    <path fill-rule="evenodd" clip-rule="evenodd"
        d="M137.213 152.544C138.644 151.96 139.923 150.986 140.85 149.742C141.172 149.309 141.263 148.853 141.192 148.435C141.112 147.965 140.84 147.539 140.457 147.254C140.074 146.968 139.601 146.826 139.148 146.899C138.745 146.961 138.352 147.18 138.029 147.633L137.969 147.724C137.415 148.475 136.69 149.09 135.864 149.488C135.068 149.871 134.181 150.049 133.265 149.946C131.512 149.748 130.303 148.801 129.024 147.515C128.863 147.353 128.712 147.186 128.55 147.015C128.45 146.861 128.309 146.762 128.147 146.71C127.976 146.652 127.785 146.656 127.604 146.718C127.432 146.778 127.281 146.892 127.17 147.045C127.08 147.189 127.019 147.367 127.039 147.572C127.16 148.904 127.855 150.094 128.843 151.028C129.941 152.065 131.401 152.782 132.771 153.034C134.282 153.311 135.813 153.113 137.213 152.544ZM132.056 131.986C130.444 132.963 127.996 135.242 129.729 137.664C131.764 139.801 134.695 137.352 136.136 136.244C137.475 135.386 138.976 137.594 137.737 138.596C127.301 146.323 123.071 132.242 131.24 130.838C132.147 130.683 132.479 131.684 132.056 131.986ZM150.752 122.998C150.571 120.793 147.216 120.292 146.884 122.474C146.582 124.428 146.934 126.223 147.821 127.983C148.657 129.664 150.772 128.88 150.933 127.349C151.145 125.297 150.863 124.369 150.752 122.998ZM125.196 122.021C124.733 121.408 124.058 120.99 123.242 121.226C120.713 121.966 121.459 125.558 122.355 127.306C122.829 128.256 124.39 128.497 125.095 127.661C126.244 126.298 126.798 123.575 125.337 122.232C125.297 122.162 125.257 122.092 125.196 122.021ZM147.851 113.35L147.448 113.28C146.219 113.066 144.678 112.861 143.801 113.855C143.338 114.382 143.177 115.362 143.801 115.866C144.899 116.754 146.118 116.41 147.428 116.485C148.506 116.547 149.553 116.726 150.591 117.025C152.877 117.679 154.751 118.873 156.705 120.185C156.957 120.357 157.219 120.029 157.098 119.789C155.97 117.578 153.784 115.762 151.588 114.656C150.419 114.065 149.14 113.575 147.851 113.35ZM127.503 112.36L127.201 112.422C123.876 113.118 119.545 114.508 117.974 117.778C117.913 118.241 117.974 118.34 118.024 118.405L118.044 118.426C118.084 118.481 118.125 118.558 118.326 118.62C118.376 118.607 118.437 118.593 118.487 118.578C119.213 118.389 119.787 118.128 120.341 117.857L120.935 117.562C121.63 117.22 122.335 116.891 123.081 116.648C124.672 116.13 126.304 115.765 127.956 115.57C128.319 115.528 128.661 115.407 128.943 115.199C129.195 115.001 129.397 114.728 129.487 114.364C129.598 113.894 129.568 113.538 129.316 113.114C129.125 112.795 128.853 112.574 128.54 112.447C128.228 112.318 127.865 112.288 127.503 112.36Z"
        fill="black" />
    <path fill-rule="evenodd" clip-rule="evenodd"
        d="M127.543 155.819C129.528 154.052 131.754 150.502 134.595 153.311C135.3 154.105 135.592 155.885 136.67 156.234C138.1 156.698 139.51 155.185 140.004 154.022C141.999 147.563 133.749 145.791 129.054 146.835C126.758 147.778 125.075 151.571 124.965 153.552C124.904 154.883 126.032 156.839 127.543 155.819ZM112.595 145.864C112.615 145.778 112.645 145.701 112.675 145.63C113.552 145.299 114.247 145.636 114.67 146.268C114.66 146.425 114.609 146.584 114.579 146.739C114.912 147.436 115.214 148.299 115.657 148.901C115.748 148.908 115.838 148.899 115.929 148.873C123.363 149.649 119.727 141.873 127.271 139.941C133.094 138.98 143.62 140.081 146.37 146.146C148.536 155.835 159.556 149.084 163.173 144.046C167.041 139.459 169.529 133.857 171.936 128.419C172.45 127.268 174.032 128.091 173.86 129.195C176.086 133.66 176.016 139.022 176.56 143.914C177.507 153.672 178.413 167.356 169.347 173.315C157.542 186.668 128.057 191.379 114.438 179.111C109.724 168.97 110.298 156.6 112.595 145.864Z"
        fill="black" />
    <path fill-rule="evenodd" clip-rule="evenodd"
        d="M114.116 133.892C115.546 135.818 118.195 136.431 120.653 136.219C125.931 135.71 127.593 129.706 127.775 125.04C124.229 126.037 128.067 118.975 115.959 118.198C111.688 117.842 112.866 120.422 110.983 122.307C111.013 126.262 111.678 130.562 114.116 133.892ZM139.279 129.346C142.401 143.962 159.485 140.486 161.278 127.31C159.626 126.141 160.06 123.251 158.005 122.204C154.741 120.119 150.661 120.208 146.954 120.257C142.22 120.582 140.87 122.545 138.432 124.686C138.553 126.116 138.886 127.812 139.279 129.346ZM107.346 115.777C107.517 115.748 107.689 115.721 107.87 115.695C108.001 115.617 108.162 115.557 108.354 115.521C108.777 115.413 109.2 115.34 109.623 115.3C115.697 113.933 129.749 115.874 130.323 121.058C132.257 121.704 133.93 121.126 136.176 121.183C137.878 114.05 167.373 115.057 168.793 119.357L168.803 119.353C170.173 118.931 172.178 119.033 173.739 118.966C177.073 118.896 180.408 119.193 183.661 119.896C189.766 120.866 198.096 122.002 193.845 129.625C193.845 129.627 193.845 129.629 193.845 129.629C193.12 130.378 191.871 129.775 191.831 128.76C193.251 125.147 190.028 124.714 187.55 123.676C181.385 121.459 175.099 121.151 168.723 121.837C168.239 122.403 167.514 122.896 166.738 123.154C162.477 123.862 164.724 127.028 162.024 127.489C162.517 138.526 149.13 144.55 141.364 137.296C138.261 134.265 137.526 129.775 136.811 125.728C136.428 125.642 136.186 125.434 136.045 125.159C135.128 124.247 134.554 123.404 132.751 123.154C130.948 122.903 129.558 123.406 129.366 123.56C129.316 123.655 129.266 123.751 129.205 123.847C129.125 123.99 129.014 124.104 128.883 124.193C130.666 135.184 122.144 142.135 113.531 136.434C109.794 132.914 108.998 127.524 108.847 122.713C108.333 122.406 108.011 121.813 108.192 121.067C108.434 120.039 107.86 119.148 106.963 118.701C105.785 118.121 105.996 116 107.346 115.777Z"
        fill="black" />
    <path fill-rule="evenodd" clip-rule="evenodd"
        d="M426.8 293.637C422.943 294.016 419.085 294.394 415.227 294.773C396.753 296.184 378.285 299.131 359.952 300.899C359.495 300.157 358.602 300.279 358.059 300.795C356.23 300.635 354.18 299.237 352.523 300.691C352.469 300.683 352.415 300.675 352.361 300.669C349.41 295.008 347.37 288.97 345.391 282.924C344.128 279.206 342.428 275.608 339.287 273.112C333.926 269.392 321.643 261.848 315.348 262.165C315.243 261.039 314.718 259.877 313.855 259.127C315.757 255.887 308.154 253.772 307.618 254.148C307.962 243.322 302.868 233.92 291.635 231.764C281.572 229.668 267.259 229.316 261.847 239.829C261.252 239.762 255.17 239.73 254.582 239.796C253.667 238.638 243.621 249.614 247.738 253.435C210.925 269.714 189.992 267.772 179.803 313.539C178.425 317.838 178.325 322.543 176.87 326.746C171.695 338.826 167.498 351.689 166.453 364.833C163.93 365.48 163.64 369.927 166.563 370.57C167.679 370.816 168.612 371.152 169.426 371.789C168.79 382.561 171.396 407.167 173.038 407.091C176.386 417.743 191.32 420.749 201.893 417.006C200.071 420.434 201.893 422.589 201.893 424.42C239.937 425.859 281.534 425.031 319.568 427.004C324.433 426.935 329.55 428.198 334.349 427.471C337.275 426.77 337.28 422.17 334.312 421.601L347.282 418.785C346.992 418.676 352.629 414.928 356.889 407.924C360.854 400.09 358.155 390.633 359.952 382.111C373.984 380.964 388.249 380.473 402.128 378.098C404.02 383.758 412.212 376.989 414.816 374.266C414.813 374.261 414.81 374.257 414.806 374.253C416.067 373.908 417.077 372.728 417.111 371.33C417.995 370.067 418.18 368.288 417.333 367.068C421.217 344.662 427.139 321.785 429.279 299.168C430.036 299.001 430.748 298.669 431.352 298.158L431.303 298.109C432.327 296.969 432.526 295 430.82 294.03C429.443 293.248 428.294 293.49 426.8 293.637Z"
        fill="white" />
    <path fill-rule="evenodd" clip-rule="evenodd"
        d="M262.548 237.387C263.694 234.508 267.569 235.627 267.137 238.652C266.878 240.464 265.886 242.378 264.994 243.967C264.268 245.259 263.439 246.521 262.316 247.49C264.315 249.354 266.39 251.151 268.518 252.857C270.84 254.718 273.281 256.433 275.805 258.01C278.017 259.392 280.33 260.617 282.416 262.195C284.355 263.662 286.122 265.426 287.021 267.728C287.979 270.181 287.563 272.713 286.857 275.164L286.776 275.441C286.056 277.869 284.809 280.795 286.538 283.083C287.418 284.247 288.698 285.072 289.804 286.003C290.786 286.83 291.708 287.73 292.553 288.697C294.397 290.804 295.897 293.174 296.843 295.816L296.928 296.056C297.739 298.395 298.332 301.26 297.236 303.555C296.921 304.214 295.907 304 295.731 303.359C295.333 301.907 295.353 300.387 295.02 298.914C294.672 297.383 294.094 295.93 293.339 294.554C291.878 291.894 289.9 289.622 287.562 287.701L286.862 287.132C285.039 285.636 283.363 284.049 282.993 281.573C282.597 278.924 283.659 276.4 284.341 273.893C284.817 272.146 284.973 270.471 284.458 268.892C283.83 269.917 282.973 270.889 282.296 271.757C280.946 273.486 279.583 275.204 278.224 276.925C276.831 278.69 275.471 280.483 274.177 282.323C273.598 283.146 273.026 283.973 272.455 284.802C272.025 285.425 271.427 286.047 270.959 286.682C271.073 287.022 271.064 287.413 270.858 287.691C268.377 291.043 264.847 284.05 263.926 282.283C262.051 278.685 260.656 274.863 258.775 271.266C256.826 267.537 254.606 263.907 252.132 260.503C250.636 258.444 248.959 256.509 247.59 254.385C244.365 257.308 240.122 259.267 236.224 261.044C231.942 262.997 227.493 264.591 223.102 266.285L221.805 266.788C214.239 269.74 206.489 272.983 200.201 278.225C192.812 284.386 188.44 292.973 185.186 301.865C181.439 312.102 178.34 322.614 175.451 333.12C173.972 338.496 172.569 343.896 171.25 349.313C170.088 354.085 169.125 358.905 167.78 363.629C170.508 363.532 173.62 364.588 175.949 364.893C186.566 366.282 197.039 368.497 207.063 372.331C208.301 372.804 208.659 374.041 208.389 375.042C209.103 374.841 209.817 374.637 210.531 374.436C209.749 373.238 210.122 371.096 210.183 369.768L210.187 369.677C210.25 367.907 210.442 366.135 210.567 364.369C210.804 361.002 211.113 357.659 211.523 354.311L211.628 353.474C212.093 349.831 212.437 346.167 212.945 342.531L213.005 342.115C212.761 341.184 212.478 340.265 212.181 339.35C211.388 336.913 210.269 334.619 209.289 332.258C209.173 331.981 209.569 331.821 209.754 331.988C211.415 333.481 212.734 335.375 213.793 337.356C213.811 337.263 213.828 337.169 213.847 337.075L213.968 336.481C214.266 335.03 214.629 333.503 215.519 332.327C215.614 332.202 215.801 332.176 215.891 332.327C216.743 333.768 216.838 335.593 216.969 337.233C217.118 339.089 217.136 340.968 217.11 342.828C217.059 346.464 216.803 350.11 216.598 353.74C216.398 357.307 216.004 360.828 215.497 364.36L215.401 365.023C215.153 366.704 214.95 368.406 214.623 370.076L214.531 370.53C214.356 371.358 214.249 372.526 213.901 373.495C222.853 370.999 231.819 368.56 240.802 366.164C247.294 364.432 253.793 362.725 260.29 361.008C260.633 360.391 261.059 359.814 261.592 359.298C263.347 357.599 265.673 356.841 267.807 358.149C267.98 358.256 267.995 358.527 267.807 358.63C267.398 358.854 266.988 359.083 266.586 359.321L270.487 358.265C273.403 357.475 276.353 356.488 279.338 355.937C284.834 353.226 290.746 351.263 296.536 349.323L297.219 349.092C300.184 348.082 303.25 346.951 306.313 346.391C308.556 345.981 311.188 346.475 312.09 348.772C313.232 349.524 314.306 350.408 315.342 351.277C316.092 351.905 316.81 352.573 317.54 353.224L317.675 353.342C318.272 353.86 318.745 354.207 318.892 355.031C318.968 355.457 318.697 356.033 318.171 355.976C316.564 355.804 315.257 353.941 314.166 352.829C313.324 351.969 312.475 351.08 311.706 350.135C311.258 350.379 310.644 350.335 310.358 349.795C308.879 346.995 304.826 348.935 302.584 349.599L299.372 350.55C297.766 351.026 296.161 351.504 294.558 351.991C290.154 353.328 285.771 354.824 281.327 356.052C281.724 356.489 281.669 357.266 280.914 357.562C277.435 358.926 273.619 359.632 270.004 360.568C267.722 361.16 265.442 361.755 263.162 362.354C262.771 362.987 262.49 363.703 262.371 364.537C261.936 367.602 262.775 371.139 263.593 374.104L263.716 374.546C264.388 376.93 265.376 379.852 267.433 381.357C267.936 381.724 268.575 381.979 269.22 382.037C273.247 379.965 277.274 377.893 281.303 375.825C282.049 375.442 282.739 375.96 282.906 376.577C284.327 376.344 285.745 375.977 287.036 375.539C289.205 374.802 290.899 373.398 292.932 372.426C296.867 370.547 300.886 372.855 304.409 374.61L305.221 375.009C306.801 375.776 310.088 377.248 310.846 375.152C311.579 373.124 309.261 370.957 307.764 370.045C305.979 368.957 303.901 368.374 301.884 367.889C300.733 367.612 299.567 367.386 298.394 367.221C297.064 367.034 295.69 367.062 294.409 366.631C293.773 366.417 293.675 365.406 294.409 365.24C296.381 364.791 298.734 365.28 300.791 365.78L301.867 366.045C303.94 366.554 306.032 367.192 307.92 368.206C309.293 368.944 310.742 370.065 311.689 371.437C312.511 370.673 313.534 370.699 314.6 370.982L315.178 371.143C316.134 371.408 316.908 371.59 317.837 371.406C317.962 370.73 318.087 370.054 318.222 369.378C319.547 362.731 320.999 356.109 322.602 349.522C325.367 338.162 328.566 326.926 332.172 315.805L332.534 314.693C333.366 312.149 334.036 309.378 335.377 307.041C336.645 304.832 338.677 303.559 341.091 302.885C343.831 302.12 346.71 301.72 349.505 301.203C350.128 301.088 350.754 300.979 351.378 300.865C350.85 299.914 350.457 298.833 350.102 298.004L350.04 297.86C349.278 296.124 348.594 294.357 347.933 292.58L347.439 291.244C346.246 288.027 345.014 284.864 343.337 281.855C341.571 278.689 339.229 276.101 336.309 273.958C330.355 269.59 323.179 267.361 317.405 262.693C317.168 262.502 317.471 262.175 317.712 262.296C321.611 264.254 325.82 265.586 329.875 267.18L330.675 267.496C333.881 268.766 337.136 270.149 339.91 272.205C343.004 274.499 345.44 277.347 347.271 280.734C349.075 284.072 350.23 287.809 351.503 291.375L351.844 292.325C352.357 293.75 352.887 295.17 353.495 296.557C353.978 297.657 354.878 298.914 355.287 300.171C356.407 299.977 357.527 299.783 358.648 299.595C382.925 295.543 407.473 293.163 432.077 292.466C433.039 292.439 433.537 293.357 433.395 294.196C431.034 308.153 428.936 322.158 426.634 336.125C425.629 342.221 424.604 348.313 423.555 354.401C423.023 357.486 422.409 360.559 421.906 363.648C421.499 366.143 421.204 368.657 420.507 371.094C419.881 373.279 418.921 375.386 417.344 377.053C415.645 378.85 413.272 379.72 410.884 380.131C404.822 381.174 398.603 381.6 392.492 382.295L359.953 385.995C360.429 390.316 360.464 394.569 360.246 398.94L360.122 401.326C360.02 403.245 359.899 405.167 359.623 407.067C359.277 409.45 358.187 411.467 356.581 413.247C355.106 414.881 353.315 416.276 351.572 417.612C349.763 419 347.894 420.339 345.767 421.197L345.491 421.306C343.625 422.035 340.125 423.162 337.574 422.75C337.908 424.42 338.553 426.215 337.981 427.868C337.716 428.635 336.712 429.017 336.097 428.365C334.879 427.071 334.784 425.362 334.496 423.674C334.195 421.918 333.937 420.155 333.707 418.388C333.262 414.971 332.916 411.524 332.81 408.078C332.702 404.54 332.744 400.997 332.934 397.462C333.032 395.647 333.154 393.833 333.384 392.03C333.483 391.261 333.583 390.491 333.698 389.724C333.74 389.444 333.786 389.165 333.836 388.888L330.916 389.217C326.438 389.717 321.958 390.168 317.448 390.238C316.914 390.246 316.503 390.003 316.234 389.649C315.948 390.115 315.45 390.448 314.737 390.446C308.439 390.422 302.574 388.363 296.845 385.937C293.958 384.714 291.116 383.389 288.224 382.177C285.525 381.045 282.64 380.237 280.006 378.962L273.084 382.591C273.034 382.769 272.969 382.938 272.899 383.079C272.449 383.999 271.56 384.497 270.653 384.873C269.782 385.234 268.88 385.347 268.001 385.256C262.752 388.005 257.502 390.752 252.248 393.493L246.993 396.232C236.523 401.681 226.095 407.22 215.559 412.541L214.783 412.932C211.144 414.756 207.237 416.605 203.198 417.985C203.126 419.007 203.172 420 203.257 421.082L203.278 421.318C203.398 422.596 203.657 424.197 202.631 425.107C202.097 425.58 201.144 425.582 200.781 424.869C200.123 423.575 200.714 421.535 200.923 420.13C200.997 419.63 201.087 419.116 201.22 418.617C196.591 419.995 191.821 420.663 187.109 419.889C182.522 419.137 178.97 416.248 176.105 412.715C173.083 408.986 170.935 404.64 169.782 399.982C168.471 394.681 168.385 389.207 168.416 383.778C168.449 377.996 168.663 372.186 169.366 366.443C168.595 366.262 167.741 366.105 166.962 366.159C166.576 366.776 165.828 367.036 165.152 366.956C163.681 368.577 167.411 370.234 168.603 370.649C169.017 370.793 168.972 371.465 168.495 371.444L168.194 371.43C166.352 371.332 164.45 371.018 163.367 369.307C162.499 367.936 162.76 366.311 163.794 365.193C164.477 358.735 166.111 352.447 167.631 346.147C169.123 339.964 170.782 333.821 172.54 327.709L173.328 324.973C176.097 315.389 178.991 305.728 182.81 296.525C184.717 291.929 186.913 287.418 189.891 283.412C192.667 279.676 195.944 276.48 199.711 273.75C206.734 268.661 214.974 265.586 223.07 262.656L223.432 262.525C227.628 261.008 231.814 259.472 235.961 257.829C239.63 256.375 243.144 254.532 246.795 253.056C246.676 252.841 246.562 252.623 246.452 252.403L246.384 252.46C246.373 252.469 246.361 252.478 246.349 252.486C245.981 252.741 245.441 252.616 245.138 252.33C244.284 251.524 244.573 250.63 245.143 249.794L245.218 249.688C245.915 248.711 246.537 247.678 247.181 246.666L247.584 246.033C248.665 244.342 249.8 242.64 251.241 241.242C251.908 240.595 252.639 240.11 253.413 239.749C253.347 239.609 253.927 239.323 254.091 239.467C256.544 238.57 259.365 238.758 262.038 239.005M358.379 386.174L354.97 386.562C351.219 386.988 347.467 387.401 343.714 387.809L335.563 388.695C335.542 389.159 335.486 389.613 335.476 389.964C335.422 391.773 335.383 393.582 335.345 395.391C335.27 399.018 335.353 402.648 335.591 406.267C335.823 409.774 336.128 413.281 336.601 416.765L336.698 417.461L336.755 417.827C337.141 417.865 337.521 418.048 337.837 418.425C338.526 419.248 341.023 418.448 341.998 418.102C343.601 417.531 345.111 416.568 346.504 415.601C347.864 414.658 349.09 413.558 350.267 412.399L351.23 411.447C352.188 410.495 353.147 409.481 353.734 408.283C354.531 406.66 354.633 404.667 354.867 402.898C355.154 400.723 355.497 398.549 355.858 396.384M259.409 363.343L259.056 363.436C246.21 366.848 233.383 370.361 220.498 373.622C214.122 375.237 207.715 376.734 201.33 378.317L200.297 378.575C195.26 379.848 190.163 381.379 186.306 385.031C186.164 385.166 185.957 384.959 186.091 384.816C190.248 380.393 196.16 378.52 201.836 376.897C202.885 376.597 203.936 376.304 204.986 376.005C197.266 373.254 189.424 370.861 181.402 369.154C179.336 368.714 177.246 368.391 175.182 367.95C173.742 367.642 172.336 367.197 170.912 366.828L169.792 366.546L169.777 370.086C169.758 375.1 169.767 380.109 170.023 385.122L170.071 386.051C170.37 391.629 170.836 397.324 172.816 402.584C174.425 406.859 176.99 410.885 180.345 413.999C182.042 415.574 183.867 416.801 186.123 417.406C188.217 417.968 190.412 418.034 192.565 417.884C202.892 417.164 212.085 411.555 221.056 406.912C235.73 399.317 250.405 391.726 265.093 384.16C264.696 383.889 264.322 383.576 263.982 383.225C262.013 381.191 260.974 378.408 260.291 375.712C259.565 372.842 259.131 369.766 259.08 366.804M278.099 387.092C278.229 387.023 278.379 387.11 278.385 387.256C278.43 388.378 277.81 389.484 277.347 390.494L277.298 390.602C276.735 391.853 276.119 393.088 275.482 394.303C274.208 396.731 272.884 399.134 271.503 401.502C268.725 406.266 265.637 410.829 261.988 414.977C261.164 415.915 259.808 414.713 260.337 413.704C262.887 408.84 265.86 404.248 268.921 399.696C270.453 397.416 271.984 395.135 273.531 392.866C274.176 391.919 274.83 390.976 275.501 390.047L275.906 389.491M430.45 295.252C417.559 295.641 404.684 296.481 391.854 297.798C379.923 299.023 368.035 300.653 356.215 302.686C353.746 303.11 351.28 303.552 348.817 304.012L347.34 304.289C344.877 304.756 341.868 304.948 339.675 306.264C337.362 307.651 336.738 310.549 335.968 312.939C335.064 315.75 334.182 318.569 333.325 321.394C329.919 332.613 326.807 343.93 324.032 355.321C322.654 360.975 321.432 366.661 320.144 372.335C318.999 377.377 317.737 382.362 316.417 387.354C316.58 387.228 316.779 387.131 317.02 387.08C323.571 385.687 330.257 385.081 336.906 384.312L337.549 384.237C344.427 383.428 351.304 382.625 358.186 381.852L403.749 376.73C406.436 376.428 409.314 376.387 411.929 375.666C416.376 374.44 417.418 369.471 418.164 365.514L418.186 365.394C420.435 353.438 422.225 341.377 424.323 329.391M317.478 373.455C315.709 373.338 313.288 371.719 311.946 371.835C312.65 373.017 312.968 374.365 312.562 375.804C311.432 379.81 306.322 377.737 303.86 376.513C301.842 375.51 299.893 374.281 297.659 373.811C295.127 373.279 293.412 374.285 291.274 375.445C289.517 376.398 287.605 377.082 285.637 377.436C284.591 377.624 283.598 377.644 282.606 377.571C282.546 377.62 282.479 377.665 282.402 377.705L281.878 377.98C284.25 378.089 286.666 378.821 288.874 379.491C291.161 380.185 293.407 381.021 295.641 381.877L297.838 382.721C303.259 384.796 308.87 386.767 314.737 386.75C315.158 386.748 315.504 386.865 315.776 387.055M307.581 360.904C309.328 360.691 310.941 360.92 312.338 362.057C314.022 363.428 315.153 365.703 317.574 365.852C318.28 365.896 318.444 366.888 317.743 367.095C315.94 367.629 314.481 366.654 313.254 365.388L312.428 364.526C311.215 363.27 310.096 362.299 308.037 362.374C305.832 362.455 303.623 362.964 301.432 363.223C298.951 363.516 296.47 363.766 293.98 363.982C293.865 363.992 293.845 363.81 293.953 363.783L296.742 363.09M305.894 353.762L306.182 353.733C308.72 353.487 311.041 353.478 313.307 354.842L313.742 355.105C315.785 356.347 318.009 357.809 319.287 359.819C319.496 360.149 319.15 360.536 318.801 360.452C316.345 359.863 314.549 358.061 312.484 356.713C310.166 355.2 307.772 355.45 305.129 355.685C302.57 355.913 300.013 356.225 297.479 356.652C295.098 357.052 292.71 357.684 290.305 357.885L290.305 357.88C290.031 357.88 289.874 357.468 290.154 357.328C292.595 356.109 295.421 355.533 298.076 354.976M218.998 284.78C218.994 284.58 219.277 284.505 219.375 284.678C221.026 287.582 221.89 291.142 222.769 294.341C223.69 297.693 224.434 301.078 225.102 304.488C226.455 311.394 227.176 318.26 227.225 325.298C227.232 326.303 225.594 326.571 225.434 325.541C224.371 318.695 223.352 311.841 222.28 304.997C221.741 301.555 221.113 298.125 220.513 294.693M235.344 289.838C235.222 289.438 235.805 289.304 235.954 289.67C239.268 297.801 240.39 307.016 238.263 315.595C237.937 316.907 236.015 316.338 236.26 315.043M278.086 282.613C278.069 282.314 278.458 282.266 278.605 282.473C280.175 284.684 280.826 287.646 283.581 288.789C284.956 289.359 286.504 289.26 287.719 290.224C288.531 290.868 289.154 291.886 288.545 292.862C288.348 293.178 287.797 293.336 287.531 292.993C287.141 292.494 286.935 291.896 286.406 291.521C285.659 290.994 284.653 290.961 283.797 290.713C282.69 290.392 281.714 289.83 280.915 288.996M304.317 245.728C304.478 245.645 304.634 245.698 304.737 245.838C304.885 246.037 304.867 246.231 304.686 246.368C304.928 246.862 305.213 248.099 305.254 248.279C305.419 249.009 305.595 249.735 305.779 250.461C306.15 251.924 306.476 253.398 306.847 254.861C307.241 256.413 307.71 257.947 308.232 259.46C308.266 259.558 308.303 259.658 308.342 259.759L308.401 259.913L308.416 259.889C308.522 259.722 308.743 259.839 308.717 260.016C308.693 260.177 308.66 260.338 308.632 260.5L308.687 260.644C309.029 261.563 309.263 262.531 308.636 263.342C308.401 263.646 308.143 263.825 307.822 263.879C307.306 265.577 306.66 267.244 305.967 268.845L305.764 269.313C304.746 271.649 303.66 273.954 302.038 275.943C300.268 278.114 297.832 279.597 296.29 281.976C295.572 283.083 295.073 284.246 294.668 285.496L294.515 285.971C294.228 286.855 293.896 287.712 293.066 288.23C292.802 288.395 292.405 288.343 292.192 288.117C290.491 286.318 292.271 282.959 293.297 281.218C294.723 278.796 296.787 277.246 298.853 275.419C301.08 273.45 302.501 270.815 303.875 268.22C304.717 266.629 305.53 265.005 306.385 263.408C305.491 262.618 305.205 261.049 304.902 259.959L304.875 259.861C304.374 258.115 303.977 256.323 303.725 254.524C303.484 252.794 303.383 251.089 303.447 249.349L303.465 248.906M307.64 253.962C307.442 253.692 307.769 253.385 308.04 253.442C309.688 253.782 311.298 254.779 312.777 255.585L312.935 255.671C314.115 256.307 315.303 257.086 315.922 258.322C316.596 259.666 316.541 261.213 316.449 262.673L316.44 262.81C316.328 264.56 316.309 266.38 315.939 268.099C315.749 268.979 314.952 269.227 314.27 269.019C313.459 271.578 311.181 273.465 309.517 275.485C307.395 278.06 307.795 281.537 308.017 284.638C308.106 285.894 306.544 286.251 305.739 285.581L303.884 284.041C303.575 283.784 303.267 283.527 302.959 283.268C302.696 283.047 302.435 282.823 302.176 282.597L301.789 282.256C301.618 282.102 300.861 281.257 300.64 281.222C300.104 281.137 298.831 282.549 298.395 282.992L298.34 283.047C297.519 283.851 296.778 284.716 296.088 285.633C295.961 285.802 295.713 285.662 295.804 285.467C296.422 284.143 297.141 282.877 297.995 281.692L298.168 281.456C298.736 280.69 299.499 279.339 300.501 279.113C301.726 278.837 302.948 280.065 303.839 280.746L303.896 280.789C304.32 281.106 304.739 281.43 305.157 281.756C305.113 279.446 305.405 277.113 306.597 275.123C307.438 273.719 308.698 272.68 309.777 271.474C310.977 270.131 311.604 268.48 312.69 267.082C312.83 266.902 313.023 266.805 313.232 266.774C313.273 265.65 313.439 264.514 313.567 263.402L313.604 263.069C313.734 261.86 314.039 260.384 313.448 259.252C312.888 258.183 311.606 257.429 310.656 256.703L309.88 256.102M254.174 241.184C253.678 241.47 253.214 241.827 252.794 242.273C251.47 243.677 250.523 245.424 249.602 247.105C249.106 248.01 248.628 248.926 248.128 249.829C247.91 250.222 247.687 250.61 247.46 250.998C247.356 251.177 247.045 251.532 246.891 251.751C247.062 251.991 247.239 252.227 247.42 252.461C247.489 252.55 252.238 257.722 253.893 259.746C256.429 262.846 258.695 266.121 260.632 269.627C262.529 273.059 263.973 276.694 265.73 280.193C266.61 281.945 267.592 283.684 268.844 285.2C268.893 285.26 268.944 285.315 268.993 285.374C269.471 284.083 270.695 282.701 271.297 281.908L271.353 281.833C272.717 279.995 274.157 278.212 275.629 276.46C276.973 274.86 278.352 273.294 279.764 271.754L280.295 271.178C281.278 270.116 282.528 268.527 283.968 267.768C283.813 267.493 283.635 267.221 283.429 266.953C282.08 265.19 280.173 263.911 278.291 262.757L277.071 262.015C272.471 259.213 267.943 256.281 263.949 252.639C261.836 250.713 259.753 248.695 257.977 246.448L257.349 245.653M261.849 239.796C259.695 239.977 257.369 239.934 255.378 240.636C257.148 242.308 258.83 244.114 260.558 245.815C260.712 244.664 261.026 243.528 261.293 242.407"
        fill="black" />
    <path fill-rule="evenodd" clip-rule="evenodd"
        d="M283.881 133.435C299.22 133.435 315.086 145.321 320.709 152.906C325.436 159.282 327.981 188.118 327.981 207.605C327.981 211.681 330.231 219.364 329.575 223.263C327.169 237.548 316.686 249.53 295.939 249.53C275.192 249.53 260.317 241.309 244.897 219.236C237.414 219.236 233.788 213.5 233.736 204.448C233.683 195.396 240.958 192.103 240.958 192.103C240.958 192.103 238.364 156.38 244.897 147.079C251.429 137.778 268.542 133.435 283.881 133.435Z"
        fill="white" />
    <path fill-rule="evenodd" clip-rule="evenodd"
        d="M277.426 128.384C287.111 127.404 296.601 128.227 306.146 129.932C306.875 130.064 307.288 130.542 307.442 131.117C311.937 131.322 316.438 131.652 320.928 131.898C322.557 131.987 323.481 133.596 322.738 135.049C322.589 135.338 322.435 135.619 322.278 135.9L322.475 135.835C323.826 135.402 325.285 135.188 326.601 135.876C328.276 136.751 328.932 138.681 328.562 140.458C328.467 140.912 328.308 141.347 328.127 141.771C328.495 141.747 328.865 141.755 329.232 141.803C331.188 142.063 332.642 143.562 332.744 145.557C332.895 148.571 330.953 151.628 328.665 153.786C328.997 154.469 329.124 155.274 328.986 156.09C328.711 157.702 327.523 158.667 326.145 159.297C326.72 161.12 326.991 163.026 326.831 164.974C326.777 165.624 326.209 166.162 325.608 166.293C327.846 172.455 328.979 179.069 329.794 185.515C330.375 190.101 330.661 194.713 330.696 199.334C330.713 201.42 330.679 203.508 330.591 205.595L330.556 206.377C330.448 208.632 330.443 211 330.037 213.231C331.42 215.583 331.977 218.503 332.212 221.138C332.504 224.401 332.042 227.766 331.012 230.869C327.128 242.594 315.403 249.994 303.627 251.917C292.727 253.697 280.114 251.301 273.744 241.404C273.644 241.247 273.858 241.118 273.982 241.22C278.539 244.925 283.826 246.578 289.569 247.383C299.5 248.771 310.662 246.416 318.631 240.172C322.457 237.175 325.215 232.811 326.428 228.114C327.047 225.713 327.26 223.21 327.017 220.739C326.768 218.233 325.658 216.094 324.959 213.725C324.724 212.926 324.972 212.183 325.461 211.654C325.599 209.731 325.923 207.792 326.047 205.875C326.185 203.695 326.269 201.516 326.298 199.334C326.355 194.808 326.166 190.273 325.785 185.766C325.088 177.513 323.238 169.46 322.152 161.277C321.75 161.638 321.173 161.786 320.569 161.471L320.507 161.436L320.177 161.248C320.158 161.248 320.136 161.25 320.117 161.253C317.862 161.472 315.522 161.159 313.361 160.486C311.1 159.784 309.001 158.704 307.126 157.264C306.77 159.071 306.621 160.896 306.618 162.738C306.616 163.889 305.397 164.486 304.43 163.994C300.143 161.817 296.047 159.309 292.16 156.489C291.706 158.814 291.252 161.139 290.795 163.467C290.62 164.364 289.477 164.726 288.745 164.299C285.833 162.606 283.318 160.389 281.27 157.753C280.862 158.534 280.452 159.316 280.039 160.096L279.417 161.264C278.804 162.411 277.983 163.681 276.64 164.048C275.219 164.437 274.033 163.516 273.555 162.23C273.409 161.831 273.274 161.42 273.15 161.007C271.939 163.77 270.573 166.471 269.027 169.047C266.709 172.911 263.927 176.354 261.153 179.887C260.31 180.959 258.867 179.935 258.751 178.893C258.683 178.28 258.627 177.665 258.578 177.051C256.961 180.312 255.274 183.543 253.437 186.68L253.7 187.711V187.711C254.458 190.757 255.088 193.824 255.772 196.886C255.993 197.874 255.468 199.286 254.313 199.454C252.934 199.655 251.629 200.36 250.216 199.875C248.676 199.346 248.371 198.015 247.644 196.754C247.499 196.502 247.33 196.271 247.148 196.052L247.102 196.112V196.112C246.989 196.261 246.719 196.099 246.786 195.929L246.865 195.732V195.732C246.24 195.069 245.493 194.516 244.805 193.921C243.171 193.646 241.333 193.947 240.208 194.611C237.644 196.123 236.466 199.239 236.442 202.105C236.412 205.459 237.452 209.229 239.208 212.097C239.981 213.358 241.04 214.498 242.439 215.057C243.828 215.613 245.333 215.44 246.746 215.964C247.68 216.313 248.256 217.35 247.691 218.289C247.653 218.354 247.61 218.413 247.569 218.476L247.989 219.033C248.279 219.42 248.58 219.833 248.861 220.263C249.579 221.09 250.336 221.887 251.068 222.7C252.421 224.198 253.734 225.738 255.066 227.258C256.322 228.692 257.651 230.039 259.021 231.365C260.315 232.621 261.931 233.677 263.119 235.017C264.275 236.324 264.589 238.606 262.687 239.362C260.582 240.201 258.72 238.235 257.303 236.924L257.243 236.869C254.647 234.481 252.302 231.751 250.44 228.745C248.595 230.001 245.927 230.12 244.091 228.865C243.124 228.205 242.382 227.096 242.022 225.888C241.682 225.965 241.343 226.009 241.011 226.004C240.841 226.103 240.67 226.199 240.497 226.289C239.127 227.001 237.444 226.683 236.818 225.168C236.247 223.792 236.835 222.23 237.349 220.904L237.455 220.631C237.747 219.875 238.068 219.051 238.468 218.276C237.355 217.439 236.404 216.399 235.599 215.216C232.895 211.233 231.544 205.407 232.141 200.655C232.501 197.787 233.848 194.816 236.056 192.882L235.975 192.671V192.671C235.356 191.103 234.794 189.528 234.43 187.87C234.003 185.931 233.794 183.922 233.606 181.948C233.206 177.778 233.314 173.514 233.846 169.36C234.846 161.542 237.38 153.867 241.878 147.361C240.602 145.835 239.592 144.039 240.119 141.974C240.359 141.025 240.907 140.126 241.734 139.583C242.191 139.284 242.734 139.238 243.19 138.989L243.328 138.914C243.528 138.797 243.375 138.809 243.255 138.266C242.783 136.094 243.174 133.996 245.565 133.275C247.815 132.597 249.944 134.037 251.276 135.751C254.761 133.28 259.353 131.987 263.392 130.888C267.985 129.642 272.696 128.865 277.426 128.384ZM239.784 201.219C239.768 199.45 241.445 198.359 243.096 198.648C244.205 198.841 245.129 199.502 245.998 200.186L246.421 200.521C247.478 201.351 248.692 202.245 249.323 203.42C250.247 205.154 248.294 207.487 246.47 206.272C245.219 205.434 244.417 204.091 243.597 202.844L243.512 202.715C243.139 202.156 242.812 201.562 242.301 201.114L242.191 201.017C242.023 200.874 241.843 200.743 241.626 200.681C241.208 200.561 240.433 200.73 240.249 201.227L240.232 201.278C240.165 201.53 239.787 201.475 239.784 201.219Z"
        fill="black" />
    <path fill-rule="evenodd" clip-rule="evenodd"
        d="M306.547 223.12C306.962 222.399 307.916 221.732 308.789 221.834C312.7 222.293 312.694 227.034 311.183 229.801C309.844 232.255 307.073 233.696 304.299 233.485C301.385 233.264 298.902 231.551 297.809 228.826C297.087 227.024 296.753 223.696 298.675 222.484C298.711 222.462 298.77 222.467 298.798 222.5C299.72 223.572 299.756 225.181 300.563 226.375C301.313 227.485 302.479 228.401 303.845 228.543C304.865 228.649 305.897 228.281 306.296 227.365C306.512 226.87 306.487 226.601 306.406 226.26L306.333 225.964C306.077 224.927 305.962 224.137 306.547 223.12ZM307.593 202.329C309.633 203.569 312.741 206.459 310.547 209.532C307.963 212.242 304.244 209.135 302.412 207.73C300.712 206.641 298.803 209.442 300.379 210.713C313.623 220.515 318.998 202.653 308.625 200.872C307.483 200.675 307.058 201.946 307.593 202.329ZM286.051 193.829C287.303 191.951 290.161 192.228 290.851 194.456C291.224 195.663 290.708 196.749 290.735 197.954C290.757 198.972 290.691 200.107 290.378 201.094C289.666 203.343 287.643 204.931 285.249 204.865C282.863 204.8 280.762 203.29 279.762 201.164C278.76 199.029 278.972 196.821 279.704 194.65C279.739 194.546 279.876 194.496 279.958 194.583C280.824 195.503 281.457 196.473 282.113 197.503L282.784 198.558C283.298 199.353 284.044 200.367 285.002 200.304L285.146 200.29C285.413 200.267 285.372 200.32 285.577 199.957C285.672 199.789 285.655 199.476 285.701 199.278L285.717 199.211V199.211L285.708 199.175C285.688 199.079 285.668 198.898 285.652 198.584L285.648 198.515C285.579 197.047 285.164 195.16 286.051 193.829ZM317.791 195.079C317.566 192.678 320.944 192.144 322.067 193.921C322.653 194.848 322.823 196.012 322.953 197.116L323.013 197.639C323.146 198.772 323.199 199.951 322.707 201.007C321.932 202.672 320.247 203.551 318.43 203.412C316.694 203.279 315.111 202.273 314.276 200.746C313.532 199.383 312.792 196.722 313.696 195.301C313.75 195.215 313.859 195.204 313.934 195.27C314.788 196.028 314.927 197.411 315.435 198.398C315.959 199.417 316.754 200.41 317.958 200.565C319.11 200.713 319.55 200.084 319.256 198.986C318.877 197.569 317.933 196.604 317.791 195.079ZM286.963 179.549L287.515 179.338C289.408 178.623 292.007 177.797 293.545 179.336C294.495 180.284 294.675 181.682 293.998 182.84C293.177 184.242 291.704 184.277 290.282 184.483C288.665 184.718 287.02 185.165 285.514 185.802C283.818 186.519 282.244 187.414 280.702 188.412C279.236 189.362 277.775 190.913 276.02 191.206C275.949 191.218 275.868 191.187 275.849 191.108C275.45 189.393 276.558 187.706 277.546 186.368C278.742 184.748 280.19 183.419 281.81 182.226C283.373 181.076 285.158 180.244 286.963 179.549ZM321.344 185.646L321.513 185.617C322.66 185.426 323.7 185.47 324.565 186.379C325.226 187.072 325.48 187.97 325.165 188.887C324.875 189.732 324.226 190.591 323.283 190.769C320.101 191.367 316.576 191.268 313.378 190.815C311.915 190.608 310.439 190.354 309.014 189.954L308.358 189.764C307.168 189.424 305.806 189.069 304.942 188.194C304.631 187.88 304.81 187.43 305.182 187.284C306.69 186.694 308.757 187.008 310.365 186.962C312.235 186.908 314.109 186.768 315.97 186.575C317.79 186.386 319.55 185.975 321.344 185.646Z"
        fill="black" />
</svg>