<svg viewBox="0 0 402 397" fill="none" xmlns="http://www.w3.org/2000/svg">
    <path fill-rule="evenodd" clip-rule="evenodd"
        d="M171.717 4.7936C231.698 1.10649 297.765 -11.2229 343.627 27.6338C391.616 68.292 400.444 136.75 401.716 199.658C403.021 264.186 401.932 339.543 350.728 378.787C301.475 416.535 233.03 385.406 171.717 375.935C124.235 368.6 73.1909 366.187 40.5853 330.877C8.86182 296.523 12.3786 246.307 8.94093 199.658C5.05744 146.959 -14.1612 88.0895 19.7061 47.5459C54.7978 5.53663 117.104 8.15078 171.717 4.7936Z"
        fill="#FFE3F1" />
    <path fill-rule="evenodd" clip-rule="evenodd"
        d="M200.59 333.627C201.184 331.239 200.31 329.335 197.801 327.929C197.585 327.361 192.736 325.519 188.882 322.815C185.42 320.385 182.909 317.051 182.804 316.866C182.804 316.866 182.026 315.065 181.937 314.252C181.511 310.354 181.757 307.798 181.495 306.586C183.265 306.355 187.618 191.998 186.914 188.208C188.067 187.956 189.29 187.69 190.389 187.043C190.477 187.021 190.333 186.768 190.337 186.72C193.094 181.336 188.864 163.028 186.213 157.959C188.318 157.905 191.092 157.62 192.395 155.872C193.012 155.67 193.401 155.318 193.701 154.753C194.046 154.214 194.366 153.649 194.654 153.07C196.057 150.171 196.922 146.953 196.454 143.76C196.543 143.732 197.003 143.729 197.025 143.601C197.071 142.816 196.926 142.124 196.689 141.383C194.279 133.032 191.38 124.809 187.546 116.947C185.626 112.739 181.651 111.203 177.534 109.624C175.553 108.849 173.571 107.956 171.503 107.449C171.477 107.305 171.601 106.868 171.33 106.903C170.995 106.973 171.061 107.508 170.937 107.808C166.157 103.916 169.188 101.91 166.306 99.779C163.323 98.2392 159.685 98.1766 156.397 98.5099C155.183 98.5448 154.213 99.0887 153.927 100.303C152.884 102.816 150.44 104.666 147.774 105.233C147.554 104.843 146.948 103.724 146.609 104.078C142.759 104.208 136.921 105.614 133.317 106.666C129.699 107.584 126.039 109.262 125.093 113.171C123.376 120.138 126.108 148.767 130.589 154.281L130.735 154.283C131.53 155.092 132.61 155.685 133.833 156.082C133.806 158.66 132.989 161.176 132.582 163.697C131.667 168.269 130.964 172.846 129.944 177.442C129.94 177.954 128 184.961 129.912 183.556C130.307 183.749 130.79 183.959 131.216 184.14C129.184 188.745 128.254 196.176 128.398 201.865C128.434 205.254 128.293 208.222 127.529 211.691C121.875 241.089 116.89 306.843 116.773 307.722C116.666 308.562 117.381 313.122 116.773 314.326C116.234 315.393 113.934 314.763 113.494 315.175C112.351 317.026 112.874 318.205 111.937 320.053C111.456 320.481 110.381 321.417 110.029 322.074C109.315 322.758 97.4929 330.473 97.972 331.644C97.972 331.644 97.9181 332.206 97.9 332.328C96.8921 338.16 98.5704 338.111 104 338.969C111.933 340.361 117.861 337.684 124.565 334.107C126.793 332.612 129.959 329.76 128.928 326.381C128.9 326.175 128.289 322.621 128.046 320.817C128.046 320.817 128.703 319.372 126.16 319.552C126.579 319.095 127.497 313.182 127.184 312.399C126.985 310.384 127.294 308.555 127.196 306.481C128.261 306.56 146.962 218.388 158.691 212.909C158.764 213.495 158.623 214.585 159.405 214.694C163.033 242.844 171.756 305.906 172.156 306.016C171.555 309.231 171.573 316.683 171.562 319.874C171.47 319.96 171.048 320.334 170.98 320.426C170.966 320.402 170.691 320.675 170.677 320.682L170.639 320.598C169.404 323.369 167.603 326.222 169.195 328.938C168.013 328.852 168.203 331.113 168.15 332.153C168.823 334.189 187.95 339.682 192.224 339.943C193.628 340.186 200.169 338.118 201.427 337.82C203.058 337.517 201.458 334.503 200.59 333.627Z"
        fill="white" />
    <path fill-rule="evenodd" clip-rule="evenodd"
        d="M154.722 99.6191C155.341 99.6 155.459 100.375 155.036 100.696L155.019 100.709C154.658 100.963 154.489 101.191 154.293 101.597C153.338 104.109 150.646 105.551 148.013 105.017C148.928 106.714 149.542 108.356 150.457 110.023C154.673 118.659 168.516 121.469 170.172 109.62C167.635 109.132 166.132 103.459 167.76 101.767L167.804 101.973C168.273 104.195 168.594 106.47 170.287 108.145C170.339 108.16 170.388 108.165 170.437 108.165C170.501 107.86 170.576 107.56 170.668 107.264C170.894 106.544 172.022 106.68 171.99 107.459C175.368 108.482 178.615 109.932 181.845 111.333C184.532 112.498 186.728 114.583 187.979 117.222C191.488 124.443 194.166 132.064 196.502 139.732C196.658 140.768 198.405 144.619 196.996 144.989C197.341 148.161 196.457 151.37 195.092 154.219C194.458 155.289 194.011 156.773 192.738 157.219C191.416 158.87 189 159.299 186.987 159.415C189.694 165.75 193.37 181.888 190.884 188.183C191.105 189.216 188.239 189.706 187.473 189.942C188.091 193.614 187.956 197.397 187.689 201.095C185.194 232.641 184.721 264.36 187.346 295.914C187.5 297.88 187.667 299.847 187.843 301.813L187.949 302.991C188.089 304.561 188.208 306.124 188.171 307.706C188.16 308.255 187.702 308.584 187.245 308.613C185.708 309.588 183.644 309.596 181.867 309.831C182.181 311.535 182.357 314.194 182.906 315.628C184.05 315.331 184.787 316.391 183.647 316.99C185.05 317.765 185.772 319.247 186.896 320.288C189.982 319.041 190.556 320.904 188.035 321.328C188.72 321.897 189.448 322.423 190.2 322.922L190.254 322.915C191.143 322.781 192.82 322.049 193.242 323.018C193.431 323.719 192.56 323.942 191.929 324.027C192.489 324.378 193.05 324.727 193.612 325.076C194.103 324.861 194.591 324.592 195.092 324.42C196.326 324.147 196.432 325.739 194.822 325.829C195.831 326.569 197.223 326.143 197.867 327.188C200.226 328.135 201.341 330.995 200.79 333.281C201.618 334.014 202.2 335.111 202.267 336.214C202.426 337.396 201.481 338.508 200.199 338.819C198.756 339.297 197.292 339.733 195.832 340.143L195.679 340.195C194.476 340.603 193.162 340.968 191.911 340.897C184.489 340.457 174.593 337.425 168.653 333.653C167.171 332.545 166.912 329.806 168.951 328.931C168.011 327.236 168.46 326.006 168.859 324.16C169.135 322.957 169.511 321.722 170.19 320.609C170.251 320.51 170.396 320.54 170.404 320.637C170.493 321.896 170.375 323.184 170.28 324.452L170.27 324.593C170.186 325.762 169.995 326.192 170.314 327.299C171.077 330.123 178.437 331.534 181.329 332.698C183.599 333.398 185.904 334.024 188.242 334.575L188.413 334.612C190.386 335.043 192.418 335.697 194.496 335.357C195.574 334.578 197.191 334.797 198.25 333.905C199.847 332.19 198.591 329.675 197.472 328.116C196.39 328.46 195.465 327.536 194.668 327.047L194.639 327.029C193.825 326.518 193.013 326.876 192.199 326.365L192.015 326.4C189.021 326.968 186.703 327.615 191.478 325.917C190.691 325.428 189.903 324.935 189.139 324.416C187.571 324.605 185.853 325.423 184.396 325.498C185.376 324.589 186.714 324.086 187.975 323.586C187.241 323.032 186.543 322.439 185.918 321.786L185.321 321.934C181.655 322.84 180.213 323.101 185.149 320.893C184.179 319.821 184.021 318.234 182.954 317.225C181.237 317.583 179.66 318.334 178.262 319.303C177.697 319.706 177.271 320.209 176.823 320.712C174.701 323.427 171.414 323.846 170.41 320.325C170.393 320.252 170.507 320.207 170.539 320.269L170.542 320.277C171.023 321.359 172.572 322.235 173.867 321.563L173.906 321.542C175.172 320.886 175.76 319.548 176.757 318.636C178.102 317.428 179.789 316.618 181.529 316.01C181.107 314.477 180.965 311.686 181.013 309.888C178.083 310.025 175.133 309.885 172.255 309.331C172.716 312.674 172.413 317.026 172.625 320.007C172.931 321.008 171.068 321.633 170.869 320.637C170.76 317.41 171.077 312.757 171.571 309.157L171.365 309.107C171.169 309.058 170.964 309 170.797 308.906C168.95 309.114 169.454 304.446 169.144 303.134C167.06 274.184 162.67 245.494 158.939 216.735C158.422 216.538 158.33 215.906 158.245 215.379C153.544 218.543 152.607 224.867 150.502 229.769C141.312 255.151 137.206 281.93 130.837 308.068L130.872 308.077C130.897 308.084 130.897 308.088 130.845 308.084L130.833 308.083V308.085C131.226 308.137 131.536 308.548 131.296 308.931C130.579 310.37 128.591 309.861 127.283 309.769C127.41 311.986 126.932 316.768 127.235 318.743C128.849 318.773 128.952 320.54 129.165 321.59L129.182 321.698C129.467 323.492 130.426 326.856 129.71 328.307C130.817 329.616 130.02 331.396 128.872 332.291C127.642 333.194 126.111 333.724 124.721 334.42C118.179 337.049 111.849 342.117 103.831 340.166L103.482 340.093C97.8626 338.912 96.2482 338.388 97.3641 332.857C96.9059 331.733 96.9028 330.502 97.5476 329.508C98.6976 328.04 100.63 327.237 102.167 326.122C104.771 324.382 107.543 322.861 110.086 321.049C109.992 320.968 110.123 320.938 110.2 320.952C111.995 319.554 111.827 317.135 113.079 315.408C113.393 314.519 114.974 314.302 116.015 314.425C115.69 312.767 117.279 305.22 117.481 310.551L117.481 310.627C117.485 311.451 117.621 314.198 117.377 314.736C120.834 315.786 121.579 319.089 122.319 321.756L122.367 321.768C122.603 321.829 122.919 321.878 123.037 322.109C124.149 321.406 124.459 320.023 125.536 319.279C125.234 319.044 125.218 318.596 125.372 318.248C125.873 316.42 126.174 311.767 126.931 309.725C123.373 309.195 119.748 308.925 116.272 307.963C115.82 308.404 114.894 308.248 114.93 307.451C116.006 290.098 117.858 272.798 120.191 255.569C122.11 239.443 125.486 223.521 127.837 207.479L127.857 205.277C127.92 198.658 128.098 191.94 130.58 185.709C130.361 185.614 130.145 185.516 129.931 185.413C127.24 186.522 129.36 179.782 129.459 178.567C130.782 171.524 132.34 164.482 133.333 157.395C132.292 157.021 131.33 156.49 130.528 155.718C125.666 151.782 122.848 119.905 124.615 113.496C125.537 109.464 129.446 107.483 133.172 106.572L133.722 106.418C137.883 105.254 142.116 104.199 146.448 103.94C146.602 103.8 147.056 103.84 147.115 103.957C147.386 104.119 147.644 104.436 147.862 104.772C153.875 104.084 152.248 100.176 154.722 99.6191ZM169.107 329.185C168.265 331.087 169.384 332.533 171.259 333.332C177.754 336.327 185.004 338.733 192.447 339.193C194.718 338.646 196.968 337.744 199.269 337.185L199.368 337.167C200.178 337.02 200.559 336.871 200.489 336.034L200.519 335.696C200.571 335.095 200.615 334.495 200.573 333.894C199.865 335.577 197.745 336.503 195.888 336.843C192.942 338.233 189.643 336.819 186.749 336.224C182.049 334.803 171.879 332.569 169.107 329.185ZM128.307 329.225L128.21 329.255C127.367 329.514 126.51 329.832 125.565 329.598C121.344 331.021 117.235 332.635 113.158 334.315C108.758 336.41 101.674 338.845 97.8617 333.783C98.4098 336.438 97.6349 337.346 101.275 338.009C107.051 339.882 111.692 338.923 116.484 336.363C119.996 334.666 123.772 333.316 127.171 331.471L127.217 331.438C127.886 330.964 128.692 330.098 128.307 329.225ZM119.541 317.794C118.438 315.773 115.473 314.662 113.267 315.408C113.043 317.358 113.624 319.541 112.379 321.234C113.482 321.426 114.581 321.647 115.678 321.877L116.682 322.088C117.175 322.195 117.802 322.379 117.72 322.899C117.629 323.473 116.87 323.298 116.366 323.153L116.17 323.096C114.753 322.681 113.338 322.258 111.939 321.784C111.201 322.591 110.211 323.224 109.251 323.836L109.649 323.881C111.045 324.037 112.453 324.178 113.832 324.459C114.434 324.637 114.304 325.453 113.688 325.388C112.042 324.961 110.401 324.478 108.727 324.172C107.908 324.71 107.094 325.251 106.274 325.786C107.887 326.018 109.507 326.039 111.12 326.176C112.164 326.272 112.163 327.691 111.12 327.609C109.236 327.437 107.354 326.883 105.56 326.253L104.615 326.871C103.512 327.592 102.406 328.311 101.289 329.015C100.618 329.44 99.7498 329.845 99.2803 330.462C97.7975 332.843 101.502 335.119 104.006 335.081C107.808 335.122 110.975 333.158 114.306 331.983C116.149 331.529 125.516 326.866 126.369 328.093C126.905 327.837 127.65 327.745 128.036 327.323C128.114 325.373 127.701 323.33 127.354 321.363C127.284 321.02 127.115 320.608 127.096 320.255C125.536 320.828 125.091 322.994 123.037 322.809C122.716 323.32 121.726 323.082 121.279 322.677C120.793 322.235 120.732 321.614 120.616 321.06L120.562 320.806C120.344 319.787 120.083 318.742 119.541 317.794ZM165.779 152.398L165.528 152.462C162.972 153.098 160.299 153.558 157.672 153.387C157.218 155.095 157.455 159.159 155.608 159.808C154.977 160.045 154.028 159.853 153.738 159.212C149.918 159.145 146.071 158.805 142.251 158.579C139.375 158.354 136.391 158.363 133.623 157.495C133.958 159.175 134.074 160.824 133.886 162.542C133.24 169.868 131.115 177.006 130.402 184.302L130.369 184.649L130.349 184.637C130.349 184.651 130.348 184.665 130.347 184.678C130.554 184.738 130.762 184.801 130.968 184.864C131.042 184.827 131.143 184.863 131.196 184.934C146.41 189.64 162.559 191.684 178.416 189.613C181.193 189.268 183.95 188.785 186.688 188.213C186.664 187.969 187.037 187.905 187.103 188.135C187.71 188.03 188.318 187.914 188.922 187.837C188.849 187.632 188.836 187.411 188.911 187.212C190.09 183.695 189.551 179.686 189.18 176.039C188.706 170.44 187.524 164.948 186.57 159.424C182.051 159.22 177.56 158.486 173.02 158.578C172.541 159.811 170.874 160.847 169.569 160.142C168.647 159.647 168.374 158.567 168.004 157.676C167.273 155.912 166.526 154.155 165.779 152.398ZM146.634 104.107C141.889 105.501 137.028 106.496 132.327 108.043C128.419 109.011 125.752 111.45 125.587 115.607C125.265 124.514 126.247 133.466 127.729 142.244L127.806 142.64C128.628 146.87 129.366 151.175 130.919 155.207C133.186 156.255 135.76 156.553 138.24 156.675C141.859 156.858 145.479 157.046 149.095 157.281L151.93 157.464C152.753 157.517 153.897 157.377 154.515 158.013C154.57 158.103 154.681 158.092 154.766 158.148L154.782 158.16C154.873 158.221 154.964 158.369 155.094 158.34C155.305 158.275 155.386 157.855 155.436 157.655L155.44 157.637C155.716 156.565 155.915 155.471 156.17 154.394C156.749 152.274 156.999 150.033 157.88 148.004C156.619 147.204 155.431 146.289 154.412 145.203L153.184 144.772C150.245 143.747 147.274 142.754 144.211 142.139C144.137 142.808 143.173 143.19 142.813 142.49C142.216 140.708 142.106 138.772 141.695 136.935C140.761 131.454 139.652 125.993 139.006 120.468C140.786 125.361 141.709 131.367 143.069 136.656C143.132 136.619 143.22 136.64 143.222 136.727C148.04 134.915 153.388 134.989 158.142 136.911C159.333 137.387 160.543 137.813 161.727 138.303C162.132 138.53 162.938 138.516 163.073 139.013C163.219 138.676 163.415 138.36 163.674 138.147C163.755 137.981 164.676 137.684 164.766 138.013C170.167 138.75 175.418 141.087 180.976 140.692C180.318 138.305 180.396 135.727 180.352 133.261L180.365 132.983C180.48 130.554 180.562 127.548 181.39 125.549C180.861 130.581 181.245 135.622 181.892 140.607C185.812 140.104 184.007 142.333 181.396 142.249C176.127 142.627 171.265 140.31 166.416 138.621C163.768 137.568 163.468 138.46 163.586 140.962C163.588 144.221 165.072 147.194 166.416 150.085L167.02 151.435C168.023 153.682 169.013 155.914 169.988 158.187C174.248 156.783 179.044 157.553 183.457 157.809C186.825 158.23 189.243 158.081 192.091 156.144C193.119 154.191 194.473 152.34 195.002 150.138C195.616 148.119 195.821 146.005 196 143.914L195.839 143.328C193.762 135.819 191.465 128.347 188.325 121.194L188.155 120.8C187.091 118.323 186.009 115.724 183.856 113.989C180.242 111.335 175.772 110.158 171.973 107.797L171.949 107.969C171.563 110.678 170.897 113.486 169.154 115.665C165.933 119.599 159.851 119.709 155.728 117.155C151.44 114.797 148.867 110.407 147.616 105.818L147.601 105.767C147.484 105.358 147.157 104.12 146.634 104.107ZM158.28 148.252C158.277 149.695 157.991 151.117 157.798 152.541C160.027 152.103 162.25 151.798 164.442 151.206C162.307 150.404 160.231 149.437 158.28 148.252ZM152.912 136.618C149.661 135.985 146.333 136.364 143.118 136.874C143.468 138.488 143.867 140.089 144.2 141.705C145.351 141.653 156.271 143.576 155.039 145.12C156.651 145.977 158.178 146.985 159.782 147.861C161.396 148.741 163.076 149.498 164.809 150.113L164.718 149.911C163.226 146.597 161.832 142.867 162.982 139.245C161.436 139.862 159.326 138.537 157.829 138.041C156.239 137.407 154.602 136.906 152.912 136.618ZM129.508 123.785C129.519 123.181 131.397 124.914 131.642 125.094L131.79 125.228C133.592 126.854 135.372 128.643 136.376 130.875C136.45 133.068 133.163 127.755 132.707 127.43C131.713 126.158 130.502 125.053 129.508 123.785ZM181.472 128.948C180.964 129.114 182.351 127.4 182.891 127.525C183.106 127.494 183.294 127.804 183.055 127.911L182.936 127.963C182.381 128.202 181.814 128.407 181.472 128.948Z"
        fill="black" />
    <path fill-rule="evenodd" clip-rule="evenodd"
        d="M150.598 57.2064C156.798 56.8699 162.291 55.1375 166.655 59.0146C166.655 59.0146 173.715 53.7714 174.893 55.7684C175.682 57.1064 174.588 58.9027 174.881 60.5538C176.795 63.7983 176.687 69.2901 176.795 70.577C177.068 73.8209 178.786 86.0274 178.786 88.926C178.786 90.4056 177.559 94.2806 176.795 96.4371C175.095 101.237 171.849 103.683 166.526 103.683C161.203 103.683 152.515 99.2588 149.729 95.3307C149.484 94.9865 147.905 95.9908 146.254 94.2487C144.464 92.3613 143.472 88.7615 143.472 86.6156C143.472 83.8926 141.702 82.0042 141.908 78.5187C142.367 70.7344 143.964 57.5666 150.598 57.2064Z"
        fill="white" />
    <path fill-rule="evenodd" clip-rule="evenodd"
        d="M149.905 48.1562C149.986 48.1513 150.068 48.1552 150.149 48.1632C150.239 48.1671 150.329 48.1758 150.418 48.1935C150.874 48.2805 151.28 48.5202 151.595 48.8577C151.604 48.8665 151.611 48.8764 151.618 48.8851C151.766 48.9957 151.903 49.121 152.026 49.254C152.047 49.2335 152.068 49.213 152.091 49.1925C152.156 49.1356 152.224 49.0818 152.294 49.031C152.591 48.7782 152.939 48.5945 153.313 48.4899L153.364 48.4762C153.374 48.4732 153.384 48.4713 153.393 48.4693C153.659 48.3813 153.938 48.3363 154.22 48.3372C154.556 48.3265 154.894 48.3813 155.209 48.5104C155.582 48.6641 155.906 48.9067 156.179 49.1983C156.358 49.3431 156.514 49.5025 156.68 49.6778C157.021 50.0407 157.291 50.4653 157.461 50.9331C157.484 50.9986 157.505 51.066 157.524 51.1336C157.94 51.0857 158.358 51.0515 158.776 51.0347C159.246 51.0065 159.715 50.9966 160.185 51.0123C161.481 51.0543 162.748 51.2814 163.975 51.6972C164.221 51.7695 164.46 51.8615 164.69 51.975C165.051 52.1179 165.393 52.2998 165.715 52.52L165.989 52.6816C166.126 52.763 166.264 52.8454 166.397 52.9299C166.715 53.1326 167.016 53.3595 167.302 53.6041C167.603 53.8459 167.887 54.109 168.158 54.3849C168.231 54.4595 168.302 54.5352 168.372 54.6113C168.996 54.946 169.55 55.3745 170.066 55.8857C170.476 55.6512 170.901 55.4387 171.338 55.2498C171.79 55.0551 172.364 54.8545 172.837 54.7225C173.262 54.6041 173.682 54.5229 174.108 54.4631C174.302 54.4299 174.497 54.4035 174.693 54.381L174.685 54.384V54.384C174.822 54.3692 174.959 54.3565 175.098 54.3448L175.094 54.3438V54.3438C175.153 54.339 175.213 54.334 175.272 54.3301L175.416 54.3184V54.3184C175.459 54.3145 175.522 54.4152 175.526 54.4504L175.531 54.4866V54.4866C175.563 54.5229 175.593 54.563 175.613 54.5875C175.639 54.5854 175.665 54.5836 175.69 54.5825C175.767 54.5758 175.855 54.7117 175.901 54.7635L175.942 54.8113C175.988 54.8671 176.035 54.9313 176.042 55.0013C176.093 55.4074 176.14 55.8143 176.183 56.2214C176.2 56.5296 176.183 56.8348 176.132 57.1372C176.094 57.4307 176.054 57.7242 176.015 58.0168C175.952 58.2224 175.89 58.4278 175.828 58.6332C175.803 58.7116 175.776 58.7888 175.749 58.8661C175.592 59.3823 175.407 59.8848 175.188 60.3718C175.348 60.5481 175.497 60.7308 175.636 60.9196C175.67 60.9535 175.703 60.9873 175.734 61.0225C175.743 61.0089 175.756 60.9962 175.77 60.9892C175.817 60.9687 175.852 60.9932 175.881 61.0334C176.191 61.3278 176.416 61.6713 176.556 62.0636L176.643 62.2681C176.657 62.3023 176.672 62.3366 176.686 62.3708C176.797 62.6683 176.883 62.9736 176.953 63.2827C177.017 63.5259 177.062 63.7725 177.092 64.0217C177.304 64.7313 177.472 65.4573 177.631 66.1735C177.656 66.2862 177.644 66.3868 177.608 66.4725L177.7 66.5624V66.5624L177.859 66.7192C178.125 66.9829 178.396 67.2602 178.594 67.5741C178.798 67.8999 178.949 68.2482 179.116 68.5937L179.152 68.6671V68.6671L179.226 68.8142C179.305 68.9749 179.344 69.0637 179.414 69.2579C179.531 69.5819 179.594 69.9076 179.624 70.2511C179.667 70.751 179.661 71.296 179.441 71.7607C179.44 71.7646 179.438 71.7677 179.436 71.7705C179.335 72.2197 179.088 72.6364 178.711 72.9026C178.63 72.978 178.543 73.0455 178.451 73.0992C178.229 73.2288 178.025 73.2404 177.783 73.1805L177.752 73.1726C177.722 73.1648 177.694 73.1579 177.668 73.1521C177.707 73.1843 177.727 73.2226 177.668 73.2499C177.611 73.2773 177.56 73.293 177.511 73.2988C177.532 73.3252 177.534 73.3536 177.491 73.3771C177.396 73.427 177.319 73.4427 177.241 73.429L177.257 73.565C177.386 74.5943 177.502 74.7979 177.603 75.9035C177.67 77.0354 177.776 78.1645 177.923 79.2888L177.973 79.6974C178.135 80.9922 178.317 82.2965 178.596 83.5703C178.736 84.1271 178.857 84.6877 178.96 85.2523C179.104 85.6818 179.206 86.1211 179.262 86.5692C179.343 87.0252 179.399 87.485 179.432 87.9488C179.545 88.2454 179.6 88.5466 179.597 88.8538C179.612 89.2667 179.598 89.6787 179.554 90.0887C179.529 90.5152 179.47 90.9379 179.377 91.3567C179.293 91.9311 179.141 92.4859 178.922 93.024C178.747 93.6246 178.533 94.2138 178.289 94.7899C177.91 95.6823 177.452 96.511 176.932 97.328C176.444 98.0941 175.92 98.8318 175.322 99.5178C174.549 100.404 173.667 101.216 172.701 101.901C172.15 102.306 171.569 102.67 170.961 102.981C170.217 103.363 169.461 103.706 168.655 103.938C168.153 104.083 167.641 104.183 167.123 104.259C166.107 104.409 165.054 104.386 164.032 104.211C163.373 104.123 162.725 103.971 162.112 103.752C161.608 103.572 161.128 103.366 160.648 103.133C160.401 103.015 160.162 102.878 159.934 102.724C159.551 102.476 159.191 102.197 158.857 101.887C158.748 101.794 158.641 101.7 158.537 101.6C158.487 101.556 158.514 101.49 158.573 101.475L158.59 101.473V101.473C158.568 101.452 158.544 101.432 158.521 101.41C158.516 101.406 158.513 101.401 158.509 101.396C158.498 101.387 158.486 101.377 158.476 101.367C158.438 101.334 158.476 101.259 158.51 101.242C158.522 101.235 158.539 101.234 158.558 101.236C158.554 101.232 158.551 101.229 158.547 101.226C158.543 101.223 158.542 101.215 158.543 101.207L158.528 101.196V101.196C158.478 101.152 158.504 101.087 158.563 101.07C158.592 101.062 158.639 101.066 158.689 101.077L158.707 101.081L158.674 101.05C158.615 100.999 158.634 100.942 158.706 100.925C158.761 100.928 158.814 100.935 158.867 100.948L158.907 100.959C158.927 100.964 158.945 100.97 158.965 100.976C158.932 100.945 158.898 100.916 158.866 100.886C158.833 100.857 158.868 100.776 158.897 100.759C158.938 100.737 159.016 100.768 159.053 100.795C159.142 100.804 159.26 100.843 159.304 100.881C159.423 100.994 159.546 101.103 159.671 101.208C159.746 101.232 159.818 101.263 159.873 101.31C160.015 101.445 160.162 101.572 160.313 101.696L160.427 101.774C160.447 101.787 160.466 101.8 160.485 101.812C160.702 101.938 160.918 102.064 161.134 102.19C161.924 102.456 162.714 102.722 163.503 102.987L163.607 103.019V103.019L164.374 103.112V103.112C164.877 103.165 165.382 103.162 165.886 103.105C166.264 103.11 166.638 103.072 167.007 102.996C167.634 102.89 168.249 102.735 168.847 102.518C169.536 102.268 170.192 101.939 170.833 101.585C171.063 101.457 171.289 101.321 171.512 101.177C171.583 101.126 171.655 101.074 171.727 101.022C172.2 100.668 172.653 100.292 173.089 99.8934C173.293 99.7065 173.49 99.5119 173.68 99.3104C173.708 99.2809 173.734 99.2526 173.761 99.2232C173.943 99.0256 174.119 98.8212 174.287 98.6097L174.448 98.4298V98.4298C175.095 97.6285 175.67 96.7665 176.188 95.8789C176.702 94.9993 177.125 94.0737 177.461 93.1159C177.569 92.7744 177.664 92.4281 177.743 92.0779C177.888 91.657 177.984 91.2256 178.028 90.7853C178.043 90.6991 178.054 90.613 178.066 90.5269L178.073 90.3912C178.074 90.3686 178.075 90.3459 178.075 90.3234C178.095 90.1866 178.112 90.0495 178.124 89.9125C178.132 89.7746 178.137 89.6366 178.138 89.4986L178.127 88.6523V88.6523C178.124 88.6259 178.121 88.5986 178.119 88.5711L178.098 88.3843C178.051 87.9987 178.014 87.6122 177.967 87.2268C177.967 87.2248 177.967 87.2218 177.966 87.2189C177.948 87.0751 177.929 86.9303 177.908 86.7854C177.897 86.6993 177.883 86.6132 177.87 86.5271L177.846 86.3766V86.3766C177.8 86.1146 177.745 85.8548 177.678 85.5973L177.648 85.4871L177.477 84.631L177.284 83.7885C177.159 83.224 177.055 82.6555 176.972 82.0822C176.823 81.1684 176.695 80.2535 176.584 79.3347C176.578 79.2907 176.572 79.2457 176.567 79.2017C176.454 78.3496 176.372 77.4943 176.319 76.6362C176.247 75.791 176.206 74.9436 176.195 74.0954C176.194 74.0571 176.219 74.0259 176.25 74.0082L176.247 73.8451C176.244 73.7008 176.241 73.8739 176.24 73.7094L176.238 73.257C176.238 73.2193 176.238 73.1931 176.239 73.1912C175.713 73.2273 175.36 73.1977 174.852 73.1711L174.766 73.1667C174.301 73.1453 173.838 73.0944 173.379 73.018C173.377 73.0416 173.361 73.0581 173.335 73.063C173.288 73.065 173.243 73.065 173.198 73.0661L173.215 73.1296V73.1296C173.216 73.1619 173.201 73.1824 173.169 73.1912L173.038 73.1971C172.863 73.2044 172.687 73.2078 172.513 73.1843C172.357 73.1639 172.204 73.1276 172.053 73.0845C171.959 73.0689 171.864 73.0475 171.766 73.02C171.517 72.9485 171.269 72.8527 171.018 72.7764C170.762 72.7225 170.502 72.705 170.231 72.7695C169.943 72.837 169.7 72.9593 169.399 72.8849C169.339 72.8704 169.281 72.8479 169.223 72.8243L169.169 72.8206C169.16 72.8198 169.151 72.8188 169.141 72.8174C168.828 72.7725 168.548 72.5749 168.249 72.4691C168.145 72.4438 168.041 72.4502 167.94 72.4922L167.915 72.5035L167.815 72.5768C167.775 72.6237 167.736 72.6711 167.696 72.7187L167.638 72.79C167.531 72.9221 167.417 73.0405 167.278 73.1266C167.111 73.2802 166.912 73.3702 166.675 73.3761C166.54 73.38 166.406 73.3517 166.276 73.3107C165.786 73.4613 165.262 73.4917 164.773 73.3449C164.579 73.3155 164.389 73.2637 164.207 73.1824C164.122 73.1442 164.036 73.0992 163.953 73.0493C163.608 73.1942 163.281 73.3869 162.948 73.5533L162.873 73.5908C162.532 73.7596 162.155 73.9243 161.769 73.8997C161.283 73.8683 160.806 73.8038 160.33 73.7225C160.326 73.7225 160.321 73.7215 160.317 73.7205L160.251 73.7097V73.7097L160.013 73.6681V73.6681L159.821 73.6326V73.6326L159.723 73.67C158.934 73.9667 158.07 74.1982 157.278 73.9906C156.932 73.9486 156.609 73.833 156.316 73.6364C156.307 73.6295 156.297 73.6227 156.287 73.6149C156.241 73.5914 156.197 73.5651 156.159 73.5367L156.151 73.5303V73.5303L156.143 73.5239L156.139 73.5219C155.707 73.3244 155.46 72.9035 155.503 72.432C155.476 72.2822 155.477 72.1355 155.507 71.979C155.366 72.1443 155.222 72.3078 155.077 72.4701C154.544 73.1079 154.023 73.7584 153.54 74.4356L153.429 74.5924C153.163 74.9651 152.916 75.3507 152.688 75.7478C152.457 76.1402 152.22 76.5287 151.975 76.9122C151.656 77.2623 151.348 77.6208 151.051 77.988L150.925 78.1459L150.498 78.7046C150.196 79.0609 149.945 79.4503 149.747 79.8729C149.585 80.1733 149.435 80.4796 149.3 80.7937C149.257 80.8885 149.216 80.9844 149.175 81.0802C149.037 81.455 148.92 81.8367 148.828 82.2309C148.755 82.5162 148.702 82.8055 148.671 83.0988L148.661 83.1967C148.649 83.312 148.64 83.4275 148.635 83.5429C148.664 83.5597 148.687 83.5762 148.705 83.5928L148.777 83.6184V83.6184L148.835 83.6355C148.926 83.6634 149.082 83.7212 149.045 83.7924L148.855 84.1526V84.1526C148.874 84.1731 148.883 84.1946 148.87 84.2182C148.744 84.4597 148.616 84.7014 148.488 84.9432C148.484 84.952 148.477 84.9587 148.47 84.9637C148.579 85.0135 148.685 85.0683 148.787 85.128C148.985 85.2455 149.13 85.3814 149.265 85.5399C149.407 85.6242 149.54 85.7161 149.666 85.8217C149.822 85.9841 149.958 86.1623 150.073 86.3549C150.179 86.5369 150.266 86.7267 150.333 86.9254C150.362 87.0301 150.376 87.1387 150.375 87.2492C150.256 88.0849 149.295 87.5124 149.276 87.439C149.144 86.9342 148.992 86.6153 148.652 86.2396L148.643 86.2336V86.2336C148.446 86.1475 148.252 86.0624 148.048 85.9959C148.017 86.0017 147.986 86.0057 147.954 86.0105C147.99 86.0605 147.972 86.1095 147.9 86.1182C147.59 86.1789 147.278 86.1955 146.963 86.169L146.485 86.1016V86.1016C146.286 86.1773 146.097 86.2744 145.918 86.3901L145.859 86.4293L145.848 86.4371C145.387 86.806 145.03 87.2962 144.786 87.8304C144.765 87.878 144.744 87.9261 144.724 87.9746L144.695 88.0476L144.693 88.0515C144.374 89.2972 144.658 90.6649 145.241 91.795C145.559 92.3008 145.89 92.7969 146.237 93.2832L146.573 93.7206V93.7206C146.772 93.9065 146.967 94.0972 147.157 94.2929C147.186 94.3224 147.218 94.3516 147.249 94.38C147.349 94.4455 147.452 94.5034 147.556 94.5523C147.596 94.5659 147.638 94.5786 147.679 94.5895C147.88 94.6853 148.09 94.7362 148.312 94.7421C148.604 94.7614 148.888 94.7272 149.162 94.6407L149.217 94.6226L149.257 94.608C149.407 94.5131 149.545 94.3947 149.677 94.2557C149.707 94.2254 149.762 94.2254 149.825 94.242C149.859 94.2068 149.894 94.1696 149.926 94.1295C149.949 94.1051 149.984 94.1042 150.012 94.1227C150.105 94.112 150.358 94.2548 150.292 94.3301C150.281 94.3477 150.268 94.3634 150.256 94.38C150.3 94.4025 150.344 94.4279 150.384 94.4544C150.59 94.5114 150.895 94.7165 150.871 94.7782L150.868 94.7831C150.82 94.873 150.758 94.9485 150.681 95.0083L150.655 95.0277L150.597 95.0678C150.679 95.1188 150.748 95.1774 150.713 95.2185C150.698 95.2488 150.681 95.2783 150.661 95.3047C150.828 95.5102 150.995 95.7175 151.16 95.9249C151.325 96.2812 151.53 96.6137 151.774 96.9219C151.978 97.2566 152.223 97.557 152.509 97.825C152.532 97.8486 152.557 97.8711 152.581 97.8936C152.792 98.0486 153.012 98.1937 153.242 98.3332L153.341 98.3926C153.393 98.4238 153.481 98.463 153.44 98.5383C153.435 98.5481 153.429 98.556 153.422 98.5618C153.567 98.6558 153.716 98.7447 153.871 98.827L153.885 98.836C153.944 98.8731 154.023 98.9403 153.939 98.9952C153.869 99.0422 153.681 98.915 153.592 98.8563C153.575 98.8563 153.556 98.8515 153.536 98.8456C153.566 98.8612 153.595 98.8782 153.624 98.8947L153.669 98.919C153.703 98.9395 153.873 99.051 153.754 99.0981C153.696 99.1029 153.643 99.0882 153.594 99.0549C153.536 99.0265 153.479 98.9963 153.423 98.9649C153.443 98.9952 153.443 99.0256 153.393 99.0452C153.377 99.0461 153.36 99.0452 153.343 99.0433C153.459 99.1166 153.578 99.185 153.701 99.2496L153.721 99.262C153.773 99.2955 153.856 99.3592 153.796 99.4141C153.728 99.4747 153.541 99.3455 153.493 99.3162L153.349 99.231V99.231C153.338 99.2359 153.326 99.2379 153.314 99.239C153.357 99.2654 153.397 99.2937 153.442 99.3191L153.502 99.3517C153.577 99.3932 153.684 99.4613 153.645 99.5294C153.607 99.5968 153.492 99.5414 153.418 99.4977L153.338 99.4486C153.335 99.4464 153.331 99.4444 153.327 99.4424L153.324 99.4541C153.324 99.4561 153.323 99.458 153.322 99.46C153.285 99.5238 153.192 99.482 153.128 99.4452L153.077 99.4141C152.989 99.3618 152.903 99.3101 152.817 99.2579L152.689 99.1793H152.687C152.243 98.914 151.833 98.6499 151.446 98.3094C151.215 98.1058 151 97.8906 150.795 97.6607C150.384 97.1998 150.078 96.6725 149.783 96.1344C149.778 96.1255 149.784 96.103 149.796 96.0785C149.764 96.0121 149.732 95.9445 149.701 95.875C149.398 95.9593 149.059 95.9837 148.747 95.9632C148.58 95.9523 148.415 95.923 148.251 95.8789C147.726 95.8065 147.22 95.5688 146.784 95.2841C146.756 95.2664 146.731 95.2469 146.706 95.2294C146.526 95.1285 146.355 95.0112 146.192 94.877C145.876 94.6168 145.573 94.3272 145.299 94.0248C145.1 93.7901 144.912 93.5464 144.736 93.2939C144.557 93.0444 144.376 92.795 144.195 92.5454C143.692 91.7627 143.371 90.8616 143.246 89.9409C143.185 89.6015 143.153 89.2579 143.16 88.9155C143.165 88.6679 143.192 88.4175 143.241 88.1681C143.212 88.1406 143.184 88.1133 143.155 88.0849C143.139 88.1122 143.124 88.1319 143.114 88.122L142.888 87.8974C142.728 87.7371 142.621 87.6191 142.437 87.3598C142.144 86.9459 141.925 86.4909 141.763 86.0116C141.646 85.6692 141.568 85.2796 141.538 84.9031C141.528 84.8403 141.518 84.7767 141.51 84.7122C141.447 84.2024 141.505 83.7142 141.583 83.2113C141.588 83.1781 141.604 83.1575 141.627 83.1467C141.633 83.1069 141.64 83.066 141.646 83.0252C140.995 82.3391 140.526 81.5122 140.564 80.5136C140.576 80.199 140.641 79.8888 140.765 79.5992L140.78 79.5665V79.5665C140.236 79.4834 139.804 79.1033 139.48 78.6323C139.451 78.6097 139.423 78.5869 139.397 78.5642C138.817 78.0719 138.415 77.3747 138.14 76.6384C137.943 76.2108 137.812 75.7539 137.757 75.2799C137.753 75.2461 137.751 75.2125 137.748 75.1789C137.613 74.4295 137.579 73.6726 137.641 72.9269C137.506 72.4654 137.396 71.9958 137.321 71.5152C137.285 71.2863 137.261 71.0572 137.242 70.8283L137.24 70.8157L137.237 70.7745L137.229 70.6718C137.227 70.6548 137.226 70.6378 137.225 70.6209C137.059 68.5251 137.53 66.4626 138.309 64.5214C138.377 64.3468 138.447 64.1727 138.52 63.9999L138.596 63.8194V63.8194C139.379 62.5651 140.553 61.5506 141.548 60.4791C141.891 60.1094 141.336 59.5545 140.992 59.9256C140.331 60.6375 139.621 61.3194 138.981 62.0511C138.868 62.0593 138.755 62.0624 138.642 62.0568C138.445 62.0469 138.254 62.0157 138.069 61.9657C137.608 61.8982 137.188 61.7133 136.806 61.4413C136.295 61.2046 135.86 60.7583 135.816 60.1762C135.811 60.1175 135.812 60.0597 135.816 60.0021C135.769 59.7173 135.811 59.419 135.931 59.1439C135.952 59.0686 135.979 58.9942 136.012 58.9209C136.109 58.7027 136.27 58.4934 136.466 58.3514C136.471 58.3485 136.474 58.3466 136.478 58.3436C136.499 58.3222 136.519 58.3005 136.541 58.2811C136.575 58.2506 136.61 58.2224 136.648 58.1959C136.515 57.9786 136.395 57.7556 136.292 57.5178C136.181 57.2595 136.124 56.9974 136.093 56.7204C136.08 56.6108 136.075 56.5022 136.073 56.3937C136.067 56.3437 136.063 56.2928 136.059 56.2419C136.035 55.8545 136.08 55.4524 136.226 55.0903C136.236 55.063 136.25 55.0355 136.263 55.0071C136.291 54.925 136.321 54.8429 136.358 54.7625C136.504 54.4543 136.711 54.1931 136.965 53.9788C137.103 53.8409 137.258 53.7186 137.426 53.6148C137.525 53.5532 137.638 53.4984 137.757 53.4534C137.97 53.3419 138.243 53.2401 138.464 53.2324C138.49 53.2313 138.514 53.2343 138.54 53.2343C138.56 52.6726 138.633 52.0611 138.856 51.5523C138.986 51.1836 139.181 50.8558 139.474 50.6199C139.644 50.4434 139.854 50.3001 140.115 50.2064L140.162 50.1904L140.18 50.1855C140.415 50.072 140.669 50.027 140.93 50.028C141.234 50.0123 141.543 50.0691 141.808 50.208C141.863 50.2373 141.922 50.2735 141.978 50.3127C142.021 50.2285 142.068 50.1434 142.122 50.0584C142.312 49.7559 142.541 49.4927 142.807 49.253C142.838 49.2246 142.873 49.1992 142.906 49.1719C143.035 49.0555 143.172 48.9479 143.313 48.85C143.619 48.6386 143.955 48.4811 144.307 48.3793C144.714 48.2299 145.143 48.1605 145.572 48.1751L145.661 48.1788V48.1788C145.681 48.1807 145.7 48.1816 145.719 48.1826C146.145 48.2101 146.565 48.3138 146.967 48.4703C147.383 48.6338 147.735 48.8812 148.063 49.165C148.139 49.0594 148.227 48.9595 148.334 48.8656C148.365 48.8392 148.397 48.8157 148.428 48.7912C148.451 48.7677 148.476 48.7452 148.501 48.7227C148.619 48.62 148.743 48.5309 148.878 48.4517C149.031 48.3628 149.195 48.3011 149.365 48.263C149.539 48.2042 149.721 48.1679 149.905 48.1562ZM147.884 88.4918C147.901 88.4909 148.812 88.8307 149.266 89.0504L149.289 89.0613C149.812 89.3196 150.064 89.5055 150.534 89.8372C150.566 89.8597 150.598 89.8939 150.598 89.9272C150.598 90.4103 150.48 91.001 150.072 90.7393C150.013 90.7015 149.953 90.6645 149.893 90.6281L149.803 90.5739L149.8 90.5749C149.801 90.5749 149.802 90.5739 149.803 90.573C148.914 90.0338 147.974 89.6112 146.982 89.3088C146.914 89.2844 147.417 88.529 147.556 88.5711C147.476 88.5398 147.87 88.4926 147.884 88.4918ZM157.229 67.1538C156.637 67.2167 156.046 67.2787 155.455 67.3392C155.078 67.3823 154.7 67.4204 154.322 67.4527C153.754 67.4949 153.187 67.5016 152.621 67.4244C152.42 67.3971 152.224 67.3578 152.029 67.3099C151.896 67.4067 151.758 67.4977 151.617 67.5849L150.055 68.7736V68.7736C149.007 69.5926 147.982 70.4604 147.059 71.4183C145.447 73.0918 144.135 75.0496 143.309 77.2183C143.234 77.2622 143.176 77.3388 143.157 77.4564C143.011 78.3453 142.585 79.156 142.431 80.0413C142.279 80.9132 142.481 81.6545 143.032 82.3456C143.149 82.4933 143.39 82.4855 143.538 82.3858C143.572 82.4529 143.721 82.45 143.773 82.1536C144.018 81.8899 144.228 81.6135 144.369 81.2712C144.474 81.0192 144.298 80.8444 144.085 80.8101C144.174 80.4931 144.274 80.1789 144.386 79.8681C144.718 78.9443 145.142 78.0619 145.674 77.2342C146.142 76.5061 146.684 75.8721 147.267 75.2361C147.274 75.2273 147.285 75.2245 147.298 75.2225L147.419 75.0893V75.0893C147.436 75.0708 147.47 75.0727 147.509 75.0825C147.545 75.0443 147.581 75.0052 147.618 74.967C147.654 74.9279 147.695 74.9396 147.717 74.971C147.779 74.9573 147.892 75.0238 147.927 75.0454C147.986 75.0845 148.005 75.1285 147.954 75.1842C147.946 75.1941 147.937 75.2039 147.928 75.2126C147.996 75.2411 148.063 75.2792 148.115 75.3164C148.297 75.3565 148.553 75.5247 148.508 75.5747C148.415 75.6715 148.324 75.7704 148.235 75.8711C148.314 75.926 148.365 75.9797 148.344 76.0033C147.96 76.4053 147.606 76.831 147.281 77.282C147.035 77.6186 146.811 77.9689 146.611 78.3338C146.314 78.8504 146.062 79.3817 145.839 79.9277C145.808 80.0109 145.777 80.094 145.748 80.1772C145.421 81.0861 145.177 82.0293 145.074 82.9901L145.069 83.0549C145.05 83.4011 145.043 84.3278 145.007 84.5488C145.224 84.6554 145.45 84.7464 145.686 84.8209C145.73 84.8336 145.775 84.8453 145.82 84.8561C145.846 84.8453 145.873 84.8364 145.899 84.8286C146.116 84.7415 146.342 84.6789 146.573 84.6486C146.729 84.6281 146.884 84.621 147.039 84.6254L147.105 84.628C147.174 84.63 147.242 84.6349 147.311 84.6418C147.307 84.6026 147.305 84.5645 147.302 84.5253C147.282 84.5126 147.268 84.495 147.267 84.4715C147.22 84.0312 147.219 83.5909 147.264 83.1506C147.293 82.9207 147.328 82.6917 147.365 82.4629C147.403 82.2749 147.448 82.0901 147.496 81.9051C147.624 81.3866 147.794 80.8806 148.001 80.3857C148.589 78.9737 149.432 77.7008 150.28 76.4347C150.899 75.5102 151.485 74.5649 152.125 73.6559C152.67 72.882 153.243 72.1198 153.854 71.3958C154.464 70.6728 155.108 69.9771 155.804 69.3334C155.916 69.2305 156.029 69.1307 156.144 69.032C156.804 68.4449 157.52 67.9625 158.266 67.489C158.294 67.4704 158.345 67.491 158.388 67.5261L158.508 67.4525C158.528 67.4403 158.548 67.4283 158.569 67.4165C158.587 67.4049 158.608 67.4244 158.619 67.441C158.67 67.4146 158.721 67.3892 158.772 67.3637C158.81 67.3338 158.848 67.3054 158.886 67.2758C158.333 67.2481 157.78 67.207 157.229 67.1538ZM164.165 60.6311C163.718 60.5422 163.27 60.5294 162.819 60.5959C162.63 60.6234 162.442 60.6565 162.256 60.6965C162.679 61.0634 163.019 61.533 163.24 62.0733C163.479 62.6575 162.527 62.9092 162.292 62.3335C162.065 61.7781 161.635 61.3521 161.116 61.0968C161.004 61.1591 160.895 61.2266 160.791 61.3014C160.655 61.4109 160.528 61.5293 160.407 61.6595C160.146 61.9423 159.906 62.3199 159.748 62.6937C159.687 62.8972 159.642 63.1066 159.613 63.3218C159.608 63.3707 159.602 63.4206 159.597 63.4705C159.5 64.4831 159.791 65.4683 160.292 66.3401L160.311 66.3404V66.3404C160.759 66.0993 161.227 65.8961 161.708 65.7307C162.094 65.4725 162.494 65.2337 162.907 65.0174C163.783 64.5576 164.709 64.2032 165.662 63.9608L165.773 63.9333C165.997 63.8763 166.224 63.826 166.452 63.782L166.588 63.7563H166.59L166.575 63.6104V63.6104C166.499 63.0381 166.273 62.5068 165.982 62.0157C165.764 61.6449 165.434 61.2653 165.068 60.9619L165.066 60.9609C164.9 60.8669 164.725 60.7892 164.545 60.725L164.478 60.7016L164.165 60.6311ZM152.171 59.7614C151.243 59.6742 150.314 59.683 149.385 59.7584C148.778 59.8182 148.175 59.9012 147.575 60.0069C147.168 60.0764 146.77 60.1742 146.378 60.2956L146.602 60.7461C146.977 61.4962 147.36 62.2415 147.812 62.95C148.045 63.315 148.298 63.6624 148.573 63.9959C148.759 64.2347 148.964 64.4559 149.188 64.6593C149.247 64.7308 149.31 64.7984 149.374 64.8638C149.579 65.038 149.799 65.1906 150.04 65.3168C150.234 65.4568 150.435 65.5792 150.646 65.6864L150.725 65.7259L151.463 66.0076C151.502 66.0187 151.542 66.0298 151.582 66.0403L151.642 66.0556L151.754 66.079L151.838 66.0336C151.852 66.0261 151.867 66.0187 151.881 66.0115C151.905 65.9989 151.921 66.0233 151.926 66.0409C151.928 66.0478 151.925 66.0575 151.92 66.0673L152.028 66.0095V66.0095C152.213 66.0841 152.409 66.1438 152.62 66.1831C152.715 66.2008 152.81 66.2144 152.906 66.2261L152.919 66.2346C152.921 66.2361 152.923 66.2377 152.925 66.2396H153.03V66.2396C153.765 66.3101 154.511 66.2169 155.245 66.0857C156.285 65.9818 157.324 65.8672 158.362 65.76C158.382 65.7582 158.39 65.7669 158.39 65.7807L158.453 65.7748V65.7748C158.546 65.7649 158.654 65.9186 158.584 65.9744C158.64 66.0076 158.695 66.0556 158.735 66.0928L158.758 66.0908C158.616 65.8129 158.506 65.5223 158.427 65.2201L158.327 64.7131V64.7131C158.299 64.5243 158.283 64.3228 158.28 64.1241C158.273 64.0331 158.269 63.9481 158.269 63.8736C158.269 63.8032 158.269 63.7328 158.272 63.6624C158.077 63.5821 157.878 63.5117 157.675 63.4519C157.1 63.3816 156.525 63.311 155.949 63.2416C155.604 63.2543 155.259 63.2788 154.914 63.3169C154.524 63.3512 154.134 63.3952 153.746 63.448C153.709 63.4519 153.644 63.403 153.605 63.3463L153.439 63.3689V63.3689C153.352 63.3796 153.262 63.2073 153.376 63.1721C153.417 63.1558 153.458 63.1404 153.5 63.1255L153.562 63.1036L153.526 63.1075C153.514 63.1086 153.5 63.1056 153.483 63.0998C153.391 63.1115 153.3 63.1232 153.209 63.134C153.095 63.1482 153.121 62.9977 153.201 62.9623L153.24 62.9481C153.172 62.9059 153.112 62.7905 153.196 62.7528L153.207 62.7485C153.247 62.7329 153.285 62.7201 153.324 62.7054C153.322 62.6928 153.322 62.6809 153.325 62.6703L153.163 62.6907V62.6907C153.148 62.6927 153.219 62.5896 153.253 62.5693L153.259 62.5665L153.336 62.543C153.348 62.5097 153.411 62.4363 153.433 62.4296C153.718 62.3405 153.984 62.2603 154.261 62.1986C154.275 62.1819 154.291 62.1692 154.308 62.1653C154.482 62.1242 154.657 62.0919 154.832 62.0646C154.844 62.0469 154.855 62.0343 154.869 62.0332C155.303 61.9784 155.738 61.9657 156.175 61.9952C156.258 62.0029 156.342 62.0118 156.426 62.0225C156.586 62.0402 156.746 62.0627 156.906 62.093C157.305 62.1611 157.695 62.2647 158.075 62.4044L158.162 62.4373C158.258 62.4726 158.352 62.5097 158.446 62.5499C158.493 62.3826 158.552 62.2181 158.622 62.0568C158.633 62.0254 158.644 61.9952 158.657 61.9648L158.562 61.908V61.908C158.541 61.9471 158.499 61.9775 158.471 61.9609C157.787 61.502 157.064 61.1194 156.302 60.8141C155.875 60.6262 155.438 60.4669 154.99 60.3337C154.767 60.2624 154.542 60.1978 154.315 60.1362C154.202 60.1126 154.089 60.0891 153.974 60.0695C153.383 59.911 152.781 59.8084 152.171 59.7614ZM174.704 61.3145C174.621 61.4571 174.534 61.5984 174.443 61.7377C173.998 62.4147 173.465 63.05 172.86 63.6039C173.018 63.6035 173.175 63.6095 173.33 63.6239C173.598 63.6491 173.861 63.6933 174.116 63.7553C174.137 63.7387 174.16 63.7304 174.179 63.7435L174.246 63.7894V63.7894C174.794 63.9367 175.309 64.1681 175.776 64.4783L175.768 64.4171C175.766 64.4069 175.765 64.3966 175.763 64.3864C175.771 64.2661 175.773 64.1456 175.769 64.0263C175.672 63.3208 175.431 62.6712 175.156 62.0138C175.151 62.001 175.154 61.9845 175.162 61.9677C175.023 61.7418 174.871 61.5235 174.704 61.3145ZM174.83 55.7684C174.625 55.8055 174.421 55.8535 174.218 55.9132C173.838 55.97 173.469 56.0698 173.112 56.2116C172.621 56.3848 172.145 56.5863 171.671 56.7997C170.75 57.2145 169.886 57.739 169.1 58.3711C169.05 58.4091 169.002 58.4484 168.954 58.4875C168.777 58.6391 168.606 58.7976 168.444 58.9649C168.274 59.1488 168.102 59.3329 167.932 59.5177C167.724 59.735 167.484 59.9316 167.295 60.1664C167.256 60.2143 167.223 60.2672 167.192 60.3201L167.304 60.3582V60.3582C167.397 60.3895 167.381 60.5636 167.289 60.5382C167.257 60.5294 167.228 60.5186 167.198 60.507C167.211 60.5236 167.22 60.5402 167.222 60.5548C167.228 60.6018 167.191 60.6665 167.133 60.6498C167.107 60.6429 167.08 60.6331 167.054 60.6223C167.046 60.6527 167.04 60.683 167.04 60.7123C167.045 60.7143 167.05 60.7163 167.056 60.7173C167.121 60.7398 167.243 60.8405 167.26 60.9091C167.274 60.9619 167.229 61.0186 167.171 61.0029C167.127 60.9912 167.085 60.9736 167.044 60.954C167.071 60.9805 167.093 61.0089 167.095 61.0334C167.099 61.0784 167.06 61.1419 167.005 61.1273C166.905 61.0998 166.824 61.0578 166.757 61.005C166.74 61.0284 166.714 61.047 166.694 61.0412L166.655 61.0295V61.0295C166.666 61.0392 166.675 61.0494 166.685 61.0595L166.698 61.0744C166.97 61.3659 167.207 61.6888 167.397 62.0363C167.406 62.0264 167.417 62.0176 167.43 62.0068C167.519 61.9324 167.61 61.86 167.702 61.7897L167.73 61.7656V61.7656L167.758 61.7417L167.552 61.8092L167.557 61.8039C167.572 61.7854 167.617 61.7237 167.638 61.7031L167.643 61.6986C167.925 61.4472 168.233 61.2339 168.566 61.0598C168.781 60.9208 169.008 60.8033 169.245 60.7065C169.81 60.4452 170.387 60.2467 170.979 60.0628C171.068 60.0344 171.156 60.0041 171.245 59.9766C171.271 59.9678 171.275 59.9785 171.272 59.9961L171.318 59.9824V59.9824C171.4 59.956 171.541 60.1008 171.485 60.1683C171.519 60.1957 171.552 60.2263 171.581 60.2549L171.602 60.276L171.626 60.2691C171.696 60.2476 171.815 60.3565 171.89 60.4337L171.945 60.4922C171.988 60.5372 172.07 60.6302 171.969 60.6665L171.842 60.7094V60.7094C171.846 60.7349 171.835 60.7564 171.796 60.7711C171.752 60.7857 171.708 60.8014 171.665 60.8171C171.691 60.8399 171.717 60.8636 171.742 60.8876L171.78 60.9237C171.825 60.9689 171.93 61.0686 171.837 61.1126L171.825 61.1174L171.704 61.1605C171.72 61.1957 171.716 61.2291 171.663 61.2485C170.957 61.4873 170.267 61.7672 169.593 62.0852C169.088 62.363 168.555 62.5705 167.993 62.7064C167.947 62.7212 167.847 62.6517 167.805 62.5822L167.721 62.6068C167.707 62.6108 167.693 62.6147 167.679 62.6183L167.666 62.6214V62.6214C167.771 62.9002 167.849 63.2024 167.892 63.495C167.897 63.5214 167.901 63.5489 167.904 63.5753C168.014 63.5664 168.123 63.5586 168.233 63.5528C168.996 63.5126 169.767 63.5371 170.532 63.6271C170.841 63.4441 171.138 63.2435 171.422 63.0264C171.509 62.9598 171.594 62.8913 171.679 62.8218C172.187 62.3835 172.646 61.8915 173.053 61.3601C173.43 60.8679 173.758 60.3396 174.033 59.7859C174.277 59.2662 174.479 58.7261 174.632 58.1684C174.771 57.6587 174.819 57.1626 174.855 56.6352C174.867 56.5491 174.875 56.4631 174.881 56.3769L174.881 56.3401V56.3401L174.879 56.3222C174.87 56.1373 174.851 55.9523 174.83 55.7684ZM167.621 62.3209C167.599 62.3287 167.575 62.3365 167.551 62.3434C167.565 62.3737 167.578 62.4032 167.591 62.4334L167.592 62.4328V62.4328L167.685 62.36V62.36C167.666 62.3512 167.643 62.3376 167.621 62.3209ZM174.693 54.381C174.87 54.3154 175.003 54.3027 175.094 54.3438C174.96 54.3536 174.826 54.3663 174.693 54.381Z"
        fill="black" />
    <path fill-rule="evenodd" clip-rule="evenodd"
        d="M163.577 91.0557C165.263 90.8522 166.898 91.3657 168.547 91.6245C169.418 91.7611 170.289 91.8631 171.17 91.901C171.347 91.9087 171.525 91.9132 171.702 91.9168C171.718 91.7616 171.806 91.619 171.995 91.5336C172.383 91.3587 172.694 91.2799 173.12 91.2967C173.51 91.312 173.901 91.3519 174.285 91.4218C174.982 91.5489 175.683 91.8374 176.193 92.3386C177.373 93.4984 177.193 95.3612 176.281 96.6244C174.397 99.2346 170.958 99.3557 168.012 99.3217L167.74 99.3181C165.058 99.28 161.221 99.6777 160.003 96.6432C159.555 95.5273 159.617 94.2339 160.165 93.1637C160.82 91.8871 162.197 91.2223 163.577 91.0557ZM171.954 95.4018L171.93 95.4027C170.694 95.4501 169.458 95.4835 168.22 95.5052C168.257 95.8212 168.295 96.1372 168.338 96.4525C168.372 96.7006 168.408 96.9484 168.446 97.196C168.462 97.3008 168.521 97.4635 168.504 97.5673L168.498 97.6084V97.6084C168.562 97.6369 168.62 97.6829 168.662 97.7497C168.677 97.7728 168.688 97.7961 168.699 97.8193C169.66 97.8268 170.693 97.8083 171.672 97.6347L171.674 97.6135V97.6135C171.692 97.4891 171.744 97.4054 171.813 97.348C171.882 96.9513 171.876 96.5286 171.903 96.135C171.919 95.8905 171.937 95.6462 171.954 95.4018ZM167.275 95.522C166.384 95.537 165.492 95.5487 164.601 95.5378L164.197 95.5316V95.5316C164.282 95.9874 164.375 96.4416 164.452 96.9004C164.533 97.3786 164.11 97.6825 163.744 97.6703C163.785 97.677 163.826 97.6839 163.867 97.6897C165.011 97.8506 166.2 97.8079 167.361 97.8067C167.299 97.444 167.324 97.0347 167.315 96.732L167.313 96.6851C167.295 96.2972 167.283 95.9096 167.275 95.522ZM161.221 95.4383C161.252 95.6753 161.312 95.9072 161.402 96.1232C161.783 97.0355 162.655 97.4612 163.578 97.6405C163.418 97.5855 163.291 97.4534 163.259 97.2272C163.179 96.6646 163.15 96.0926 163.148 95.5213C162.505 95.5153 161.857 95.5017 161.221 95.4383ZM175.308 95.2435C174.851 95.351 174.318 95.3017 173.869 95.322C173.448 95.341 173.027 95.3576 172.606 95.3746C172.626 95.6603 172.646 95.946 172.667 96.2315C172.694 96.6006 172.696 96.9907 172.767 97.3582C173.614 97.0707 174.373 96.6097 174.943 95.8724C175.085 95.6888 175.212 95.4732 175.308 95.2435ZM163.383 92.5526C162.621 92.7321 161.9 93.1112 161.512 93.8049C161.282 94.2165 161.181 94.7043 161.2 95.185C161.844 95.1105 162.5 95.0822 163.152 95.0588C163.154 94.942 163.157 94.8253 163.16 94.7089L163.17 94.4105C163.188 93.8414 163.197 93.1268 163.383 92.5526ZM167.329 92.622L166.993 92.5845C166.061 92.4789 165.13 92.3681 164.197 92.4316C164.063 92.4409 163.926 92.4555 163.788 92.4755C163.953 93.0667 163.939 93.761 164.008 94.3462C164.035 94.5725 164.068 94.7969 164.105 95.0205L164.267 95.013V95.013C165.267 94.9591 166.268 94.9259 167.269 94.8864C167.269 94.6995 167.27 94.5125 167.273 94.3255L167.277 94.1384C167.288 93.6606 167.257 93.1223 167.329 92.622ZM172.009 92.5462C171.033 92.7028 170.024 92.7362 169.065 92.7374C168.682 92.7378 168.299 92.7144 167.917 92.6807C167.942 92.8833 167.955 93.0882 167.973 93.288C168.011 93.6917 168.054 94.0947 168.101 94.4974L168.143 94.8498V94.8498C169.373 94.7943 170.603 94.7343 171.833 94.6722L172.007 94.663V94.663L172.056 93.9858C172.089 93.5343 172.125 93.0828 172.177 92.6333L172.138 92.6195V92.6195C172.093 92.601 172.05 92.5754 172.009 92.5462ZM172.433 92.7142C172.487 93.3527 172.516 93.9938 172.556 94.6333L173.367 94.5903C173.502 94.5829 173.637 94.5755 173.772 94.5677C174.298 94.5376 174.973 94.3794 175.492 94.527C175.532 94.0574 175.397 93.5999 174.971 93.2844C174.223 92.7302 173.27 92.9276 172.433 92.7142ZM169.663 87.0067C170.87 86.3191 173.899 85.6163 174.091 87.7772C174.18 88.7715 173.436 89.5954 172.568 89.9631L172.535 89.9767C171.721 90.3095 170.278 90.6854 169.574 89.9636C168.987 89.3629 169.765 88.2857 170.494 88.7779C170.868 89.0307 171.656 88.8444 172.074 88.7241L172.1 88.7165C172.551 88.5848 173.152 88.163 172.966 87.6108C172.801 87.1224 172.099 87.0332 171.659 87.0173C171.003 86.9939 170.364 87.1455 169.714 87.1948C169.611 87.2026 169.579 87.0543 169.663 87.0067ZM174.664 83.5321C176.303 83.4558 177.322 85.2351 176.945 86.6931C176.88 86.9446 176.597 87.1916 176.324 87.1633L176.255 87.157C176.22 87.1537 176.185 87.1493 176.153 87.1404C175.894 87.069 175.661 86.8007 175.68 86.5226L175.685 86.4416C175.723 85.7529 175.648 84.9594 174.825 84.7926C174.127 84.6511 173.737 85.3193 173.729 85.9343C173.728 86.0435 173.604 86.1197 173.507 86.061C173.002 85.7557 172.915 85.1482 173.108 84.625C173.352 83.9621 173.964 83.5647 174.664 83.5321ZM162.503 83.9137C163.696 83.518 164.982 84.1502 165.56 85.1987C165.762 85.257 165.965 85.4123 165.936 85.65C165.896 85.9921 165.835 86.2077 165.596 86.4671C165.223 86.8729 164.524 86.6654 164.369 86.1659L164.363 86.1434C164.187 85.4977 163.472 85.0717 162.821 85.2977C162.06 85.5617 162.082 86.3605 161.549 86.8258C161.486 86.8805 161.411 86.8892 161.336 86.8531C160.769 86.5808 160.871 85.7613 161.073 85.2922C161.338 84.6767 161.853 84.1293 162.503 83.9137ZM160.879 80.3124C161.845 79.3318 164.365 78.3829 165.026 80.1937C165.152 80.5386 164.884 81.0037 164.523 81.0752C163.932 81.1922 163.407 80.9369 162.82 80.9827C162.344 81.02 161.848 81.178 161.468 81.4709C160.415 82.2823 160.183 83.6545 159.45 84.6871C159.414 84.7374 159.345 84.7163 159.338 84.657C159.171 83.1536 159.82 81.3863 160.879 80.3124ZM173.482 79.3471C174.123 79.1219 174.849 79.1411 175.494 79.3409C176.143 79.5423 176.74 79.9247 177.199 80.4242C177.407 80.651 177.6 80.9013 177.755 81.1677C177.837 81.3089 177.923 81.6006 178.017 81.7743C178.522 82.0643 178.738 82.7253 178.286 83.1955L178.265 83.2161L178.205 83.2758C177.961 83.5151 177.595 83.6188 177.263 83.5232C176.52 83.3095 176.43 82.7278 176.173 82.1105C176.003 81.7026 175.712 81.3418 175.36 81.0768C174.526 80.4506 173.159 80.2511 172.155 80.5462C172.102 80.5619 172.039 80.4942 172.077 80.4451C172.267 80.2001 172.377 79.999 172.632 79.8014C172.89 79.6008 173.172 79.4559 173.482 79.3471Z"
        fill="black" />
    <path fill-rule="evenodd" clip-rule="evenodd"
        d="M302.477 198.349C302.569 198.802 302.706 199.292 302.849 199.732C302.136 200.42 301.128 201.342 300.405 202.008C301.12 197.573 298.943 193.48 297.61 189.286C298.112 188.639 299.863 187.977 299.807 187.26C299.672 184.604 299.472 181.639 299.185 178.314C298.212 167.93 297.244 157.1 299.54 146.685C299.697 145.552 299.935 144.362 301.449 144.336C305.92 162.186 302.297 180.158 302.396 198.12L302.266 198.237L302.477 198.349ZM309.173 344.601C312.847 344.602 316.224 343.933 319.494 342.577C320.437 342.244 321.609 341.83 321.773 341.16C322.041 339.327 321.855 337.524 321.658 335.617C321.347 332.344 321.378 329.8 320.498 326.277C319.555 323.004 318.752 320.447 319.672 317.063C319.745 316.055 318.96 315.031 318.441 314.089C317.707 312.713 317.334 311.282 316.751 309.872C317.897 309.671 319.087 309.395 320.187 309.054L320.372 309.721C320.413 309.867 320.524 309.942 320.704 309.942C320.816 309.942 321.1 309.888 321.142 309.649C320.969 307.073 320.719 304.509 320.456 301.891C317.729 276.674 313.599 255.886 306.664 235.154C304.998 230.299 303.296 225.244 303.284 219.969C304.231 219.765 305.286 219.648 306.251 219.782C313.129 218.183 311.769 203.59 311.495 199.223C311.98 199.076 312.523 198.87 312.926 198.593L313.089 198.673C319.918 181.671 317.113 153.562 315.551 134.665C314.526 127.873 315.968 115.603 309.964 112.246C305.116 110.524 300.29 109.556 295.224 108.421C294.286 107.88 293.128 107.572 292.081 107.223L292.622 106.46C293.331 105.458 293.237 103.492 292.309 102.801C291.739 102.832 290.938 103.407 290.393 103.677C289.609 102.051 288.884 100.351 288.363 98.3975L288.176 98.4647C287.628 92.9399 280.486 91.9757 276.46 93.8218C272.064 96.2423 274.354 101.718 272.355 105.67L271.631 104.702C270.512 104.681 268.146 106.152 267.576 106.704C267.168 106.895 267.463 108.178 267.404 108.695C261.507 110.034 253.436 110.402 251.561 117.041C248.443 129.525 248.881 142.323 245.343 154.763C241.639 164.846 236.199 177.185 236.153 186.42C236.047 188.15 235.815 197.939 237.243 197.546L238.186 198.489C236.902 200.545 237.921 203.622 238.413 206.056C239.625 211.222 241.994 216.788 247.053 214.312C252.494 244.449 266.169 274.85 261.504 305.934C261.448 306.115 261.561 306.315 261.756 306.235L261.985 306.129C262.579 306.313 263.331 306.377 263.951 306.517C263.424 308.499 263.141 310.455 262.867 312.648C262.535 312.846 262.69 313.372 262.673 313.689C257.723 313.451 254.947 318.651 251.397 321.51C249.052 323.608 246.383 325.605 243.461 327.447C241.047 328.823 239.01 330.398 239.377 332.997C239.342 332.993 238.597 332.877 238.561 332.874C237.438 336.622 241.125 337.397 244.923 337.849C254.203 338.785 262.135 336.716 272.879 332.797C274.197 332.954 275.224 330.989 275.399 329.656C275.572 328.763 275.079 327.855 275.456 326.894C276.751 324.133 277.425 316.823 275.599 313.544C274.958 312.801 274.136 312.115 274.242 310.832C274.272 309.547 274.393 308.263 274.284 307C276.48 306.788 278.653 306.313 280.568 305.543C280.907 305.674 281.292 305.513 281.316 305.087C281.684 299.211 282.123 292.791 282.219 286.776C282.66 273.684 279.675 260.91 277.391 248.213C277.233 244.14 276.483 240.205 276.247 236.13C275.993 232.265 275.948 228.482 275.727 224.623L277.045 224.336C287.988 252.637 296.558 280.96 302.557 308.675C302.421 308.792 302.035 308.923 302.052 309.159C302.056 309.285 302.053 309.293 302.139 309.306C303.588 309.598 305.023 309.812 306.459 309.979C306.054 313.438 308.214 317.435 306.302 320.674C305.794 321.455 305.773 321.618 306.084 322.155C303.299 327.354 301.573 331.681 300.454 336.329L299.733 335.717C298.689 336.479 298.667 337.917 298.644 339.436C298.718 340.322 298.287 341.25 298.948 341.995C300.537 343.858 306.076 344.591 309.173 344.601V344.601Z"
        fill="white" />
    <path fill-rule="evenodd" clip-rule="evenodd"
        d="M288.818 97.5648C288.059 98.1821 288.851 102.635 289.463 103.543C285.323 106.218 281.14 108.831 276.869 111.281L276.427 111.534L276.441 111.53C276.263 111.61 275.963 111.681 275.787 111.645L275.666 111.605C275.642 111.597 275.627 111.594 275.634 111.599C275.563 111.561 275.494 111.521 275.426 111.475C274.209 110.361 273.321 108.472 272.367 107.003C273.992 105.565 273.182 102.764 273.117 100.85C272.809 100.843 272.773 101.82 272.685 102.104L272.636 102.374C272.519 103.008 272.385 103.653 272.144 104.242C271.442 103.349 267.886 105.458 267.219 106.137C266.494 106.601 266.716 107.427 266.726 108.152C259.977 109.47 251.372 110.397 250.465 118.896C249.398 123.456 248.828 128.097 248.3 132.744L248.215 133.486C247.293 141.482 246.475 149.578 243.872 157.234L242.878 159.614C240.726 164.774 238.628 169.977 237.254 175.407C236.189 177.725 233.353 199.84 237.619 198.134C236.16 200.522 237.252 203.665 237.758 206.218C238.808 210.408 240.903 217.257 246.54 215.237C250.79 238.031 259.209 259.992 261.337 283.182C262.029 290.72 262.014 298.348 260.84 305.838C260.682 306.55 261.36 307.179 262.053 306.867C262.4 306.967 262.769 306.996 263.125 307.064C262.715 308.723 262.474 310.455 262.255 312.15L262.231 312.338L262.23 312.339C262.059 312.529 261.976 312.77 261.983 313.042C259.408 313.051 257.253 314.719 255.538 316.492C252.563 319.616 249.421 322.595 245.861 325.047C243.312 327.126 238.841 328.344 238.697 332.209C237.396 331.988 237.708 334.841 237.939 335.594C238.209 336.439 238.994 336.925 239.747 337.301C250.576 340.943 262.505 337.396 272.8 333.486C274.605 333.726 275.895 331.329 276.088 329.749C276.284 328.877 275.822 328.03 276.092 327.18L276.18 326.946C276.504 326.092 276.811 325.257 276.995 324.352L277.022 324.164C277.461 321.037 277.815 315.743 276.145 313.128C274.198 311.453 275.206 309.848 275.011 307.617C276.933 307.397 278.834 306.961 280.633 306.266C281.342 306.418 281.961 305.841 282.008 305.151L282.077 304.047C282.44 298.303 282.818 292.553 282.912 286.796C283.356 273.735 280.407 260.954 278.084 248.196C277.856 243.279 276.92 238.422 276.789 233.492C276.69 230.521 276.568 227.558 276.419 224.593C286.952 251.827 295.596 279.821 301.8 308.369C301.23 308.757 301.167 309.817 302.017 309.987C303.259 310.236 304.511 310.439 305.767 310.593C305.566 313.658 307.383 317.805 305.7 320.403L305.633 320.507C305.313 321.005 305.001 321.574 305.327 322.153C303.139 326.273 301.243 330.573 300.076 335.111C298.743 334.562 297.983 337.281 298.022 338.263C298.108 339.551 297.416 341.722 298.523 342.602C304.335 346.361 312.225 345.779 318.561 343.697C319.736 343.191 321.082 342.847 322.09 342.039C322.546 341.574 322.515 340.81 322.552 340.207L322.563 339.894C322.623 338.157 322.617 336.386 322.143 334.675C322.27 332.195 321.901 329.683 321.416 327.257C321.104 325.299 320.209 323.439 320.088 321.463C319.452 319.695 320.599 318.041 320.291 316.274C320.039 315.197 319.251 314.267 318.794 313.264L318.762 313.192C318.349 312.28 318.053 311.335 317.695 310.4C318.381 310.269 319.058 310.107 319.725 309.914C320.044 311.074 321.892 310.746 321.837 309.563C320.32 290.487 317.305 271.516 312.638 252.957C310.461 241.98 304.838 231.746 303.991 220.544C304.666 220.417 305.434 220.385 306.095 220.461L306.174 220.471C306.596 220.524 307.002 220.598 307.455 220.384C313.265 216.783 312.668 205.751 312.227 199.713C312.49 199.625 312.74 199.516 312.969 199.38C313.17 199.531 313.477 199.539 313.595 199.262C313.892 198.56 314.275 197.875 314.533 197.162C321.266 173.935 316.967 149.459 315.611 125.783C315.083 120.918 315.079 114.314 310.263 111.634C308.647 110.866 306.823 110.536 305.1 110.093C301.147 108.91 297.018 108.38 293.189 106.867C294.08 105.625 293.868 103.814 293.126 102.566C292.537 101.667 291.407 102.354 290.709 102.737C289.903 101.084 289.35 99.3214 288.818 97.5648ZM299.832 336.172L299.796 336.338C299.608 337.228 299.445 338.162 299.539 339.068C297.035 341.517 308.574 341.827 309.847 341.821C312.761 341.791 321.327 340.817 321.751 337.293L321.746 337.377C321.69 338.498 321.879 340.591 321.271 341.42C316.678 343.817 311.333 344.766 306.191 344.175L306.007 344.151C303.957 343.868 300.065 343.036 299.053 341.322C299.277 339.726 298.728 337.44 299.832 336.172ZM308.141 320.341C310.953 317.27 315.573 319.514 318.538 321.227C318.65 322.572 319.59 323.067 319.628 324.478C320.26 328.786 321.716 333.658 319.861 337.818C314.331 340.788 307.756 340.587 301.774 339.308C301.617 339.104 301.419 339.043 301.137 338.965C300.959 337.702 301.319 336.433 301.556 335.208C302.154 332.632 302.928 330.103 303.616 327.551C304.85 326.752 305.3 325.073 305.944 323.807C306.118 323.452 306.297 323.097 306.484 322.745C307.488 322.415 307.751 321.212 308.141 320.341ZM275.176 328.812C275.478 331.909 272.467 333.144 270.032 333.887C267.292 334.864 264.485 335.676 261.662 336.377C255.879 337.872 249.85 338.527 243.923 337.59L243.82 337.571C242.109 337.269 239.045 336.906 238.657 334.919L238.652 334.874C238.626 334.548 238.576 333.323 238.697 333.009C238.742 333.008 238.786 332.999 238.828 332.978C239.324 334.568 241.129 335.535 242.869 335.784C243.69 336.611 245.202 336.304 246.296 336.352C253.517 336.28 260.46 334.037 267.302 331.952C269.48 331.193 273.82 330.649 275.176 328.812ZM274.555 312.869C275.809 312.426 276.047 315.949 276.207 316.809C276.611 320.445 276.601 326.116 273.667 328.696C270.605 330.011 267.3 330.615 264.142 331.65L263.394 331.871C257.408 333.629 251.256 335.273 244.972 335.014C244.498 334.063 241.489 334.854 240.342 333.158C238.803 330.466 242.689 328.732 244.528 327.585C248.06 325.31 251.359 322.666 254.334 319.695C255.733 318.299 257.013 316.7 258.655 315.578L258.741 315.52C260.148 314.584 261.955 314.003 263.607 314.618C265.217 315.216 265.808 317.06 267.158 318.013C270.166 319.969 273.247 316.877 274.224 314.079L274.253 313.995C274.288 313.908 274.192 313.855 274.12 313.878C274.127 313.851 274.132 313.822 274.138 313.795C274.517 313.695 274.553 313.221 274.555 312.869ZM317.34 310.465C316.947 312.694 318.055 314.693 318.881 316.665C319.103 317.972 318.286 319.224 318.475 320.554C315.77 318.424 311.677 316.535 308.414 318.481C308.397 316.602 307.752 314.778 307.192 313.003L306.965 312.298C306.788 311.75 306.607 311.205 306.408 310.667C310.041 311.048 313.72 311.086 317.34 310.465ZM264.126 307.217C267.306 307.657 270.521 307.91 273.722 307.733L273.358 313.272V313.272C273.344 313.499 273.439 313.656 273.581 313.746C273.109 315.546 271.623 317.147 269.781 317.537C266.935 317.906 266.552 314.12 264.136 313.42C264.599 312.378 264.267 311.007 264.313 309.872C264.287 308.978 264.241 308.094 264.126 307.217ZM274.597 312.229C274.659 312.357 274.731 312.475 274.81 312.59C274.726 312.597 274.645 312.623 274.569 312.669C274.578 312.523 274.587 312.376 274.597 312.229ZM303.235 199.375C306.018 200.342 309.055 200.54 311.922 199.805C311.293 204.534 310.661 215.736 306.655 218.467C305.978 218.369 305.298 218.321 304.614 218.39C304.207 218.43 303.805 218.496 303.402 218.559C303.25 218.58 302.948 218.596 302.756 218.582L302.723 218.58C302.774 218.583 302.814 218.582 302.76 218.579L302.678 218.575L302.636 218.571C301.247 218.446 299.993 216.477 298.618 217.422C298.417 217.116 298.112 216.919 297.877 216.646C296.834 214.813 297.942 212.454 297.245 210.521C297.508 210.16 297.422 209.619 297.008 209.31C296.364 208.716 295.001 209.158 294.63 208.305C294.655 208.351 294.657 208.298 294.647 208.27L294.645 208.264L294.71 208.21C297.558 205.844 300.311 203.201 302.177 199.919L302.239 199.808C302.596 200.156 303.183 199.89 303.235 199.375ZM238.223 197.77C240.184 198.847 242.295 199.626 244.485 200.077C244.934 204.399 245.451 208.722 246.156 213.007L245.989 213.037C245.011 213.217 243.981 213.459 243.137 212.782C240.355 210.07 239.353 204.615 238.261 200.931L238.217 200.763C237.988 199.859 237.725 198.609 238.223 197.77ZM266.732 108.455C267.024 109.922 265.413 125.891 268.351 123.16C270.339 120.026 272.614 117.094 274.647 113.993C274.927 115.101 274.107 116.418 274.495 117.358C269.321 143.375 265.567 169.793 264.176 196.297C261.889 197.908 259.884 199.862 257.918 201.842C257.305 202.365 256.86 203.219 256.1 203.52C253.011 200.015 249.443 196.977 246.196 193.626C246.227 193.396 246.261 193.167 246.3 192.938C246.462 191.986 245.241 191.504 244.77 192.088C243.785 189.579 243.693 186.629 243.937 183.937C244.416 179.412 246.099 175.089 247.301 170.728C250.765 157.387 253.163 143.392 252.028 129.581C252.012 129.453 251.842 129.451 251.827 129.581C250.886 144.171 249.418 158.802 245.046 172.826L244.942 173.173C243.234 178.841 241.121 184.85 242.583 190.794C242.462 191.594 242.845 192.392 243.423 192.967C243.681 193.592 243.968 194.212 244.308 194.795C244.191 196.149 244.247 197.505 244.367 198.852C242.119 198.37 240.023 197.447 238.019 196.334C237.9 195.655 237.795 194.974 237.714 194.29C236.158 181.607 240.904 169.272 245.652 157.759C250.176 144.341 249.293 129.779 253.074 116.206C255.466 110.913 262 110.497 266.732 108.455ZM292.377 107.471L292.532 107.526C293.622 107.911 294.714 108.357 295.879 108.39C299.533 109.611 303.281 110.548 306.997 111.566L307.356 111.665C308.942 112.102 310.544 112.602 311.614 113.939C312.64 115.221 313.069 116.871 313.404 118.447C314.976 132.221 315.866 146.133 316.664 159.988C317.056 171.525 316.833 183.254 313.894 194.48C313.479 196.018 312.975 197.561 312.796 199.141C312.582 199.144 312.368 199.159 312.152 199.18C312.149 199.077 311.992 199.094 312.004 199.195C309.149 199.647 306.181 199.38 303.501 198.268C304.163 178.059 308.465 156.125 298.721 137.377C298.681 137.306 298.56 137.355 298.587 137.434L298.827 138.129C299.6 140.37 300.355 142.614 300.899 144.925C300.124 144.809 299.56 146.629 299.413 147.075C295.19 159.941 297.791 173.67 298.329 186.883C291.057 192.188 283.715 197.406 276.158 202.296C272.726 200.058 269.651 197.123 266.125 195.093C267.133 167.795 272.684 140.787 275.701 113.826C276.821 115.222 277.96 116.601 279.099 117.981C280.563 119.784 281.978 121.634 283.422 123.455C283.72 123.833 284.371 123.686 284.583 123.305C287.427 118.15 289.234 112.456 292.377 107.471ZM300.948 145.13C305.143 162.457 301.657 180.301 301.723 197.825C301.411 198.102 301.527 198.627 301.891 198.817C301.945 199.059 302.008 199.299 302.082 199.538C301.789 199.817 301.495 200.094 301.197 200.368C301.424 196.553 299.51 193.088 298.401 189.506C299.198 188.792 300.692 188.35 300.493 187.047C300.339 184.213 300.142 181.382 299.903 178.555L299.756 176.972C298.826 166.94 298.036 156.744 300.222 146.823L300.235 146.747C300.306 146.313 300.443 145.218 300.948 145.13ZM238.035 197.668L238.069 197.686L237.993 197.751C238.009 197.724 238.023 197.696 238.035 197.668ZM263.126 191.764C264.099 190.808 262.598 189.292 261.638 190.271C260.667 191.228 262.169 192.744 263.126 191.764ZM263.767 180.396C263.982 179.83 263.385 178.933 262.753 179.309L262.733 179.321L262.725 179.309C262.127 179.664 262.347 180.397 262.698 180.835C263.087 181.237 263.572 180.759 263.767 180.396ZM264.68 167.307C266.372 165.084 262.818 164.173 263.401 166.909C263.525 167.421 264.548 168.167 264.68 167.307ZM267.181 154.923C268.079 153.823 266.149 152.875 265.745 154.189C265.514 155.066 266.604 155.606 267.181 154.923ZM258.201 127.622C257.669 127.705 254.982 127.154 255.673 128.277C254.592 133.696 251.552 140.308 255.893 145.043L255.932 145.081C256.572 145.723 257.596 147.248 258.575 146.619C260.75 144.779 263.552 143.464 265.214 141.109C265.913 139.261 265.318 137.196 265.503 135.264C265.582 132.818 265.987 130.396 266.074 127.955C266.078 127.836 265.95 127.798 265.87 127.848C263.32 127.645 260.756 127.69 258.201 127.622ZM265.783 128.019C264.63 131.787 264.604 135.815 264.634 139.72C264.616 140.123 264.545 140.515 264.336 140.822C262.687 142.773 260.337 143.996 258.379 145.616C257.587 145.097 256.959 144.433 256.397 143.68C252.957 139.164 256.074 133.479 256.07 128.45L256.511 128.451C259.599 128.455 262.717 128.414 265.783 128.019ZM268.379 142.012L268.35 142.012C267.166 142.015 267.438 144.026 268.555 143.751C269.496 143.527 269.352 142.024 268.379 142.012V142.012ZM270.7 131.744C271.52 130.343 268.815 129.801 269.1 131.419L269.094 131.353C269.092 131.34 269.091 131.329 269.09 131.319L269.111 131.47V131.47C269.209 132.186 270.618 132.699 270.7 131.744ZM272.517 120.138C271.765 119.939 271.21 120.998 271.855 121.473C272.814 122.198 273.639 120.391 272.517 120.138ZM290.951 103.723L291.043 103.638C292.024 102.734 292.759 102.282 292.977 104.124C293.128 105.022 292.998 106.155 292.14 106.687C288.03 110.763 286.473 116.583 283.825 121.597C281.433 118.692 279.208 115.667 276.895 112.703C280.081 110.755 283.299 108.823 286.442 106.79C287.944 105.789 289.56 104.877 290.951 103.723ZM270.262 106.126C271.499 108.15 272.64 110.339 274.216 112.131C274.417 112.333 274.625 112.494 274.841 112.616C274.533 112.527 274.124 112.758 274.163 113.097C271.869 115.392 269.993 118.061 268.201 120.761C267.859 116.294 268.512 111.808 268.259 107.334C268.841 106.796 269.535 106.428 270.262 106.126Z"
        fill="black" />
    <path fill-rule="evenodd" clip-rule="evenodd"
        d="M260.612 68.6859C260.645 67.5159 262.341 67.0301 262.831 68.1888C262.862 68.2198 262.895 68.2497 262.926 68.2764C262.772 68.1444 263.093 68.3628 263.145 68.3898C263.19 68.4129 263.236 68.4337 263.281 68.4553C263.597 65.4912 264.667 62.2959 267.432 60.8081C271.289 58.9318 275.746 58.5656 279.978 58.752C282.121 58.8796 284.597 59.2234 286.501 58.1356C287.095 57.7967 287.57 57.2631 288.241 57.0537C290.358 56.4792 291.318 58.6597 291.03 60.4529C291.933 60.46 292.828 60.9615 293.218 61.7871C293.447 62.2757 293.443 62.803 293.64 63.2934C294.246 64.5369 295.112 65.4308 294.622 66.9386C295.484 67.9218 294.993 69.4103 294.297 70.3516C293.954 70.8412 293.545 71.3113 293.294 71.8593C293.05 72.384 293.418 73.0063 293.623 73.5037C295.139 77.1091 295.053 81.0797 294.237 84.8404C295.874 85.5528 296.365 87.7797 295.298 89.1818C294.93 89.6775 294.482 89.8615 293.974 90.1664C293.331 90.5214 293.856 91.9433 293.65 92.6299C293.371 94.3062 291.849 95.3386 290.345 94.25C289.39 94.1051 288.62 96.8915 287.926 97.5909C287.499 98.1545 287.025 98.6605 286.509 99.1275C284.973 103.093 277.101 105.103 273.209 104.874C269.133 104.446 266.384 100.974 264.094 97.8922C262.919 96.2503 262.154 94.4126 261.876 92.4083C261.597 90.3939 261.719 88.3759 261.908 86.3591C262.304 82.074 262.93 75.9005 263.334 71.5691C261.874 71.4485 260.568 70.2013 260.612 68.6859V68.6859Z"
        fill="white" />
    <path fill-rule="evenodd" clip-rule="evenodd"
        d="M292.448 66.1096C292.449 66.1156 292.447 66.1202 292.446 66.1267C292.446 66.1248 292.445 66.1238 292.445 66.1216C292.446 66.1167 292.447 66.1135 292.448 66.1096"
        fill="#4F66AF" />
    <path fill-rule="evenodd" clip-rule="evenodd"
        d="M292.448 66.1719C292.454 66.1662 292.461 66.162 292.469 66.1563C292.469 66.1565 292.469 66.1567 292.469 66.1569C292.462 66.1616 292.455 66.167 292.448 66.1719"
        fill="#4F66AF" />
    <path fill-rule="evenodd" clip-rule="evenodd"
        d="M260.844 69.2396C260.364 68.8398 259.609 69.2079 259.771 69.866C259.948 70.5828 260.714 71.0726 261.346 71.3671C261.997 71.6702 262.631 71.7286 263.341 71.6955L263.35 71.6936V71.6936C263.153 72.4864 263.041 73.3105 262.89 74.1081C262.699 75.12 262.51 76.1324 262.325 77.1452C262.146 78.1243 261.919 79.1045 261.781 80.0884C261.642 81.0816 261.509 82.0755 261.372 83.069C261.144 84.7283 260.96 86.3953 260.766 88.0594L260.674 88.847C260.48 90.5142 260.323 92.1835 260.691 93.8426C261.036 95.3975 261.814 96.8479 262.715 98.1459C263.598 99.4169 264.584 100.639 265.667 101.744C267.755 103.877 270.33 105.584 273.349 105.901C274.65 106.037 276.038 105.886 277.26 105.411L277.342 105.38C278.579 104.89 280.094 104.051 280.416 102.674C280.614 101.829 279.746 101.17 278.985 101.571C278.633 101.756 278.368 101.969 278.079 102.235L278.027 102.282C277.791 102.502 277.7 102.57 277.427 102.742C276.867 103.096 276.448 103.263 275.812 103.423C274.641 103.719 273.376 103.672 272.186 103.322C269.661 102.58 267.701 100.643 266.023 98.7002C265.111 97.6453 264.246 96.5388 263.579 95.3094C262.879 94.0196 262.556 92.6653 262.575 91.1977C262.597 89.5417 262.825 87.8793 262.975 86.2311C263.127 84.5509 263.269 82.8712 263.393 81.1886C263.509 79.6107 263.52 78.0257 263.561 76.4428L263.569 76.1461C263.593 75.3058 263.61 74.4652 263.629 73.6248C263.647 72.7867 263.714 71.9381 263.628 71.1036C263.621 71.0428 263.54 71.0274 263.52 71.0889C263.469 71.2452 263.425 71.404 263.383 71.5637C263.376 71.5588 263.369 71.5544 263.36 71.5514C262.804 71.3596 262.292 70.9768 261.874 70.5639C261.476 70.1698 261.268 69.5927 260.844 69.2396ZM291.284 57.4987C290.935 56.0588 289.362 55.7372 288.199 56.4306C287.64 56.7641 287.192 57.245 286.669 57.6272C286.15 58.0072 285.576 58.3124 284.97 58.5279C283.766 58.9561 282.497 59.1117 281.225 59.1173C278.129 59.1309 275.096 58.2581 271.996 58.3555C269.596 58.4308 267.05 59.1421 265.31 60.8817C264.372 61.8188 263.768 63.0237 263.444 64.3028C263.293 64.9006 263.18 65.5129 263.091 66.1238L263.069 66.2764C263.019 66.6335 262.939 67.0114 262.932 67.3723C262.925 67.6963 263.007 68.0355 263.051 68.3562C263.145 69.0323 264.189 68.9553 264.339 68.3562C264.68 66.9922 264.537 65.5844 264.955 64.2251C265.325 63.0197 266.042 61.9657 267.082 61.2449C271.467 58.2039 277.091 60.7505 281.922 60.5139C283.103 60.4561 284.302 60.273 285.416 59.8651C285.99 59.6548 286.555 59.3982 287.076 59.0755C287.553 58.7801 287.967 58.4089 288.408 58.0672L288.603 57.9187C288.906 57.6902 289.422 57.3329 289.727 57.6352C289.86 57.7668 289.868 58.0643 289.866 58.2915L289.864 58.3941C289.85 59.3587 289.654 60.3215 290.014 61.2533C290.178 61.6783 290.634 61.9463 291.068 61.7056L291.091 61.6927C292.009 61.145 293.214 62.2455 292.509 63.1563L292.487 63.1838C292.091 63.6674 292.302 64.5189 293.012 64.5168L293.038 64.5164C294.303 64.4767 294.864 66.0625 293.774 66.7553L293.74 66.776C292.855 67.3074 293.631 68.5849 294.538 68.1463C294.462 68.1835 294.595 68.183 294.672 68.2859C294.745 68.3848 294.751 68.4703 294.733 68.5951C294.68 68.9734 294.349 69.2922 294.08 69.5315C293.47 70.0752 292.713 70.4506 291.934 70.6792C288.812 71.5948 285.608 70.4748 282.566 69.7984C279.395 69.0932 275.813 68.8092 273.047 70.8102C273.014 70.8339 273.043 70.8868 273.079 70.8657C275.064 69.7094 277.495 69.812 279.665 70.286C282.51 70.9077 285.331 72.0649 288.245 72.3698C287.427 73.8184 287.084 75.5294 287.303 77.1864C287.453 78.327 287.906 79.3164 288.44 80.319L288.542 80.5101C289.019 81.41 289.388 82.2602 289.394 83.3028C289.399 84.3387 290.935 84.5571 291.195 83.5474C291.786 81.2545 289.633 79.4484 288.755 77.5576C288.005 75.9412 287.982 74.0567 288.589 72.4017C289.274 72.457 289.965 72.4627 290.662 72.4003C291.262 72.3466 291.878 72.2383 292.479 72.0669L292.719 73.0805C293.038 74.4307 293.333 75.7799 293.422 77.1823C293.488 78.2128 293.485 79.2483 293.384 80.2763C293.298 81.1641 293.115 82.0203 292.929 82.8871C292.769 83.0982 292.688 83.4214 292.733 83.6788C291.697 83.978 290.882 84.798 290.584 85.8839C290.566 85.9501 290.659 85.9872 290.693 85.9299C291.399 84.7544 293.218 84.3219 294.369 85.0984C295.467 85.8399 295.901 87.3369 295.279 88.5219C294.952 89.145 294.467 89.5829 293.841 89.8845L293.716 89.9437C293.388 90.0993 293.087 90.2688 292.876 90.5812C292.603 90.9865 292.594 91.4149 292.619 91.878L292.631 92.0657C292.648 92.3761 292.652 92.6956 292.56 92.9942L292.539 93.0606C292.514 93.1351 292.489 93.2008 292.444 93.2719C292.431 93.293 292.307 93.4155 292.266 93.4599L292.215 93.4753V93.4753L292.158 93.4777V93.4777C292.094 93.4787 292.011 93.4511 292.038 93.4702L292.031 93.4659C292.007 93.4509 291.985 93.435 291.966 93.4209L291.931 93.3931C291.848 93.2731 291.744 93.1739 291.617 93.0982L291.495 93.0439V93.0439C291.179 92.7093 290.638 92.8851 290.411 93.2185C290.248 93.4582 290.161 93.7019 290.154 93.9423C290.128 93.9013 290.072 93.8789 290.036 93.9248L289.821 94.1993C288.999 95.2524 288.192 96.312 287.258 97.2719C286.744 97.8008 286.19 98.2979 285.612 98.7557C285.118 99.1466 284.182 99.5227 284.167 100.235C284.163 100.466 284.327 100.629 284.527 100.708C285.178 100.963 285.983 100.095 286.454 99.6725L286.492 99.6383C287.068 99.1324 287.593 98.577 288.078 97.9831C289.02 96.8295 289.808 95.5016 290.155 94.0409C290.171 94.2958 290.281 94.5456 290.493 94.7813C290.775 95.095 291.162 95.315 291.575 95.4056C292.511 95.6107 293.425 95.2729 293.982 94.4906C294.452 93.8293 294.591 92.956 294.53 92.1571L294.523 92.0612C294.514 91.9331 294.503 91.698 294.47 91.5979L294.765 91.4356V91.4356C295.126 91.2427 295.461 90.9899 295.762 90.7121C296.969 89.5951 297.575 87.7798 297.023 86.1913C296.678 85.1976 295.952 84.333 295.023 83.8836C295.178 83.5235 295.23 83.0959 295.289 82.7175L295.298 82.6549C295.398 82.0342 295.481 81.4057 295.513 80.7775C295.572 79.6044 295.5 78.4203 295.316 77.2607C295.018 75.3774 294.4 73.38 293.267 71.8001C294.131 71.4558 294.927 70.9575 295.541 70.2656C296.182 69.5425 296.591 68.5074 296.095 67.5891C295.969 67.3551 295.804 67.1583 295.615 67.002C295.943 66.3802 296.049 65.6452 295.846 64.9427C295.604 64.1028 294.947 63.4477 294.153 63.1419C294.346 62.3461 294.188 61.4902 293.599 60.827C293.014 60.1691 292.107 59.9295 291.267 60.0799C291.221 59.2335 291.487 58.3334 291.284 57.4987ZM293.64 87.2135C292.87 86.8354 291.957 86.8955 291.188 87.2538L291.136 87.2786C290.296 87.6872 289.184 88.6417 289.451 89.6569C289.607 90.2506 290.264 90.4533 290.774 90.1971C291.2 89.9829 291.297 89.6001 291.511 89.2154C291.662 88.9434 291.849 88.7308 292.068 88.5121C292.531 88.0514 293.05 87.7091 293.64 87.4353C293.725 87.3958 293.722 87.2539 293.64 87.2135ZM274.234 66.693C274.306 66.6599 274.254 66.5465 274.181 66.5673C272.246 67.1217 270.442 68.366 269.363 70.0932C269.298 70.1986 269.288 70.3721 269.363 70.4764L269.398 70.5237C269.448 70.5885 269.497 70.6363 269.59 70.6507C269.764 70.6779 269.916 70.6323 270.017 70.4764C271.079 68.8301 272.44 67.5163 274.234 66.693ZM261.278 67.019C261.114 66.7404 260.68 66.7965 260.593 67.1088L260.581 67.136C260.534 67.2425 260.555 67.2643 260.642 67.204C260.427 67.3823 260.329 67.6478 260.395 67.9333C260.751 69.4753 262.492 70.5765 264.01 70.4249C264.143 70.4117 264.161 70.2484 264.041 70.1997C263.457 69.9625 262.938 69.5773 262.522 69.1046C262.116 68.6451 261.946 68.1194 261.728 67.5646C261.646 67.3563 261.519 67.2063 261.34 67.1244C261.316 67.0915 261.296 67.0565 261.278 67.019ZM269.91 66.0281L269.9 66.0287C269.12 66.1298 268.445 66.5159 267.898 67.0816C267.37 67.6264 266.704 68.5254 266.762 69.3249C266.799 69.8549 267.551 70.1579 267.831 69.6154C267.998 69.2918 268.036 68.937 268.153 68.5947C268.261 68.2811 268.409 67.9832 268.587 67.7039C268.953 67.1284 269.456 66.6408 269.971 66.2009C270.031 66.1495 269.989 66.0283 269.91 66.0281V66.0281ZM289.915 65.7932C290.087 65.628 289.908 65.3464 289.688 65.4022C288.528 65.6968 287.379 66.0551 286.173 66.0907C285.57 66.1084 284.971 66.0608 284.375 65.9826L284.072 65.9424C283.607 65.8814 283.134 65.8336 282.674 65.9295C282.367 65.9934 282.307 66.3896 282.498 66.5964C283.401 67.5728 285.141 67.4794 286.338 67.3148C287.637 67.136 288.949 66.7162 289.915 65.7932ZM268.966 62.7499C269.046 62.6394 268.912 62.465 268.786 62.5141C267.633 62.961 266.425 64.1247 266.107 65.3421C266.023 65.6637 266.427 65.9066 266.665 65.6678C267.107 65.2229 267.42 64.6974 267.794 64.1974C268.166 63.6988 268.602 63.2561 268.966 62.7499ZM287.855 63.2936C287.948 63.2009 287.855 63.0164 287.722 63.0636C286.971 63.3302 286.215 63.5609 285.426 63.6819C284.619 63.8058 283.804 63.7117 282.992 63.7619C282.663 63.7821 282.44 64.2946 282.805 64.4541C284.427 65.1626 286.63 64.5201 287.855 63.2936ZM285.783 61.7045C285.912 61.6088 285.838 61.3462 285.663 61.4194C284.948 61.718 284.225 61.7913 283.458 61.7606C283.175 61.7492 283.115 62.1958 283.391 62.2561C284.239 62.4411 285.09 62.2183 285.783 61.7045Z"
        fill="black" />
    <path fill-rule="evenodd" clip-rule="evenodd"
        d="M269.915 96.2578C270.538 96.2629 271.239 96.0282 271.708 95.8445L271.83 95.7959C272.236 95.633 272.652 95.4459 272.963 95.1319C273.063 95.0299 273.168 94.9144 273.222 94.793C273.254 94.7219 273.267 94.6482 273.236 94.5751C273.124 94.564 273.017 94.5496 272.916 94.5311C272.868 94.5223 272.822 94.5132 272.787 94.5129C272.657 94.5121 272.529 94.5287 272.4 94.545C272.381 94.5473 272.363 94.5497 272.344 94.552C272.244 94.5644 272.145 94.5778 272.045 94.5912C271.756 94.6302 271.469 94.6688 271.175 94.6829C270.964 94.6931 270.742 94.6811 270.518 94.6689C269.937 94.6372 269.336 94.5939 268.889 95.002C268.771 95.1089 268.722 95.2436 268.722 95.3807C268.722 95.5474 268.792 95.717 268.899 95.8502C269.141 96.1515 269.513 96.2545 269.915 96.2578ZM266.515 91.0017C266.787 91.4099 267.239 91.6723 267.858 91.6438C269.088 91.5874 270.557 91.1216 271.588 90.4482C271.856 90.2728 272.03 89.9925 272.061 89.6922L272.117 89.1579L272.417 89.6028C272.448 89.6492 272.48 89.6954 272.511 89.7417C272.598 89.869 272.685 89.9964 272.767 90.1269C273.081 90.6281 273.37 91.1342 273.631 91.6651C273.817 92.041 273.952 92.4614 274.088 92.8856C274.317 93.6017 274.539 94.3061 275.029 94.8094C275.103 94.8855 275.217 94.9128 275.321 94.8993C275.413 94.8874 275.503 94.8422 275.547 94.7522C276.133 93.5578 275.345 92.1184 274.707 91.1177L274.639 91.0133C274.047 90.109 273.079 88.9123 271.971 88.7496L271.844 88.9525L271.66 88.8292C271.358 88.6274 270.96 88.6367 270.611 88.7946L270.263 88.9525C269.614 89.2446 268.974 89.5141 268.271 89.6618C268.22 89.6725 268.169 89.6825 268.118 89.6919C268.07 89.7007 268.021 89.7089 267.973 89.7166C267.983 89.6686 267.994 89.6208 268.006 89.5731C268.018 89.5227 268.03 89.4721 268.042 89.4217C268.056 89.3697 268.07 89.318 268.084 89.2665C268.14 89.061 268.204 88.8574 268.279 88.6581C268.563 87.9087 269.015 87.2078 269.456 86.5393L269.508 86.4607C269.571 86.3649 269.64 86.2649 269.711 86.1616C270.055 85.6655 270.436 85.1271 270.463 84.5867C270.007 84.6155 269.625 84.8995 269.289 85.1469C268.829 85.4861 268.402 85.874 268.014 86.2955C267.263 87.1131 266.588 88.1584 266.292 89.2389C266.123 89.8576 266.198 90.5234 266.515 91.0017V91.0017ZM278.539 84.8376L278.539 84.8155C278.538 84.1916 278.175 82.7671 277.28 82.7671C276.72 82.7671 276.381 83.7366 276.322 84.736L276.32 84.7767C276.294 85.3981 276.464 86.7563 277.28 86.7563C278.104 86.7563 278.53 85.4699 278.539 84.8376V84.8376ZM265.356 84.6419L265.356 84.6199C265.357 83.9959 265.719 82.5714 266.615 82.5714C267.16 82.5714 267.496 83.493 267.567 84.4654L267.572 84.5403C267.608 85.1407 267.449 86.5606 266.615 86.5606C265.79 86.5606 265.364 85.2742 265.356 84.6419V84.6419ZM275.523 80.6151C275.642 80.6291 275.76 80.6473 275.878 80.6661C276.222 80.7212 276.565 80.7872 276.905 80.8642C277.551 81.0105 278.192 81.1952 278.82 81.4039C279.408 81.5993 279.987 81.8201 280.566 82.0409C280.597 82.0527 280.628 82.0645 280.659 82.0762C280.863 82.1542 281.067 82.2415 281.271 82.3292C281.582 82.4625 281.895 82.5968 282.213 82.698C281.373 81.5331 280.079 80.6699 278.834 80.0523C278.123 79.6999 277.37 79.4157 276.611 79.1828L276.189 79.0556C275.567 78.8715 274.887 78.7016 274.303 79.0685C274.072 79.2136 273.925 79.4392 273.879 79.683C273.833 79.9222 273.885 80.1786 274.05 80.3926C274.193 80.5791 274.372 80.6852 274.562 80.7216C274.772 80.7618 274.995 80.7177 275.197 80.6091C275.359 80.597 275.407 80.6014 275.455 80.6068L275.523 80.6151ZM266.169 80.7336C266.585 80.6429 266.997 80.6064 267.424 80.6195C267.617 80.6253 267.804 80.6552 267.991 80.6853C268.28 80.7321 268.568 80.7804 268.88 80.7237C269.042 80.694 269.181 80.5986 269.288 80.4741C269.413 80.3285 269.496 80.1424 269.522 79.9654C269.55 79.7826 269.522 79.6228 269.455 79.4816C269.375 79.3148 269.241 79.1743 269.079 79.0512C268.588 78.6785 267.746 78.7681 267.167 78.8435C266.595 78.9181 266.026 79.0961 265.52 79.3789C265.021 79.6579 264.587 80.0339 264.248 80.4934C263.963 80.8807 263.828 81.3265 263.69 81.7803C264.343 81.2308 265.342 80.9138 266.169 80.7336Z"
        fill="black" />
    <path fill-rule="evenodd" clip-rule="evenodd"
        d="M265.369 91.4655C266.012 91.3443 266.677 91.3783 267.316 91.2372C267.939 91.0995 268.434 90.6898 269.036 90.4991C269.566 90.3312 270.187 90.4449 270.6 90.7703C270.984 90.5925 271.419 90.5541 271.855 90.6128C272.517 90.7018 273.134 90.9826 273.723 91.2863C273.792 91.3216 273.86 91.3551 273.928 91.3891C275.017 91.3618 276.133 91.3639 277.202 91.598C278.148 91.8053 279.042 92.2879 279.606 93.0939C280.238 93.9961 280.352 95.145 280.449 96.2111C280.511 96.8877 279.574 97.025 279.256 96.535C278.927 96.027 278.585 95.5178 278.146 95.0969C277.648 94.6188 277.042 94.4305 276.363 94.3869C274.864 94.2906 273.355 94.3713 271.854 94.3047C270.984 94.266 270.016 93.9305 269.665 93.1721C269.291 93.7602 268.443 94.1099 267.746 94.1629C267.009 94.2191 266.261 94.0847 265.531 94.2387C264.834 94.3859 264.006 94.9066 264.161 95.7395C264.252 96.2287 263.635 96.5171 263.352 96.0817C262.193 94.3026 263.335 91.8491 265.369 91.4655"
        fill="black" />
</svg>