<svg width="45" height="15" viewBox="0 0 45 15" fill="none" xmlns="http://www.w3.org/2000/svg">
<g clip-path="url(#clip0_102_68)">
<path d="M13.2229 5.83757C13.386 6.04167 13.5534 6.25653 13.7208 6.47823L13.9205 6.06115C14.2299 6.17275 14.5657 6.15629 14.8649 6.01487C15.1641 5.87344 15.406 5.61677 15.5453 5.29303C15.6847 4.96929 15.7118 4.60075 15.6216 4.25657C15.5315 3.91239 15.3302 3.61624 15.0556 3.42372C14.781 3.23119 14.452 3.15552 14.1303 3.21092C13.8086 3.26631 13.5163 3.44895 13.3084 3.72457C13.1004 4.00018 12.991 4.34982 13.0008 4.70784C13.0105 5.06587 13.1387 5.40767 13.3613 5.66909C13.316 5.72358 13.2701 5.7795 13.2229 5.83757ZM14.3333 3.93333C14.4652 3.93333 14.5941 3.97634 14.7037 4.05692C14.8133 4.1375 14.8988 4.25203 14.9493 4.38603C14.9997 4.52003 15.0129 4.66748 14.9872 4.80973C14.9615 4.95199 14.898 5.08265 14.8047 5.18521C14.7115 5.28777 14.5927 5.35761 14.4634 5.38591C14.3341 5.41421 14.2 5.39968 14.0782 5.34418C13.9564 5.28867 13.8523 5.19468 13.779 5.07409C13.7058 4.95349 13.6667 4.81171 13.6667 4.66667C13.6669 4.47225 13.7372 4.28585 13.8622 4.14838C13.9871 4.0109 14.1566 3.93356 14.3333 3.93333Z" fill="white"/>
<path d="M11.1904 8.74318C10.1481 10.654 10.8317 11.8237 10.8613 11.8725C10.8773 11.899 10.8993 11.9204 10.9251 11.9347C10.9509 11.9489 10.9797 11.9556 11.0086 11.9539C11.0374 11.9523 11.0654 11.9424 11.0897 11.9253C11.1141 11.9082 11.134 11.8844 11.1474 11.8562L12.8117 8.37807L12.22 7.14139C11.8464 7.65084 11.5025 8.18584 11.1904 8.74318Z" fill="white"/>
<path d="M9.61069 4.50336C9.68419 4.38213 9.8291 4.17868 9.97427 4.17795H9.97531C10.1094 4.17795 10.2631 4.33218 10.3486 4.4452C10.3141 4.69272 10.3378 4.94584 10.4175 5.18041C10.4971 5.41499 10.6301 5.62321 10.8037 5.78524C10.9772 5.94726 11.1856 6.05769 11.409 6.10599C11.6324 6.15428 11.8633 6.13885 12.0797 6.06115L14.8525 11.8562C14.866 11.8844 14.8859 11.9082 14.9102 11.9253C14.9345 11.9424 14.9625 11.9523 14.9914 11.9539C15.0202 11.9556 15.049 11.9489 15.0748 11.9347C15.1006 11.9204 15.1227 11.899 15.1387 11.8725C15.1683 11.8237 15.8519 10.654 14.8095 8.74318C14.2223 7.6666 13.3089 6.48153 12.6387 5.66886C12.7608 5.52561 12.8555 5.35683 12.9172 5.17253C12.9789 4.98824 13.0063 4.79219 12.9977 4.59603C12.9892 4.39987 12.9449 4.2076 12.8675 4.03063C12.7901 3.85366 12.6811 3.69561 12.5471 3.56585C12.4131 3.43609 12.2568 3.33728 12.0874 3.27527C11.918 3.21327 11.739 3.18934 11.561 3.20491C11.383 3.22048 11.2097 3.27523 11.0514 3.36591C10.893 3.45659 10.7528 3.58134 10.6391 3.73277C10.4729 3.58289 10.2461 3.44443 9.9751 3.44443C9.62739 3.44443 9.31806 3.66388 9.05581 4.09659L9.61069 4.50336ZM13 6.68333C13.0412 6.68333 13.0815 6.69678 13.1158 6.72196C13.15 6.74714 13.1767 6.78293 13.1925 6.8248C13.2083 6.86668 13.2124 6.91276 13.2043 6.95721C13.1963 7.00166 13.1765 7.0425 13.1473 7.07455C13.1182 7.1066 13.0811 7.12842 13.0407 7.13726C13.0002 7.14611 12.9584 7.14157 12.9203 7.12422C12.8822 7.10688 12.8497 7.07751 12.8268 7.03982C12.8039 7.00213 12.7917 6.95783 12.7917 6.9125C12.7917 6.85172 12.8136 6.79343 12.8527 6.75046C12.8918 6.70748 12.9448 6.68333 13 6.68333ZM11.6667 3.93333C11.7985 3.93333 11.9274 3.97634 12.0371 4.05692C12.1467 4.1375 12.2321 4.25203 12.2826 4.38603C12.3331 4.52003 12.3463 4.66748 12.3205 4.80973C12.2948 4.95199 12.2313 5.08265 12.1381 5.18521C12.0449 5.28777 11.9261 5.35761 11.7967 5.38591C11.6674 5.41421 11.5334 5.39968 11.4116 5.34418C11.2897 5.28868 11.1856 5.19468 11.1124 5.07409C11.0391 4.95349 11 4.81171 11 4.66667C11.0002 4.47225 11.0705 4.28585 11.1955 4.14838C11.3205 4.0109 11.4899 3.93356 11.6667 3.93333Z" fill="white"/>
</g>
<path d="M17.996 12V3.6H21.812C22.724 3.6 23.528 3.776 24.224 4.128C24.92 4.472 25.464 4.956 25.856 5.58C26.248 6.204 26.444 6.944 26.444 7.8C26.444 8.648 26.248 9.388 25.856 10.02C25.464 10.644 24.92 11.132 24.224 11.484C23.528 11.828 22.724 12 21.812 12H17.996ZM19.94 10.404H21.716C22.276 10.404 22.76 10.3 23.168 10.092C23.584 9.876 23.904 9.572 24.128 9.18C24.36 8.788 24.476 8.328 24.476 7.8C24.476 7.264 24.36 6.804 24.128 6.42C23.904 6.028 23.584 5.728 23.168 5.52C22.76 5.304 22.276 5.196 21.716 5.196H19.94V10.404ZM29.6981 6.984H33.7421V8.496H29.6981V6.984ZM29.8421 10.44H34.4141V12H27.9101V3.6H34.2581V5.16H29.8421V10.44ZM35.9608 12V3.6H39.7768C40.6888 3.6 41.4928 3.776 42.1888 4.128C42.8848 4.472 43.4288 4.956 43.8208 5.58C44.2128 6.204 44.4088 6.944 44.4088 7.8C44.4088 8.648 44.2128 9.388 43.8208 10.02C43.4288 10.644 42.8848 11.132 42.1888 11.484C41.4928 11.828 40.6888 12 39.7768 12H35.9608ZM37.9048 10.404H39.6808C40.2408 10.404 40.7248 10.3 41.1328 10.092C41.5488 9.876 41.8688 9.572 42.0928 9.18C42.3248 8.788 42.4408 8.328 42.4408 7.8C42.4408 7.264 42.3248 6.804 42.0928 6.42C41.8688 6.028 41.5488 5.728 41.1328 5.52C40.7248 5.304 40.2408 5.196 39.6808 5.196H37.9048V10.404Z" fill="white"/>
<path d="M2.796 7.38H6.828V8.94H2.796V7.38ZM2.94 12H0.996V3.6H7.344V5.16H2.94V12Z" fill="white"/>
<defs>
<clipPath id="clip0_102_68">
<rect width="8" height="11" fill="white" transform="matrix(-1 0 0 -1 17 12)"/>
</clipPath>
</defs>
</svg>
