<svg viewBox="0 0 384 409" fill="none" xmlns="http://www.w3.org/2000/svg">
    <path fill-rule="evenodd" clip-rule="evenodd"
        d="M163.833 0.120239C226.137 2.50526 268.756 55.6008 308.073 103.933C348.056 153.084 393.539 206.299 382.249 268.617C370.537 333.267 316.686 386.468 253.547 404.896C198.796 420.876 143.872 387.519 100.124 350.959C68.9633 324.918 73.3924 280.728 59.3858 242.635C40.0421 190.026 -17.144 143.815 5.02887 92.3325C30.4851 33.2261 99.4604 -2.34398 163.833 0.120239Z"
        fill="#BDA5AB" />
    <path fill-rule="evenodd" clip-rule="evenodd"
        d="M173.463 171.963C167.818 172.242 159.027 174.661 158.587 176.208C157.901 178.623 159.376 187.675 156.909 192.552C155.858 194.63 151.865 194.444 150.318 195.121C145.142 197.386 129.817 201.682 126.658 207.091C125.392 209.258 117.613 236.147 113.479 249.864C113.013 251.411 112.487 252.841 111.915 254.166L111.705 253.137C110.019 244.846 109.177 239.826 109.177 238.079C109.177 235.349 111.355 223.829 109.177 220.9C107.02 218 101.822 215.628 99.4831 215.581L99.4131 215.58C97.8776 215.58 96.5453 215.101 95.4161 214.141L93.7605 213.309C85.3381 209.084 80.4174 206.766 78.9984 206.356C76.734 205.702 72.8801 207.096 74.807 209.189C76.0916 210.585 79.3197 213.053 84.4913 216.595L86.4412 218.144L86.2056 218.267C83.6855 219.593 82.2037 220.709 81.7602 221.616C81.3031 222.55 81.5225 223.655 82.4183 224.931L82.2824 225.063C81.1496 226.175 80.5832 226.92 80.5832 227.3V229.154C79.4562 230.804 79.1745 232.18 79.738 233.282C80.3015 234.384 81.1949 235.339 82.4183 236.147C83.3197 238.517 84.3933 240.204 85.6389 241.208C86.8845 242.212 89.0373 243.048 92.0972 243.715L94.8662 250.333L97.1099 259.632L98.2404 270.007L97.9122 270.245C96.3907 271.352 95.4161 272.174 95.4161 273.022C95.4161 274.344 101.555 305.435 111.106 306.827C113.172 307.128 123.885 305.652 127.402 302.791L127.35 303.1C126.523 308.097 126.698 310.692 127.875 310.885C142.35 313.257 183.458 313.99 251.201 313.084C251.604 277.142 249.781 253.204 245.733 241.273C235.381 210.756 223.966 200.333 219.973 199.441C216.475 198.659 204.345 193.833 200.954 192.552C198.741 191.716 198.267 189.209 195.745 189.209L195.541 189.21C193.101 189.234 190.938 189.67 189.723 188.416C186.534 185.125 187.425 180.57 186.102 176.208C185.373 173.805 180.392 171.622 173.463 171.963Z"
        fill="white" />
    <path fill-rule="evenodd" clip-rule="evenodd"
        d="M188.974 180.581C188.643 179.924 187.763 180.009 187.183 180.307C185.442 181.58 187.264 184.046 187.745 185.598C188.984 188.61 191.136 191.553 194.106 192.96C193.86 195.954 193.581 198.941 193.478 201.944C189.68 206.653 183.278 208.371 177.594 209.693C168.667 212.161 158.593 207.105 155.58 198.284C159.009 196.336 160.119 191.237 159.096 187.679C159.007 187.429 158.619 187.319 158.481 187.598C157.542 189.528 157.667 191.883 156.6 193.791C146.354 194.771 133.131 198.636 126.419 206.919C123.444 211.063 122.266 216.453 120.801 221.256C117.675 231.157 115.184 241.259 112.118 251.171L111.757 249.295C110.766 244.129 109.866 238.893 110.535 233.639L110.547 233.388C110.766 229.207 112.074 221.439 108.831 218.617C105.898 216.376 101.648 214.575 97.9668 215.608C91.4157 212.694 85.7614 207.786 78.7844 205.875C76.6371 205.433 73.5479 205.956 74.0554 208.868C75.462 213.961 81.3526 215.938 85.3794 218.565C82.7982 219.264 79.6514 222.402 81.6681 225.138C81.6855 225.187 81.701 225.223 81.7165 225.252C80.0811 225.977 79.852 227.798 80.2534 229.36C80.2941 229.772 80.4026 229.418 80.1602 229.792C78.3148 231.531 79.1305 236.381 81.9103 236.545C81.7284 238.843 83.2049 241.075 85.0751 242.329C87.0909 243.679 90.0054 243.737 91.6742 245.585C95.5923 252.492 96.9439 260.645 97.371 268.554C94.7882 269.52 92.471 272.41 94.8175 274.862C94.8638 274.867 94.9101 274.873 94.957 274.876C96.3173 278.505 96.8425 282.374 97.5619 286.164C98.6687 292.63 101.553 298.568 105.236 303.955C109.496 311.086 120.949 309.955 126.719 305.353C126.696 306.561 126.497 307.761 126.884 308.928C127.455 310.187 128.847 309.643 128.985 308.403C132.035 310.118 132.753 304.457 129.363 305.355C129.623 301.263 129.775 297.165 129.897 293.066C133.736 294.309 133.902 287.942 129.975 289.215L129.98 287.455C130.009 273.959 129.859 260.416 128.078 247.027C127.913 246.025 127.634 245.056 127.471 244.061C127.454 243.958 127.293 243.987 127.292 244.086C127.016 262.832 128.242 281.618 126.963 300.37C125.899 300.695 125.474 301.916 124.686 302.627C122.936 304.242 120.553 305.029 118.223 305.303C111.698 306.217 108.881 304.225 105.975 298.555C107.285 299.431 109.056 297.884 108.257 296.499L108.232 296.457C107.403 294.989 105.06 295.869 105.357 297.513C102.435 292.836 100.906 287.562 99.7767 282.211L99.6239 281.572C99.075 279.3 98.3625 276.697 97.0443 274.642C105.084 272.594 112.948 266.353 114.206 257.791C116.247 264.202 119.012 270.469 121.647 276.703C122.461 278.871 122.801 281.202 123.967 283.213C124.239 283.678 124.927 283.558 125.08 283.067C126.129 278.378 122.95 273.917 121.299 269.696C119.951 267.31 116.081 256.415 113.682 256.388C116.378 244.576 119.974 232.853 123.398 221.188C126.709 205.438 133.457 202.401 147.751 197.441C145.173 210.576 133.401 223.29 139.665 237.067L139.817 237.424C140.458 238.943 140.99 240.473 140.543 242.141C140.109 243.758 139.121 245.163 138.33 246.618C133.909 254.836 136.952 264.435 138.661 272.993C140.82 283.03 142.953 293.077 145.185 303.098C145.624 305.097 145.91 307.157 146.574 309.094C146.917 310.094 148.628 309.999 148.518 308.833C148.307 306.57 147.671 304.363 147.205 302.141C144.427 287.754 140.667 273.537 138.276 259.087C136.738 248.39 142.792 246.746 142.566 239.835C141.744 236.3 139.565 233.146 139.69 229.379C139.206 217.849 147.608 208.336 148.645 197.122L150.477 196.468C151.392 196.141 152.306 195.811 153.218 195.473C148.42 229.013 149.877 263.287 152.275 296.994C152.765 298.549 152.299 309.413 154.353 308.449C154.457 309.056 154.78 309.653 155.481 309.65C161.851 309.709 168.224 309.809 174.594 309.885C177.658 309.603 181.87 310.772 184.476 309.005C187.485 308.147 187.831 300 188.635 297.096L188.949 294.984C194.062 260.478 198.638 225.26 194.963 190.411C200.076 190.608 201.132 196.125 201.511 200.142C202.459 209.008 208.19 216.643 208.464 225.611C208.488 227.787 208.077 229.894 207.207 231.892C204.899 236.786 200.907 242.444 203.89 247.91C207.419 252.166 207.113 253.286 205.819 258.544C202.176 275.929 196.126 292.641 190.371 309.403C191.622 315.918 199.143 291.732 199.85 289.909C203.179 291.582 204.998 286.028 201.179 285.633C203.632 277.426 205.889 269.157 207.769 260.798L207.818 260.562C208.649 256.7 210.281 252.177 207.524 248.751C200.414 241.563 212.221 233.53 210.732 224.822C212.018 225.776 213.965 224.773 213.935 223.172C213.994 221.369 211.572 220.446 210.406 221.821C209.208 214.757 205.039 208.59 203.777 201.546L203.72 201.215C203.292 198.726 203.172 196.107 201.949 193.838C203.614 194.919 205.387 195.793 207.211 196.564C203.95 199.286 210.264 201.771 209.742 197.565C227.623 202.737 231.665 209.949 238.23 226.512C237.004 225.321 234.903 226.862 235.637 228.381C236.223 229.981 238.778 229.514 238.777 227.808L239.076 228.521C243.057 238.037 246.681 247.785 248.502 257.969C244.93 257.465 245.839 263.172 249.076 261.563C250.375 270.62 250.395 279.806 250.236 288.936C247.223 287.356 247.133 292.723 250.207 291.193C250.095 298.675 249.93 306.157 249.806 313.64C249.781 315.232 252.238 315.224 252.277 313.64C252.564 302.143 253.087 290.625 252.839 279.125C253.072 259.165 247.332 239.927 238.78 222.047C231.213 201.46 220.76 199.118 201.528 193.132C199.753 190.498 195.96 188.007 192.866 189.661C191.135 186.867 190.255 183.557 188.974 180.581ZM221.924 252.333C221.852 252.079 221.49 252.143 221.478 252.393C221.317 255.623 221.461 258.874 221.682 262.117C221.816 264.097 221.98 266.075 222.12 268.041C222.49 273.23 222.788 278.424 223.015 283.622C222.936 283.589 222.854 283.56 222.769 283.537C222.377 283.43 221.986 283.43 221.594 283.537C221.245 283.634 220.94 283.804 220.677 284.05L220.622 284.104C220.406 284.304 220.253 284.54 220.164 284.813C220.037 285.056 219.973 285.316 219.973 285.594L219.974 285.664C219.976 286.063 220.075 286.433 220.277 286.778C220.472 287.109 220.736 287.373 221.067 287.57C221.412 287.77 221.783 287.869 222.182 287.87C222.224 287.874 222.267 287.878 222.31 287.88C222.606 287.892 222.883 287.83 223.139 287.696L223.178 287.684C223.275 290.321 223.354 292.96 223.412 295.599C223.465 297.898 223.534 300.198 223.581 302.497L223.603 303.648L223.645 306.19C223.658 307.236 223.652 308.237 224.007 309.223L224.05 309.337C224.306 309.995 224.505 310.912 225.19 311.278C225.736 311.57 226.472 311.462 226.786 310.892C227.05 310.416 226.821 309.73 226.432 309.408C226.439 309.387 226.451 309.368 226.461 309.346C226.521 309.172 226.612 309.007 226.666 308.831C226.837 308.273 226.79 307.678 226.792 307.099C226.792 306.076 226.758 305.053 226.73 304.032C226.67 301.858 226.6 299.687 226.515 297.515C226.227 290.229 225.685 282.944 225.064 275.679L224.853 273.227C224.572 269.966 224.281 266.701 223.87 263.458C223.85 263.303 223.831 263.148 223.81 262.992C224.031 262.882 224.236 262.729 224.399 262.559C225.052 261.873 225.448 260.849 225.819 259.966L225.905 259.765C226.308 258.823 226.68 257.87 226.872 256.859L226.89 256.766C226.978 256.335 227.15 255.572 226.693 255.363C226.455 255.255 226.304 255.332 226.226 255.57C226.216 255.601 226.225 255.636 226.242 255.663C226.054 255.952 225.759 256.221 225.573 256.489L224.936 257.399L224.622 257.856C224.222 258.444 223.796 259.005 223.356 259.56C223.009 257.126 222.585 254.703 221.924 252.333ZM195.811 306.558C195.015 305.934 193.718 306.273 193.718 307.424C193.718 308.581 195.017 308.914 195.811 308.29L195.851 308.261L195.889 308.23C196.321 307.892 196.336 307.013 195.921 306.646L195.889 306.619C195.864 306.597 195.838 306.578 195.811 306.558ZM230.51 304.309L230.442 304.311C230.081 304.311 229.746 304.402 229.434 304.584C229.298 304.687 229.164 304.791 229.029 304.896C228.781 305.144 228.61 305.439 228.515 305.778L228.443 306.308C228.434 306.583 228.49 306.839 228.616 307.078C228.697 307.325 228.835 307.54 229.029 307.721C229.211 307.917 229.424 308.054 229.672 308.133C229.891 308.249 230.124 308.307 230.373 308.307L230.442 308.306C230.804 308.306 231.139 308.215 231.451 308.033C231.587 307.93 231.721 307.825 231.856 307.721C232.102 307.473 232.275 307.178 232.37 306.839C232.393 306.663 232.416 306.485 232.442 306.308C232.451 306.033 232.393 305.778 232.269 305.539C232.188 305.291 232.05 305.076 231.856 304.896C231.674 304.7 231.461 304.563 231.213 304.483C230.994 304.368 230.76 304.31 230.51 304.309ZM139.789 300.626L139.281 300.694C138.795 300.804 138.404 301.163 138.142 301.572C138.002 301.791 137.927 302.027 137.915 302.281C137.859 302.533 137.871 302.786 137.95 303.04C138.008 303.288 138.122 303.505 138.291 303.689C138.349 303.78 138.417 303.863 138.494 303.937C138.654 304.203 138.894 304.377 139.142 304.555C139.351 304.689 139.578 304.761 139.822 304.772C139.983 304.815 140.146 304.815 140.309 304.772C140.551 304.761 140.778 304.689 140.987 304.555C141.111 304.46 141.235 304.363 141.357 304.268C141.465 304.142 141.566 304.013 141.661 303.877C141.725 303.728 141.787 303.58 141.849 303.433C141.964 303.079 141.907 302.765 141.845 302.41C141.836 302.35 141.82 302.296 141.799 302.238L141.757 302.125C141.645 301.831 141.586 301.731 141.388 301.475L141.313 301.374C141.275 301.324 141.236 301.275 141.192 301.231C141.068 301.103 140.892 300.996 140.752 300.886C140.454 300.713 140.132 300.628 139.789 300.626ZM205.587 299.385L205.523 299.386C205.242 299.388 204.978 299.458 204.734 299.599L204.416 299.845C204.222 300.041 204.088 300.269 204.013 300.535C203.995 300.674 203.976 300.814 203.957 300.952C203.949 301.167 203.993 301.368 204.092 301.556C204.154 301.75 204.263 301.916 204.416 302.06C204.557 302.211 204.726 302.319 204.92 302.383C205.089 302.471 205.271 302.518 205.464 302.518L205.523 302.517C205.806 302.517 206.069 302.445 206.313 302.304L206.631 302.06C206.825 301.864 206.959 301.634 207.034 301.368C207.052 301.229 207.071 301.091 207.09 300.952C207.098 300.737 207.054 300.535 206.955 300.349C206.891 300.155 206.784 299.987 206.631 299.845C206.49 299.692 206.321 299.584 206.127 299.522C205.958 299.433 205.779 299.388 205.587 299.385ZM218.377 298.745C217.972 298.741 217.561 298.855 217.23 299.09C216.908 299.318 216.664 299.564 216.507 299.934C216.465 300.035 216.422 300.134 216.385 300.235C216.218 300.678 216.187 301.124 216.418 301.558C216.641 301.978 217.122 302.162 217.552 302.288C217.916 302.397 218.329 302.414 218.691 302.284C218.872 302.221 219.048 302.153 219.211 302.054C219.515 301.866 219.68 301.643 219.883 301.368C220.042 301.097 220.122 300.802 220.122 300.489C220.122 300.173 220.042 299.88 219.883 299.607C219.571 299.074 218.994 298.749 218.377 298.745ZM238.92 299.119C238.409 299.119 237.959 299.355 237.651 299.754C237.339 300.159 237.225 300.663 237.362 301.165C237.508 301.696 237.947 302.161 238.492 302.294C238.895 302.393 239.225 302.389 239.626 302.321C239.965 302.263 240.224 302.062 240.484 301.852C240.781 301.61 240.872 301.169 240.823 300.812C240.777 300.456 240.612 300.223 240.362 300.012L240.36 300.006L240.453 300.078C240.418 300.047 240.384 300.014 240.348 299.981C240.337 299.962 240.327 299.94 240.318 299.919C240.174 299.675 239.98 299.483 239.738 299.34C239.484 299.192 239.213 299.119 238.92 299.119ZM119.618 293.251C119.337 293.175 119.054 293.175 118.773 293.251C118.566 293.299 118.386 293.394 118.233 293.535C118.077 293.636 117.95 293.766 117.855 293.926L117.824 293.981C117.603 294.357 117.568 294.787 117.663 295.205C117.781 295.722 118.258 296.193 118.773 296.315L118.791 296.319L118.808 296.323C119.017 296.389 119.229 296.399 119.438 296.35C119.649 296.341 119.845 296.279 120.025 296.162C120.254 296.015 120.446 295.825 120.593 295.597C120.709 295.415 120.771 295.219 120.781 295.008C120.818 294.868 120.818 294.729 120.781 294.589C120.771 294.378 120.709 294.182 120.593 294L120.345 293.68L120.32 293.659C120.122 293.462 119.888 293.326 119.618 293.251ZM139.13 282.998C136.589 282.998 136.593 286.939 139.13 286.939C141.671 286.939 141.667 282.998 139.13 282.998ZM232.151 282.5C231.883 282.44 231.616 282.452 231.35 282.535C231.19 282.603 231.031 282.67 230.872 282.736L230.465 283.05C230.389 283.114 230.352 283.184 230.283 283.275L230.195 283.389C230.069 283.558 230.066 283.593 229.928 283.953C229.835 284.298 229.835 284.643 229.928 284.988C229.973 285.154 230.04 285.311 230.128 285.456C230.207 285.596 230.303 285.718 230.41 285.831L230.465 285.887C230.647 286.082 230.862 286.22 231.11 286.301C231.267 286.392 231.436 286.437 231.616 286.437C231.883 286.497 232.151 286.485 232.416 286.402C232.577 286.334 232.736 286.266 232.895 286.2L233.302 285.887L233.616 285.48L233.716 285.241L233.817 285.001L233.889 284.468C233.899 284.191 233.843 283.936 233.717 283.695C233.668 283.527 233.583 283.378 233.459 283.253C233.37 283.103 233.25 282.982 233.098 282.893C232.975 282.769 232.825 282.684 232.657 282.636C232.5 282.545 232.331 282.5 232.151 282.5ZM106.487 279.685C106.275 279.677 106.077 279.722 105.895 279.819C105.831 279.84 105.769 279.867 105.709 279.898C105.475 280.036 105.289 280.222 105.151 280.454C105.039 280.632 104.977 280.824 104.967 281.031C104.925 281.218 104.929 281.406 104.979 281.594L104.996 281.65C105.039 281.803 105.103 281.944 105.188 282.074C105.196 282.089 105.205 282.105 105.217 282.118C105.347 282.324 105.519 282.492 105.732 282.618C105.969 282.754 106.223 282.823 106.498 282.826C107.046 282.826 107.519 282.529 107.808 282.074C107.849 282.01 107.872 281.928 107.901 281.863C107.926 281.801 107.967 281.721 107.988 281.65C108.062 281.374 108.062 281.099 107.988 280.824C107.94 280.623 107.849 280.446 107.711 280.297C107.601 280.129 107.456 279.995 107.275 279.898C107.051 279.768 106.811 279.698 106.556 279.687L106.487 279.685ZM213.759 277.757C213.491 277.684 213.224 277.678 212.957 277.74L212.891 277.757C212.678 277.808 212.493 277.905 212.335 278.048C212.158 278.164 212.017 278.317 211.914 278.507C211.767 278.761 211.693 279.036 211.691 279.33C211.693 279.625 211.767 279.9 211.914 280.154C212.06 280.4 212.255 280.594 212.501 280.739L212.714 280.842C212.893 280.954 213.083 281.014 213.288 281.024C213.426 281.061 213.563 281.061 213.699 281.024C213.839 281.024 213.968 280.989 214.088 280.919C214.22 280.882 214.333 280.816 214.43 280.719C214.598 280.611 214.73 280.468 214.827 280.288L214.984 279.917L215.038 279.507L214.984 279.098L214.899 278.897C214.821 278.619 214.681 278.379 214.478 278.176C214.275 277.974 214.034 277.835 213.759 277.757ZM117.649 274.489C117.366 274.4 117.085 274.388 116.804 274.45C116.615 274.45 116.436 274.499 116.271 274.596C116.091 274.646 115.936 274.735 115.804 274.867C115.574 275.016 115.393 275.213 115.26 275.459L115.047 275.965C114.919 276.293 114.965 276.775 115.043 277.104C115.107 277.376 115.231 277.612 115.415 277.813C115.508 277.97 115.632 278.094 115.789 278.187C115.968 278.351 116.175 278.467 116.41 278.536L116.475 278.553L116.498 278.559C116.502 278.561 116.506 278.561 116.51 278.561C116.512 278.563 116.516 278.563 116.518 278.563C116.61 278.586 116.705 278.6 116.804 278.604C117.085 278.666 117.366 278.654 117.649 278.565C117.816 278.495 117.984 278.424 118.153 278.352C118.297 278.244 118.438 278.133 118.581 278.023C118.692 277.879 118.802 277.736 118.913 277.595C119.068 277.352 119.151 277.089 119.163 276.808C119.213 276.62 119.213 276.434 119.163 276.246C119.163 276.054 119.114 275.878 119.02 275.713C118.934 275.45 118.789 275.223 118.581 275.032C118.438 274.921 118.297 274.81 118.153 274.702C117.984 274.63 117.816 274.559 117.649 274.489ZM241.256 267.553C240.963 267.474 240.67 267.474 240.378 267.553L239.984 267.718C239.791 267.822 239.637 267.964 239.521 268.144C239.374 268.303 239.275 268.491 239.225 268.706C239.11 269 239.124 269.467 239.215 269.768C239.318 270.109 239.476 270.38 239.723 270.636C240.131 271.058 240.76 271.18 241.316 271.052C241.469 271.017 241.614 270.949 241.746 270.866C242.166 270.606 242.449 270.153 242.447 269.651C242.447 269.597 242.444 269.543 242.436 269.489C242.463 269.378 242.473 269.264 242.469 269.144L242.411 268.706L242.407 268.694C242.329 268.417 242.19 268.177 241.986 267.974C241.798 267.788 241.579 267.653 241.329 267.572L241.265 267.553H241.256ZM95.0152 224.05C95.5447 219.71 97.5352 215.042 103.606 217.59L104.057 217.759C105.56 218.328 107.31 219.074 108.225 220.388C108.854 221.292 108.641 223.046 108.728 224.102C109.124 227.535 108.912 230.963 108.5 234.381C107.967 242.394 109.652 250.696 113.008 257.979C109.65 263.41 105.156 268.476 99.0251 270.74C98.7658 264.565 97.5563 258.503 96.2691 252.476L96.2184 252.214C95.7037 249.497 95.446 246.708 93.6607 244.448C90.0293 240.507 85.0346 242.737 82.6449 236.406C83.1468 236.152 82.8697 235.284 82.2648 235.451C80.1689 235.823 79.8284 231.939 81.2629 231.003C82.7577 230.091 81.2528 228.411 81.889 227.197C82.2437 226.674 83.0092 226.657 83.3563 226.054C84.2761 223.836 79.673 222.415 85.0862 219.914C86.1941 219.52 87.4325 219.765 88.55 219.76C90.1938 219.914 91.5002 221.071 93.0035 221.436C91.3667 225.672 95.4968 229.752 99.2245 226.368C101.253 228.285 103.522 232.654 98.5906 230.617C96.1772 229.007 94.0995 226.926 91.2979 225.934L91.2387 225.916C90.1987 225.575 85.6478 223.365 85.8734 225.278C87.5781 226.922 90.3895 226.903 92.3638 228.238C95.1008 229.503 96.8511 232.57 100.128 232.527C100.883 237.112 95.6782 234.322 93.74 233.058L93.2026 232.766C90.4687 231.29 87.6936 229.922 84.5053 229.904C83.6255 229.898 83.6294 231.254 84.5053 231.266C88.6604 231.292 92.0423 233.888 95.5229 235.819C95.8656 238.495 91.9448 237.323 90.457 236.929C88.8971 236.71 86.3918 235.023 85.0265 235.914C84.4926 237.285 86.8424 237.183 87.6604 237.599C83.9255 239.393 87.1978 240.522 88.1992 237.766L88.4925 237.866C90.9935 238.706 97.058 240.436 96.3367 236.201C97.252 236.605 98.3681 236.848 99.3796 236.623C101.902 240.352 105.925 238.909 100.077 236.367C101.395 235.754 101.835 233.388 100.569 232.508C105.173 232.227 101.755 227.399 99.8498 225.79C100.03 225.608 100.204 225.423 100.366 225.235C101.465 225.758 102.62 226.076 103.855 226.188C105.037 226.295 105.3 224.284 104.134 224.119C102.884 223.943 101.732 223.61 100.632 222.982C98.9633 222.262 98.3939 225.356 96.7243 225.466C95.8136 225.646 95.1976 224.848 95.0152 224.05ZM133.771 263.977C133.368 263.977 133.01 264.145 132.717 264.413C132.425 264.68 132.299 265.081 132.281 265.465C132.274 265.67 132.316 265.862 132.409 266.04C132.469 266.224 132.572 266.383 132.717 266.519C132.989 266.788 133.39 266.955 133.771 266.955C134.175 266.955 134.533 266.786 134.826 266.519C135.118 266.249 135.245 265.85 135.262 265.465C135.27 265.261 135.227 265.069 135.134 264.891C135.08 264.725 134.991 264.579 134.868 264.454L134.826 264.413C134.554 264.141 134.153 263.977 133.771 263.977ZM121.557 254.788L121.492 254.79C121.151 254.792 120.835 254.877 120.541 255.047C120.413 255.146 120.285 255.243 120.159 255.342C119.925 255.578 119.764 255.855 119.674 256.175C119.583 256.508 119.583 256.843 119.674 257.176C119.705 257.368 119.777 257.554 119.889 257.715C120.056 257.992 120.277 258.215 120.556 258.38C120.845 258.548 121.157 258.631 121.492 258.633C121.827 258.631 122.14 258.548 122.428 258.38C122.708 258.215 122.928 257.992 123.093 257.715C123.208 257.554 123.279 257.368 123.31 257.176C123.401 256.843 123.401 256.508 123.31 256.175C123.227 255.878 123.083 255.618 122.875 255.393L122.826 255.342C122.655 255.158 122.454 255.028 122.219 254.952C122.013 254.844 121.792 254.789 121.557 254.788ZM214.775 254.892C214.631 254.853 214.49 254.853 214.346 254.892C214.133 254.902 213.934 254.966 213.749 255.082C213.641 255.167 213.532 255.251 213.424 255.334L213.329 255.448C213.127 255.694 213.122 255.736 212.967 256.111C212.902 256.32 212.893 256.53 212.939 256.739C212.939 256.88 212.976 257.012 213.046 257.134C213.085 257.268 213.151 257.384 213.249 257.481C213.319 257.599 213.412 257.694 213.531 257.764C213.682 257.901 213.86 257.996 214.065 258.045L214.482 258.101C214.536 258.093 214.592 258.085 214.647 258.079C214.712 258.077 214.776 258.07 214.838 258.058L214.901 258.044L214.958 258.029C215.034 258.007 215.108 257.977 215.18 257.94C215.315 257.901 215.433 257.833 215.534 257.733C215.709 257.62 215.848 257.469 215.949 257.281L215.976 257.219C216.013 257.153 216.044 257.086 216.067 257.012C216.133 256.896 216.166 256.772 216.168 256.638C216.207 256.46 216.204 256.284 216.158 256.108L216.141 256.049L215.992 255.694C215.914 255.574 215.833 255.452 215.728 255.353C215.665 255.298 215.511 255.178 215.425 255.117L215.372 255.082C215.187 254.966 214.988 254.902 214.775 254.892ZM238.139 252.122C237.86 251.023 236.418 250.677 235.633 251.461C234.849 252.246 235.195 253.687 236.294 253.966L236.42 253.997C237.482 254.267 238.44 253.308 238.17 252.246L238.139 252.122ZM105.12 243.161C105.128 243.053 104.988 243.014 104.919 243.078C103.984 243.915 103.389 244.919 102.256 245.568C101.116 246.219 99.9416 246.166 98.7536 246.587C98.3505 246.73 98.3486 247.269 98.7536 247.41C101.002 248.195 104.95 245.535 105.12 243.161ZM210.751 242.991C210.501 242.914 210.249 242.902 209.999 242.958C209.829 242.958 209.67 243.001 209.525 243.086C209.364 243.131 209.226 243.212 209.108 243.328C208.966 243.411 208.854 243.526 208.769 243.667C208.602 243.849 208.49 244.062 208.432 244.307L208.366 244.808L208.432 245.31C208.496 245.459 208.559 245.61 208.621 245.76L208.795 245.994C208.935 246.181 208.957 246.183 209.298 246.436C209.515 246.573 209.749 246.649 209.999 246.659C210.166 246.705 210.333 246.705 210.501 246.659C210.67 246.659 210.829 246.616 210.976 246.531C211.135 246.486 211.274 246.405 211.393 246.289C211.598 246.155 211.759 245.979 211.877 245.76C211.941 245.61 212.005 245.459 212.067 245.31L212.135 244.808L212.067 244.307L212.063 244.291C211.974 243.977 211.815 243.704 211.587 243.473L211.21 243.183C211.063 243.088 210.91 243.04 210.751 242.991ZM120.283 243.367C119.746 243.22 119.157 243.375 118.764 243.768C118.37 244.161 118.215 244.748 118.362 245.285C118.508 245.808 118.928 246.232 119.453 246.374C119.61 246.416 119.769 246.44 119.93 246.432C120.2 246.43 120.452 246.362 120.686 246.227L120.988 245.992C121.136 245.857 121.238 245.696 121.299 245.51C121.394 245.331 121.436 245.14 121.429 244.932L121.43 244.896C121.436 244.822 121.427 244.748 121.403 244.677C121.403 244.601 121.392 244.527 121.372 244.456C121.231 243.933 120.804 243.51 120.283 243.367ZM236.013 238.121C235.841 238.115 235.68 238.15 235.531 238.229C235.374 238.279 235.24 238.365 235.128 238.489C235.004 238.601 234.918 238.737 234.868 238.892C234.788 239.041 234.754 239.202 234.759 239.374C234.759 239.601 234.818 239.812 234.93 240.006C234.996 240.091 235.062 240.176 235.128 240.259C235.283 240.416 235.467 240.523 235.68 240.583L235.804 240.625C235.986 240.691 236.164 240.695 236.354 240.67C236.554 240.643 236.738 240.589 236.901 240.465C237.06 240.372 237.186 240.246 237.279 240.087L237.385 239.835C237.409 239.75 237.418 239.622 237.424 239.533C237.424 239.519 237.424 239.508 237.426 239.494C237.426 239.419 237.403 239.235 237.384 239.159C237.341 239 237.254 238.849 237.155 238.721C237.069 238.588 236.953 238.483 236.81 238.405L236.797 238.396L236.783 238.386C236.738 238.355 236.692 238.324 236.645 238.291C236.451 238.179 236.24 238.121 236.013 238.121ZM135.936 236.745C135.626 236.745 135.337 236.824 135.07 236.979C135.06 236.983 135.051 236.987 135.043 236.991C134.787 237.142 134.584 237.346 134.432 237.601C134.277 237.867 134.2 238.154 134.2 238.46C134.2 238.768 134.277 239.052 134.432 239.318C134.584 239.574 134.787 239.777 135.043 239.928C135.051 239.934 135.06 239.938 135.07 239.942C135.337 240.097 135.626 240.174 135.936 240.176C136.244 240.174 136.533 240.097 136.801 239.942C137.324 239.635 137.652 239.064 137.652 238.46C137.652 237.855 137.324 237.284 136.801 236.979C136.533 236.824 136.244 236.745 135.936 236.745ZM216.418 234.505L216.366 234.504C216.16 234.496 215.969 234.538 215.792 234.633C215.608 234.693 215.447 234.796 215.311 234.941L215.028 235.178L214.946 235.244C214.933 235.255 214.919 235.267 214.906 235.279C214.716 235.47 214.587 235.695 214.513 235.954C214.49 236.104 214.47 236.251 214.455 236.4C214.412 236.788 214.641 237.185 214.893 237.46C215.028 237.605 215.189 237.708 215.375 237.77C215.554 237.863 215.747 237.905 215.953 237.898C216.374 237.861 216.773 237.772 217.075 237.446C217.11 237.407 217.143 237.367 217.178 237.326L217.42 237.047C217.604 236.861 217.732 236.642 217.802 236.39C217.821 236.257 217.839 236.125 217.856 235.993C217.874 235.596 217.68 235.224 217.42 234.941C217.18 234.679 216.773 234.519 216.418 234.505ZM226.201 230.425C224.186 230.425 224.19 233.55 226.201 233.55C228.215 233.55 228.211 230.425 226.201 230.425ZM124.866 226.044L124.803 226.045C124.469 226.047 124.157 226.13 123.868 226.299L123.493 226.587C123.264 226.82 123.105 227.091 123.016 227.405C122.994 227.569 122.973 227.734 122.95 227.897C122.94 228.153 122.994 228.391 123.111 228.612C123.184 228.84 123.312 229.04 123.493 229.209C123.661 229.389 123.859 229.517 124.089 229.59C124.31 229.706 124.549 229.761 124.803 229.751C125.138 229.749 125.45 229.666 125.739 229.497C125.864 229.4 125.988 229.304 126.114 229.209C126.326 228.994 126.477 228.746 126.568 228.463L126.589 228.391L126.657 227.897C126.667 227.643 126.613 227.405 126.496 227.184C126.423 226.953 126.295 226.756 126.114 226.587C125.946 226.407 125.746 226.279 125.518 226.206C125.315 226.099 125.098 226.044 124.866 226.044ZM133.944 220.194C133.764 220.188 133.597 220.225 133.44 220.306C133.279 220.359 133.14 220.45 133.022 220.575C132.771 220.775 132.619 221.174 132.619 221.498C132.619 221.821 132.771 222.221 133.022 222.42C133.184 222.581 133.376 222.693 133.597 222.755L133.944 222.802C134.281 222.817 134.624 222.641 134.865 222.42C134.913 222.376 134.96 222.331 135.008 222.288C135.227 222.087 135.322 221.786 135.336 221.498C135.341 221.345 135.308 221.201 135.239 221.068C135.194 220.928 135.117 220.81 135.008 220.707C134.96 220.665 134.913 220.62 134.865 220.575C134.603 220.333 134.297 220.211 133.944 220.194ZM76.4278 209.773C75.1543 208.222 75.8958 207.118 77.8096 207.502C81.1061 207.948 84.2086 210.03 87.112 211.524C90.2808 213.197 93.5466 214.577 96.779 216.149C95.4452 216.968 94.4534 218.249 93.6956 219.712C92.183 218.563 90.2494 218.014 88.362 217.943C84.9377 214.664 79.267 213.914 76.4278 209.773ZM226.879 214.921C226.534 214.922 226.21 215.003 225.907 215.165L225.843 215.201L225.428 215.523C225.226 215.709 225.085 215.93 225.001 216.184C224.874 216.428 224.815 216.693 224.825 216.976C224.815 217.259 224.874 217.522 225.001 217.766C225.085 218.022 225.226 218.241 225.428 218.427C225.542 218.576 225.689 218.692 225.866 218.778C226.031 218.846 226.193 218.915 226.358 218.985C226.542 219.043 226.755 219.051 226.955 219.061C227.317 219.059 227.654 218.968 227.969 218.785L228.376 218.472C228.571 218.289 228.711 218.074 228.792 217.825C228.908 217.604 228.966 217.369 228.966 217.118L228.965 217.05C228.965 217.034 228.965 217.017 228.963 216.999C228.94 216.817 228.914 216.635 228.889 216.453C228.825 216.185 228.703 215.951 228.521 215.753C228.474 215.66 228.412 215.585 228.333 215.523C228.077 215.267 227.775 215.093 227.426 214.994C227.244 214.971 227.062 214.945 226.879 214.921ZM136.957 209.787L136.898 209.788C136.636 209.788 136.394 209.854 136.169 209.984C136.07 210.06 135.973 210.135 135.876 210.211C135.696 210.391 135.572 210.604 135.504 210.848L135.452 211.231C135.446 211.431 135.487 211.615 135.578 211.788C135.636 211.966 135.735 212.121 135.876 212.253C136.006 212.394 136.161 212.493 136.341 212.551C136.512 212.642 136.698 212.683 136.898 212.675C137.157 212.675 137.402 212.609 137.626 212.477C137.723 212.404 137.822 212.328 137.919 212.253C138.082 212.087 138.2 211.895 138.271 211.676L138.289 211.615L138.341 211.231C138.349 211.032 138.308 210.848 138.217 210.676C138.159 210.496 138.058 210.34 137.919 210.211C137.787 210.069 137.632 209.97 137.454 209.912C137.299 209.83 137.132 209.789 136.957 209.787ZM215.552 207.689L215.484 207.69C215.098 207.692 214.74 207.789 214.406 207.983C214.263 208.093 214.119 208.204 213.976 208.316C213.711 208.581 213.528 208.895 213.426 209.257L213.35 209.823C213.339 210.118 213.401 210.391 213.534 210.645C213.619 210.91 213.767 211.139 213.976 211.332C214.168 211.54 214.397 211.687 214.662 211.772C214.916 211.906 215.189 211.968 215.484 211.956C215.87 211.956 216.228 211.859 216.561 211.666C216.705 211.555 216.848 211.443 216.993 211.332C217.257 211.065 217.439 210.751 217.542 210.391L217.618 209.823C217.629 209.531 217.567 209.256 217.434 209.002C217.348 208.738 217.201 208.508 216.993 208.316C216.8 208.107 216.571 207.959 216.306 207.874C216.071 207.751 215.82 207.69 215.552 207.689ZM143.791 202.362C143.615 202.316 143.438 202.316 143.262 202.362C142.999 202.374 142.752 202.453 142.524 202.599L142.122 202.909C142.117 202.914 142.111 202.92 142.105 202.928C141.863 203.172 141.694 203.461 141.601 203.792L141.531 204.313C141.522 204.583 141.578 204.834 141.7 205.067C141.773 205.291 141.893 205.485 142.059 205.653L142.122 205.716C142.303 205.91 142.514 206.047 142.76 206.127C142.915 206.218 143.084 206.262 143.262 206.262C143.526 206.322 143.791 206.311 144.055 206.227C144.212 206.159 144.371 206.094 144.529 206.028L144.58 205.999C145.179 205.671 145.549 204.986 145.549 204.313C145.549 203.641 145.179 202.953 144.58 202.626C144.562 202.618 144.547 202.608 144.529 202.599C144.301 202.453 144.055 202.374 143.791 202.362Z"
        fill="black" />
    <path fill-rule="evenodd" clip-rule="evenodd"
        d="M134.967 151.963C133.766 143.303 136.33 134.945 139.651 127.029C139.833 126.547 140.123 126.13 140.495 125.833C149.867 106.948 163.64 105.238 182.853 106.538C183.42 106.526 183.454 106.536 183.885 106.343C183.956 98.6714 192.721 94.6077 199.391 97.1389C228.971 110.881 219.67 149.567 213.783 174.824C211.683 184.601 209.583 194.377 207.482 204.154C207.412 204.481 207.263 204.764 207.065 205.002C207.37 205.118 207.676 205.226 207.975 205.328C208.658 205.561 208.387 206.579 207.676 206.414C206.978 206.252 206.307 206.035 205.642 205.799C204.606 206.024 203.738 205.347 202.924 204.808C193.4 201.042 189.401 188.668 186.958 179.552C177.026 186.558 161.155 191.805 149.798 185.505C139.157 179.099 135.325 165.736 136.081 153.941C135.304 153.584 134.991 152.805 134.971 151.993H134.966C134.966 151.983 134.967 151.973 134.967 151.963Z"
        fill="white" />
    <path fill-rule="evenodd" clip-rule="evenodd"
        d="M202.12 97.8602C199.924 96.4382 197.105 95.9089 194.518 96.0126C193.138 96.0678 191.85 96.4117 190.578 96.9282C189.399 97.4071 188.359 98.095 187.211 98.6193C187.142 98.6511 187.194 98.7489 187.26 98.7355C188.62 98.4612 190.216 98.6269 191.594 98.8233L191.732 98.8431C193.086 99.0397 194.465 99.1414 195.801 99.4535C198.261 100.028 200.549 101.281 201.899 103.459C203.662 106.305 204.114 109.988 203.925 113.27C203.83 114.931 203.503 116.565 202.993 118.149C202.686 119.099 201.975 120.055 201.642 121.052C201.39 120.58 201.129 120.113 200.858 119.651C202.09 119.071 202.435 117.458 202.499 116.003C202.689 115.82 202.811 115.554 202.815 115.311C202.826 114.656 202.672 114.064 202.41 113.521C202.26 111.986 201.943 110.454 201.397 109.015C199.255 103.364 193.604 98.2711 187.196 98.7743C185.434 98.9126 183.721 99.6602 182.81 101.25C182.078 102.526 182.073 104.066 182.578 105.423C182.728 105.826 182.922 106.19 183.151 106.522C182.459 106.346 181.765 106.178 181.072 106.011C178.67 105.432 176.256 104.979 173.796 104.726C170.446 104.383 167.027 104.903 163.958 106.239C163.116 106.456 162.278 106.688 161.445 106.936C157.78 108.029 154.021 109.455 151.061 111.949C149.699 113.096 148.724 114.43 147.933 115.896C144.97 118.537 142.137 121.53 140.137 124.955C136.016 132.01 135.032 140.738 134.863 148.759C134.707 156.128 135.354 163.573 136.736 170.813C137.363 174.099 138.377 177.152 140.428 179.847C142.711 182.848 145.757 185.212 149.175 186.798C156.134 190.028 164.746 190.498 171.51 186.496C173.544 185.293 171.712 182.156 169.657 183.329C162.98 187.138 154.458 186.268 148.033 182.229C145.319 180.523 142.98 178.191 141.494 175.334C140.409 173.247 139.943 170.855 139.54 168.525L139.326 167.279C138.081 160.115 137.518 152.766 137.818 145.499C138.116 138.249 139.267 130.397 143.374 124.233C145.541 120.982 148.304 118.134 151.206 115.538C151.41 115.355 151.615 115.173 151.819 114.992C152.953 114.311 154.129 113.716 155.286 113.208L155.532 113.102C156.197 112.818 157.128 112.452 157.991 112.159C159.225 111.74 160.479 111.368 161.739 111.033C162.399 110.858 163.062 110.696 163.727 110.542C163.495 110.755 163.265 110.969 163.038 111.189C161.966 112.231 161.115 113.469 160.098 114.561C159.983 114.684 160.128 114.864 160.274 114.789C161.821 113.996 163.535 113.483 165.15 112.84C166.677 112.233 168.16 111.533 169.66 110.863C170.035 110.695 170.409 110.515 170.783 110.337C172.258 110.352 173.732 110.387 175.204 110.471C173.425 111.737 171.8 113.233 170.455 114.873C170.344 115.008 170.445 115.224 170.632 115.177C173.448 114.455 176.127 113.396 178.804 112.285L180.085 111.752C181.027 111.705 181.97 111.683 182.913 111.696L183.37 111.704C184.36 111.723 185.348 111.762 186.329 111.912C186.562 111.948 186.791 111.981 187.018 112.012C188.399 112.576 189.728 113.255 190.923 114.15L190.612 114.132C188.721 114.024 186.794 114.187 184.963 114.675C181.406 115.623 178.371 117.907 176.163 120.818C176.097 120.906 176.225 121.027 176.312 120.968C179.09 119.066 182.313 118.108 185.615 117.588C187.211 117.336 188.854 117.25 190.466 117.375C191.8 117.479 193.18 117.948 194.507 117.72C194.869 118.171 195.216 118.635 195.551 119.109C195.375 119.098 195.199 119.088 195.021 119.079C193.115 118.99 191.173 119.112 189.312 119.551C185.594 120.427 182.488 122.658 179.646 125.108C179.59 125.156 179.662 125.243 179.723 125.208C182.805 123.43 186.387 122.898 189.879 122.578C191.637 122.416 193.415 122.343 195.177 122.483C195.984 122.547 196.782 122.68 197.587 122.763C197.652 122.77 197.72 122.771 197.787 122.774C198.37 123.874 198.899 124.994 199.376 126.11C197.92 125.719 196.349 125.514 194.845 125.615C191.791 125.821 188.762 127.221 186.324 129.011C186.248 129.067 186.291 129.216 186.394 129.177C189.048 128.175 191.678 128.167 194.448 128.553C195.746 128.735 197.031 128.981 198.285 129.367C198.916 129.561 199.539 129.773 200.138 130.051C200.41 130.178 200.674 130.325 200.942 130.464C201.155 131.19 201.347 131.923 201.519 132.66C196.993 132.915 192.729 135.051 189.018 137.502C188.928 137.562 188.984 137.727 189.095 137.685C191.31 136.849 193.72 136.463 196.07 136.238C198.124 136.041 200.141 136.148 202.184 136.206C202.293 136.982 202.382 137.76 202.446 138.54C202.117 138.632 201.795 138.731 201.485 138.824C200.466 139.13 199.449 139.542 198.498 140.02C196.566 140.99 195.001 142.302 193.426 143.76C193.343 143.837 193.429 144.003 193.54 143.958C195.369 143.219 197.366 142.746 199.291 142.327C200.286 142.111 201.283 141.911 202.286 141.727C202.383 141.709 202.481 141.694 202.58 141.68C202.589 143.458 202.489 145.236 202.267 147L202.224 147.33C202.104 148.223 202.202 149.086 202.793 149.703C201.976 149.16 201.04 148.783 200.003 148.639C197.272 148.259 194.743 149.35 193.025 151.459C192.945 151.558 193.069 151.688 193.166 151.601C194.834 150.117 197.404 149.855 199.475 150.553C201.392 151.2 202.834 152.743 203.412 154.675C204.026 156.727 203.744 158.993 202.625 160.823C202.067 161.735 201.261 162.549 200.253 162.95C200.129 163 200.002 163.041 199.874 163.077C199.266 162.855 198.611 162.955 197.985 163.237L197.904 163.275C197.504 163.273 197.107 163.261 196.721 163.264C195.969 163.272 195.608 164.069 195.923 164.663C195.744 164.991 195.613 165.359 195.456 165.68C195.172 166.259 194.875 166.835 194.576 167.407C194.153 167.891 193.75 168.393 193.476 168.978C193.363 169.218 193.257 169.478 193.176 169.739C192.941 170.092 192.702 170.444 192.457 170.793C191.667 171.922 190.834 172.992 189.91 174.017C189.355 174.633 188.717 175.183 188.129 175.773C187.951 175.797 187.776 175.918 187.721 176.093L187.673 176.26C187.484 176.473 187.303 176.693 187.14 176.927C186.778 177.446 186.877 177.972 187.195 178.352C186.691 181.493 187.034 184.836 187.708 187.882C188.144 189.85 188.652 191.817 189.335 193.716C189.682 194.681 190.103 195.608 190.683 196.456C191.002 196.921 191.417 197.462 191.882 197.904C191.952 198.418 192.044 198.929 192.176 199.429C193.736 205.357 200.123 207.161 205.471 207.919C206.503 208.064 207.525 207.815 208.087 206.854C208.217 206.632 208.304 206.393 208.351 206.147C208.584 206.085 208.808 205.976 209.009 205.819C209.042 206.191 209.081 206.564 209.13 206.94C209.252 207.882 210.524 208.166 210.843 207.172C212.188 202.979 212.919 198.558 213.841 194.25C214.761 189.95 215.788 185.674 216.739 181.381L217.943 175.963C220.88 162.697 223.63 149.26 222.955 135.616C222.587 128.168 221.22 120.739 218.294 113.856C215.856 108.123 211.742 101.681 205.097 100.509C205.051 100.501 205.011 100.506 204.973 100.515C204.184 99.4894 203.241 98.586 202.12 97.8602ZM198.11 169.975C197.574 171.752 197.192 173.574 196.984 175.433C196.637 178.532 196.809 181.706 196.959 184.813C197.098 187.668 197.427 190.547 197.987 193.35C198.524 196.042 199.366 198.68 200.618 201.129C200.821 201.525 201.039 201.91 201.267 202.288C200.575 202.058 199.95 201.789 199.298 201.417C198.479 200.948 197.729 200.343 197.319 199.706C196.66 198.683 196.439 197.547 196.343 196.328C196.095 193.193 195.981 190.048 195.823 186.908L195.788 186.224C195.532 181.318 195.197 176.286 195.697 171.374C196.401 171.189 197.036 170.826 197.622 170.371C197.784 170.246 197.947 170.113 198.11 169.975ZM203.462 164.033C203.314 165.526 203.173 167.018 203.044 168.512C202.59 173.815 202.309 179.147 202.568 184.469C202.702 187.24 202.972 190.018 203.439 192.754C203.65 193.987 203.904 195.22 204.189 196.44L204.284 196.846C204.573 198.054 204.757 199.564 205.681 200.443L205.674 200.625C205.025 199.641 204.425 198.534 203.996 197.504C202.081 192.915 201.731 187.919 201.385 183.025C201.172 180.009 201.014 176.989 200.767 173.976L200.648 172.526C200.51 170.838 200.392 169.163 200.408 167.477C200.777 166.927 201.076 166.349 201.262 165.756C201.292 165.661 201.313 165.564 201.327 165.468C202.107 165.098 202.841 164.594 203.462 164.033ZM192.982 174.534C192.597 175.814 192.283 177.11 192.06 178.411C191.704 180.483 191.49 182.567 191.396 184.658L191.199 183.92C190.705 182.072 190.179 180.221 189.527 178.427C190.558 177.706 191.419 176.573 192.168 175.626C192.448 175.272 192.72 174.907 192.982 174.534ZM207.744 117.626C208.14 118.904 208.486 120.197 208.844 121.485C209.685 124.513 210.231 127.623 210.609 130.739C212.12 143.181 210.862 155.672 209.216 168.033C208.534 173.154 207.792 178.268 207.156 183.395C207.139 182.892 207.125 182.389 207.116 181.886C206.922 171.003 208.755 160.272 209.489 149.445L209.533 148.786C209.865 143.723 210.069 138.567 209.467 133.523C209.157 130.927 208.611 128.386 207.885 125.877L207.453 124.404C207.161 123.413 206.85 122.396 206.482 121.41C206.531 121.315 206.578 121.22 206.621 121.124C207.131 120.004 207.486 118.826 207.744 117.626ZM206.467 102.96C210.271 107.862 213.463 113.069 215.394 119.059C219.813 132.767 218.826 147.425 216.265 161.399C215.059 167.982 213.502 174.489 212.082 181.027C213.602 169.287 215.562 157.572 215.874 145.719C216.045 139.249 215.71 132.75 214.518 126.38L214.448 126.006C213.937 123.314 213.304 120.462 212.008 118.043C211.305 116.729 210.528 115.504 209.607 114.33C209.219 113.836 208.783 113.439 208.32 113.076C208.456 109.697 207.945 106.032 206.467 102.96ZM200.262 155.191C198.37 155.265 196.479 155.793 194.989 157.023C193.823 157.984 195.486 159.609 196.642 158.675C197.899 157.659 199.027 156.505 200.367 155.58C200.527 155.47 200.483 155.182 200.262 155.191ZM203.401 150.151C203.822 150.368 204.24 150.411 204.716 150.294C204.734 150.29 204.751 150.285 204.767 150.28L204.864 150.249C204.823 150.7 204.779 151.151 204.736 151.602C204.351 151.06 203.905 150.57 203.401 150.151ZM205.285 122.932C205.452 124.331 205.561 125.737 205.619 127.145C205.676 128.516 205.699 129.892 205.706 131.268L205.707 131.857L205.705 131.846C205.054 129.071 204.134 126.341 202.959 123.728C203.161 123.761 203.367 123.756 203.569 123.731C204.032 123.675 204.476 123.47 204.873 123.23C205.018 123.143 205.153 123.04 205.285 122.932ZM185.983 106.719C186.792 107.085 187.573 107.505 188.384 107.862C189.994 108.57 191.569 109.394 193.058 110.328C194.566 111.274 196.018 112.27 197.353 113.45C197.51 113.589 197.665 113.729 197.82 113.868C197.851 114.173 197.873 114.48 197.884 114.788C197.889 114.955 197.89 115.128 197.887 115.307C195.367 112.186 192.321 109.724 188.455 108.175C187.786 107.907 187.105 107.668 186.417 107.446C186.254 107.219 186.107 106.978 185.983 106.719ZM186.055 103.726C186.504 103.13 187.796 103.178 188.611 103.311C189.928 103.526 191.088 103.987 192.217 104.653C193.551 105.44 194.702 106.507 195.603 107.762C195.159 107.512 194.708 107.276 194.247 107.057L193.931 106.908C192.185 106.09 190.293 105.312 188.383 105.058C187.499 104.941 186.549 104.771 185.656 104.866C185.7 104.433 185.829 104.026 186.055 103.726Z"
        fill="black" />
    <path fill-rule="evenodd" clip-rule="evenodd"
        d="M155.239 169.495C154.942 168.978 154.257 168.5 153.631 168.573C150.825 168.902 150.83 172.303 151.913 174.288C152.874 176.049 154.862 177.082 156.852 176.931C158.942 176.773 160.724 175.544 161.508 173.589C162.026 172.296 162.266 169.908 160.886 169.039C160.861 169.023 160.819 169.027 160.798 169.051C160.137 169.82 160.111 170.974 159.532 171.83C158.994 172.627 158.157 173.284 157.177 173.386C156.446 173.462 155.705 173.198 155.419 172.541C155.264 172.186 155.282 171.993 155.34 171.748L155.393 171.536C155.576 170.792 155.659 170.225 155.239 169.495ZM154.489 154.58C153.025 155.469 150.795 157.543 152.37 159.748C154.223 161.692 156.891 159.463 158.206 158.455C159.425 157.674 160.795 159.683 159.664 160.595C150.163 167.627 146.307 154.813 153.749 153.534C154.568 153.394 154.872 154.305 154.489 154.58ZM169.943 148.482C169.045 147.135 166.994 147.333 166.5 148.932C166.232 149.798 166.602 150.577 166.583 151.441C166.566 152.172 166.614 152.986 166.838 153.694C167.349 155.307 168.801 156.447 170.518 156.4C172.23 156.352 173.737 155.269 174.454 153.744C175.173 152.213 175.021 150.628 174.496 149.071C174.471 148.997 174.373 148.96 174.313 149.023C173.693 149.683 173.238 150.379 172.768 151.118L172.286 151.875C171.918 152.445 171.383 153.173 170.695 153.127L170.592 153.117C170.401 153.1 170.43 153.138 170.283 152.878C170.214 152.757 170.227 152.533 170.194 152.391L170.182 152.343L170.189 152.317C170.203 152.248 170.218 152.119 170.229 151.893L170.232 151.844C170.282 150.79 170.579 149.437 169.943 148.482ZM147.173 149.379C147.334 147.656 144.911 147.273 144.105 148.548C143.685 149.213 143.563 150.048 143.47 150.84L143.426 151.215C143.331 152.028 143.293 152.874 143.646 153.632C144.202 154.826 145.411 155.457 146.714 155.357C147.96 155.261 149.096 154.54 149.695 153.444C150.228 152.466 150.759 150.558 150.111 149.538C150.072 149.476 149.993 149.468 149.94 149.516C149.327 150.06 149.227 151.052 148.863 151.76C148.487 152.491 147.917 153.203 147.053 153.314C146.227 153.42 145.911 152.969 146.122 152.182C146.394 151.165 147.071 150.473 147.173 149.379ZM169.288 138.238L168.892 138.086C167.534 137.574 165.67 136.981 164.566 138.085C163.885 138.765 163.756 139.768 164.242 140.598C164.831 141.604 165.887 141.629 166.907 141.777C168.068 141.946 169.248 142.266 170.328 142.723C171.545 143.238 172.674 143.88 173.78 144.596C174.832 145.277 175.88 146.39 177.138 146.6C177.19 146.609 177.248 146.587 177.261 146.53C177.547 145.3 176.753 144.089 176.044 143.129C175.186 141.967 174.147 141.014 172.985 140.159C171.864 139.333 170.583 138.736 169.288 138.238ZM144.624 142.612L144.503 142.591C143.68 142.454 142.933 142.485 142.313 143.137C141.839 143.634 141.657 144.279 141.882 144.937C142.091 145.543 142.557 146.159 143.233 146.287C145.516 146.716 148.044 146.645 150.338 146.32C151.388 146.171 152.447 145.989 153.47 145.702L153.94 145.566C154.793 145.322 155.771 145.067 156.391 144.44C156.613 144.214 156.485 143.891 156.218 143.787C155.136 143.363 153.654 143.589 152.5 143.556C151.158 143.517 149.814 143.417 148.479 143.278C147.174 143.143 145.911 142.848 144.624 142.612Z"
        fill="black" />
    <path fill-rule="evenodd" clip-rule="evenodd"
        d="M140.402 142.703C135.612 142.703 132.879 143.778 131.877 143.861L131.847 143.864C131.43 143.891 131.056 143.928 130.664 144.086C129.222 144.665 128.987 146.244 129.829 147.238C129.888 149.296 129.629 151.701 130.074 153.766C130.623 162.47 134.545 163.938 136.775 164.474C137.894 164.744 139.221 164.851 140.41 164.567C142.439 164.488 144.444 163.825 146.16 162.671C148.55 161.063 150.325 158.591 150.9 155.657C151.173 154.259 151.301 152.803 151.152 151.382L151.13 151.186C151.907 150.798 152.807 150.725 153.735 150.691C154.178 150.674 154.615 150.659 155.04 150.679C155.454 150.727 155.864 150.792 156.275 150.88C156.724 151.021 157.148 151.254 157.54 151.624L157.567 152.163C157.64 153.51 157.81 154.861 158.071 156.183C158.457 158.133 159.078 159.996 160.4 161.379C160.847 162.076 161.401 162.699 162.072 163.238C164.513 165.199 167.83 165.919 170.873 165.648C177.052 165.097 180.624 159.979 181.447 157.791L181.496 157.659C182.091 156.032 182.564 153.922 184.443 153.572L184.843 153.497C185.7 153.329 186.491 153.096 186.994 152.223C187.214 151.842 187.328 151.415 187.356 150.981C187.649 151.004 187.942 151.027 188.234 151.049C190.562 151.562 204.527 151.998 205.641 151.998C205.641 151.998 207.784 152.939 208.689 152.21C209.316 151.703 209.522 151.027 209.177 150.262C208.656 149.11 206.253 148.417 205.186 148.198C205.186 148.198 187.969 148.347 186.73 148.102C185.963 147.277 184.592 147.39 183.446 147.259C182.497 146.553 181.17 146.08 180.121 145.764C179.908 145.68 179.696 145.598 179.49 145.521C177.569 144.807 175.571 144.428 173.543 144.225C171.451 144.018 169.354 144.112 167.275 144.409C166.398 144.533 165.53 144.693 164.668 144.903C163.125 145.115 161.591 145.465 160.047 145.88L159.738 145.964C158.112 146.409 156.442 146.793 154.759 146.492C153.388 146.248 152.071 145.698 150.808 145.103L150.643 145.025C147.865 143.701 143.528 142.703 140.402 142.703ZM164.836 147.542C165.86 147.306 166.298 148.955 165.27 149.191C164.542 149.358 163.925 149.741 163.508 150.39L163.464 150.461C162.905 151.39 161.49 150.532 162.053 149.597C162.687 148.545 163.672 147.808 164.836 147.542ZM134.818 146.519C135.179 146.254 135.726 146.451 135.936 146.826C136.167 147.24 136.015 147.7 135.677 147.97L135.642 147.996C135.332 148.225 135.03 148.634 134.992 149.053L134.988 149.106C134.948 150.203 133.314 150.208 133.354 149.106C133.394 148.027 133.993 147.125 134.818 146.519Z"
        fill="black" />
    <path fill-rule="evenodd" clip-rule="evenodd"
        d="M345.087 207.98C343.305 201.069 341.665 198.139 338.498 195.736C335.536 193.489 331.211 191.602 324.902 190.223C318.33 189.075 318.144 185.661 316.496 180.174C316.015 178.525 313.633 178.086 312.605 179.275C312.46 179.119 312.309 178.976 312.152 178.846C312.292 178.059 311.146 175.804 311.185 175.052C311.585 167.197 309.014 163.253 302.598 161.787C301.203 161.468 291.726 161.28 290.366 161.656C284.418 163.3 278.564 168.517 279.46 174.803C277.593 177.241 275.766 178.73 272.886 179.515C266.476 180.329 260.067 181.052 253.656 181.672C241.106 183.639 229.339 190.279 221.297 199.961C220.556 200.855 220.341 202.069 220.996 203.022C220.483 205.217 217.596 210.542 219.868 212.047C216.133 220.976 207.539 238.234 207.522 243.164C207.455 263.876 209.693 290.837 230.143 302.299C230.961 303.103 231.079 303.993 231.433 305.19C232.332 308.961 235.597 311.656 239.171 311.436C256.776 311.827 273.828 309.68 291.433 309.576C299.197 309.53 308.534 310.688 315.278 311.46C322.023 312.232 328.831 311.549 335.304 309.576C335.849 310.435 336.952 310.936 338.072 310.688C344.782 309.357 350.208 305.224 354.934 300.707C356.378 298.081 362.018 290.599 359.776 287.995C361.808 279.409 361.702 270.183 358.092 262.007C358.603 260.508 357.67 258.861 358.092 257.313C358.396 256.193 359.176 255.73 359.569 254.621C360.123 253.06 359.521 250.967 358.899 249.374C358.643 248.581 359.368 247.726 359.569 246.916C360.525 243.096 358.337 243.433 356.761 240.878C356.784 240.871 357.195 239.048 357.192 239.057C357.434 237.755 356.83 236.087 356.302 235.001C355.945 234.266 355.182 233.807 354.422 233.891C355.187 231.298 356.153 229.14 357.192 226.643C359.03 222.239 361.357 218.022 363.996 214.036C365.078 212.404 363.626 210.514 361.877 210.402C356.215 210.043 350.617 209.228 345.087 207.98Z"
        fill="white" />
    <path fill-rule="evenodd" clip-rule="evenodd"
        d="M328.565 241.281C326.302 240.393 323.863 239.903 321.413 239.712C322.732 239.481 324.055 239.258 325.389 239.144C326.32 239.064 327.182 239.072 327.882 239.778C328.348 240.248 328.568 240.853 328.875 241.41C328.774 241.364 328.67 241.322 328.565 241.281ZM352.869 232.983C349.161 233.172 345.449 234.053 342.094 235.649C340.722 236.304 339.478 237.248 339.113 238.802C338.93 239.596 338.975 240.416 339.072 241.218C339.147 241.824 339.164 242.6 339.692 243.01C339.782 243.08 339.878 243.133 339.979 243.172C338.741 243.73 337.563 244.401 336.516 245.092C335.559 245.723 334.575 246.697 334.133 247.795C334.096 247.67 334.059 247.554 334.022 247.443C333.27 245.219 332.11 243.397 330.283 242.172C330.607 242.027 330.83 241.684 330.725 241.209C330.292 239.228 328.461 237.506 326.393 237.629C324.129 237.761 321.697 238.586 319.649 239.626C318.903 239.61 318.158 239.62 317.422 239.653C317.295 239.657 317.301 239.829 317.422 239.843C318.019 239.919 318.617 240.002 319.213 240.1C320.633 240.328 322.049 240.616 323.433 240.974C325.095 241.404 326.813 241.835 328.365 242.586C331.376 244.043 333.239 247.855 332.857 251.171C332.793 251.715 332.582 253.359 331.827 253.19C331.189 253.046 330.936 251.715 330.713 251.222C330.116 249.913 329.04 249.059 327.749 248.48C326.234 247.799 324.612 247.339 323.04 246.804C322.151 246.499 321.261 246.194 320.369 245.891C319.457 245.578 318.59 245.147 317.618 245.366C317.031 245.499 316.964 246.198 317.293 246.599C317.794 247.21 318.539 247.39 319.26 247.642C320.214 247.973 321.165 248.305 322.116 248.636C323.587 249.146 325.127 249.578 326.56 250.204L326.516 250.306C326.399 250.274 326.262 250.39 326.285 250.533C326.499 251.856 326.798 253.386 326.467 254.711C326.205 255.762 325.282 256.925 324.084 256.617C324.272 256.445 324.341 256.148 324.215 255.874C323.74 254.86 317.522 250.856 316.968 252.343C316.95 252.396 317.007 252.434 317.052 252.427C317.524 252.329 318.316 253.134 318.694 253.39C319.24 253.758 319.794 254.117 320.335 254.496C320.926 254.909 321.502 255.343 322.065 255.79C322.506 256.142 322.84 256.508 323.347 256.686C323.081 256.813 322.871 257.047 322.781 257.348C322.552 258.131 322.11 258.796 321.343 259.142C320.539 259.501 319.633 259.274 318.786 259.362C317.633 259.479 316.626 260.027 315.785 260.81C314.02 262.458 313.134 265.362 310.666 266.14C309.191 266.605 307.555 266.312 306.062 266.102C304.394 265.867 302.77 265.681 301.091 265.926C299.484 266.161 297.963 266.717 296.495 267.396C295.119 268.032 293.597 268.752 292.376 269.701C292.124 268.925 291.87 268.159 291.678 267.367C291.224 265.497 290.979 263.591 290.919 261.669C290.864 259.839 290.966 258 291.124 256.178C291.201 255.269 291.325 254.363 291.402 253.453C291.422 253.224 291.464 252.978 291.494 252.734C293.675 251.447 295.965 250.461 298.274 249.447C298.281 249.446 298.287 249.441 298.293 249.44C298.365 249.406 298.435 249.376 298.506 249.345C298.504 249.341 298.502 249.337 298.497 249.332C298.761 249.172 298.946 248.957 299.056 248.716C302.384 246.509 305.166 243.497 307.24 239.984C308.109 238.512 308.946 236.984 310.083 235.694C311.294 234.318 312.731 233.5 314.512 233.075C316.592 232.577 318.735 232.277 320.866 232.108C322.03 232.016 323.331 231.873 324.599 231.879C325.483 231.885 326.348 231.961 327.141 232.179C328.318 232.503 329.005 233.396 329.744 234.3C330.449 235.167 331.151 236.036 331.81 236.94C332.433 237.796 333.022 238.681 333.534 239.61C333.84 240.166 334.125 240.739 334.364 241.33C334.448 241.539 334.559 241.775 334.61 241.992C334.661 242.211 334.566 242.442 334.812 242.442C333.799 242.456 333.809 244.074 334.816 244.015C338.755 243.786 333.112 236.098 332.287 235.026C331.12 233.509 329.916 231.529 328.046 230.824C328.019 230.813 327.99 230.803 327.964 230.795C328.508 230.28 328.937 229.662 329.349 229.035C329.772 228.388 330.277 227.648 330.417 226.881C330.505 226.393 329.897 226.115 329.609 226.542C329.189 227.166 328.987 227.955 328.673 228.64C328.355 229.336 327.966 229.992 327.659 230.692C326.921 230.466 326.123 230.362 325.311 230.327C326.336 228.941 328.087 226.266 328.297 225.923C329.267 224.332 330.19 222.692 331.071 221.05C332.024 219.271 332.841 217.418 333.752 215.619C334.27 214.599 334.792 213.57 335.367 212.58C335.565 212.241 335.777 211.902 336.019 211.593C336.066 211.532 336.125 211.481 336.181 211.423C336.243 211.389 336.31 211.349 336.346 211.329C336.678 211.139 336.794 210.697 337.027 210.417C337.399 209.965 337.838 209.912 338.397 209.906C339.592 209.893 340.791 209.94 341.983 209.973C343.736 210.022 345.487 210.092 347.238 210.184C347.768 210.213 348.296 210.241 348.825 210.274C351.372 210.426 353.916 210.623 356.455 210.867C358.7 211.082 360.946 211.431 363.194 211.599C360.151 218.827 356.776 225.924 352.955 232.774C352.916 232.844 352.887 232.913 352.869 232.983ZM335.982 251.605C335.491 251.829 335.015 252.109 334.57 252.428C334.644 251.931 334.663 251.408 334.643 250.883C335.009 251.275 335.477 251.5 335.982 251.605ZM356.938 239.17C356.902 239.174 356.87 239.193 356.854 239.228C356.175 240.628 356.459 242.192 357.568 243.29C358.149 243.863 359.414 244.509 359.373 245.449C359.339 246.21 358.511 246.848 358.156 247.476C357.827 248.061 357.705 248.703 357.969 249.337C358.306 250.149 359.249 250.471 359.572 251.269C359.981 252.281 359.316 253.502 358.85 254.383C358.416 255.199 357.855 256.015 357.483 256.878C354.991 258.168 352.759 260.148 350.84 262.157C348.74 264.356 346.937 266.942 343.601 266.877C343.268 266.87 343.015 267.046 342.863 267.289C341.934 267.333 341.004 267.351 340.075 267.356C338.443 267.363 336.811 267.347 335.181 267.296C335.066 266.901 335.15 266.366 335.144 266.032C335.123 264.959 335.113 263.887 335.068 262.814C335.056 262.515 335.043 262.214 335.031 261.916C335.618 262.977 336.764 263.46 338.069 263.386C340.168 263.264 342.278 262.92 344.356 262.612C345.45 262.45 346.542 262.266 347.633 262.069C348.529 261.91 349.793 261.951 350.419 261.233C350.566 261.065 350.575 260.759 350.343 260.646C349.723 260.341 349.332 260.511 348.651 260.642C347.821 260.804 346.988 260.957 346.154 261.101C344.553 261.378 342.947 261.636 341.337 261.863C340.421 261.992 339.502 262.119 338.584 262.219C337.782 262.305 336.878 262.422 336.232 261.818C334.929 260.599 335.659 258.557 336.483 257.326C336.5 257.301 336.5 257.279 336.493 257.258C337.271 257.076 338.046 256.864 338.819 256.715C340.306 256.428 341.804 256.187 343.303 255.972C346.383 255.532 349.484 255.242 352.58 254.95C353.348 254.876 353.356 253.67 352.58 253.741C348.131 254.148 343.661 254.535 339.272 255.391C338.171 255.604 337.078 255.846 335.993 256.117C335.479 256.244 334.929 256.442 334.391 256.449C334.358 256.449 334.325 256.449 334.293 256.446C333.24 256.414 333.086 255.512 333.664 254.762C333.737 254.67 333.81 254.577 333.886 254.489C334.908 253.271 336.182 252.457 337.496 251.615C338.966 251.414 340.433 250.968 341.873 250.642C345.428 249.832 348.983 249.022 352.54 248.214C353.237 248.055 352.941 246.983 352.243 247.141C349.544 247.753 346.843 248.364 344.144 248.975L340.192 249.871C339.402 250.048 338.416 250.406 337.487 250.535C337.03 250.598 336.585 250.606 336.185 250.513C334.89 250.206 334.824 248.588 335.383 247.628C336.009 246.548 337.191 245.873 338.241 245.262C340.059 244.201 341.994 243.438 343.884 242.559C344.219 242.485 344.554 242.411 344.89 242.337C346.842 241.908 349.071 241.698 350.907 240.911C351.458 240.677 351.157 239.81 350.613 239.822C349.187 239.853 347.696 240.36 346.303 240.661C344.796 240.988 343.286 241.313 341.779 241.638C341.628 241.671 340.732 241.957 340.597 241.894C340.511 241.853 340.48 241.555 340.452 241.358C340.359 240.712 340.292 240.033 340.392 239.385C340.613 237.931 341.826 237.248 343.053 236.69C345.786 235.449 348.783 234.672 351.765 234.361C352.452 234.29 353.139 234.244 353.831 234.222C354.642 234.197 355.312 234.054 355.722 234.854C356.369 236.113 356.725 237.733 356.938 239.17ZM353.143 284.839C352.547 282.781 352.708 280.582 352.301 278.483C352.091 277.399 351.803 276.324 351.489 275.267C351.236 274.413 350.813 273.504 350.766 272.612C350.763 272.553 350.834 272.518 350.881 272.546C351.721 273.026 352.366 274.066 352.846 274.882C353.419 275.858 353.858 276.881 354.21 277.956C354.914 280.098 355.493 282.681 354.584 284.839C354.314 285.481 353.366 285.61 353.143 284.839ZM334.741 257.571C335.244 257.522 335.747 257.426 336.25 257.313C335.688 257.861 335.168 258.522 334.88 259.254C334.835 258.692 334.778 258.131 334.702 257.573C334.714 257.573 334.728 257.573 334.741 257.571ZM329.905 300.423C329.018 299.805 328.371 298.939 327.618 298.175C326.878 297.424 328.036 296.268 328.776 297.019C329.418 297.67 329.975 298.484 330.73 299.011C331.094 299.264 331.262 299.722 331.024 300.13C330.814 300.489 330.268 300.676 329.905 300.423ZM324.956 276.633C326.576 275.933 328.169 275.17 329.864 274.667C330.878 274.365 331.307 275.944 330.299 276.243C328.738 276.708 327.274 277.401 325.783 278.045C324.825 278.459 323.992 277.049 324.956 276.633ZM307.851 276.143C307.454 275.166 309.038 274.745 309.428 275.708C309.878 276.817 310.393 277.898 310.842 279.006C311.238 279.983 309.655 280.404 309.264 279.441C308.815 278.333 308.299 277.252 307.851 276.143ZM290.967 295.654C290.703 296.005 290.263 296.196 289.847 295.948C289.499 295.739 289.286 295.185 289.554 294.829C290.334 293.789 291.124 292.763 292.038 291.837C292.779 291.086 293.935 292.243 293.195 292.993C292.379 293.82 291.663 294.726 290.967 295.654ZM288.552 186.179C289.304 186.692 289.962 187.316 290.603 187.956C291.349 188.702 290.192 189.859 289.446 189.113C288.905 188.573 288.36 188.024 287.727 187.592C287.36 187.343 287.196 186.878 287.433 186.473C287.645 186.111 288.188 185.93 288.552 186.179ZM313.116 212.503C312.691 213.353 312.309 214.186 312.285 215.153C312.259 216.205 310.623 216.205 310.649 215.153C310.68 213.888 311.146 212.792 311.703 211.678C312.174 210.734 313.585 211.564 313.116 212.503ZM322.128 191.362C323.008 190.776 323.827 192.194 322.955 192.775C322.248 193.246 321.541 193.717 320.834 194.188C319.954 194.774 319.136 193.356 320.008 192.775C320.715 192.304 321.422 191.833 322.128 191.362ZM283.038 228.326C282.887 229.365 281.311 228.921 281.46 227.891C281.69 226.3 281.97 224.729 282.403 223.179C282.685 222.165 284.263 222.599 283.98 223.614C283.549 225.164 283.268 226.735 283.038 228.326ZM277.3 247.064C276.247 247.041 276.247 245.406 277.3 245.428C278.254 245.449 279.191 245.699 280.11 245.928C281.133 246.184 280.697 247.761 279.675 247.505C278.898 247.312 278.107 247.081 277.3 247.064ZM275.183 284.81C274.821 284.986 274.45 285.144 274.084 285.312C273.351 285.646 272.619 285.981 271.888 286.317C270.363 287.017 268.839 287.719 267.317 288.424C264.269 289.834 261.198 291.194 258.143 292.589C255.027 294.012 251.92 295.454 248.817 296.902C247.355 297.585 245.882 298.242 244.411 298.907C243.154 299.475 241.6 300.468 240.22 300.561C240.149 300.566 240.126 300.477 240.166 300.431C240.687 299.838 241.519 299.493 242.204 299.108C242.904 298.714 243.617 298.344 244.327 297.968C245.807 297.185 247.288 296.407 248.782 295.651C251.771 294.139 254.765 292.639 257.759 291.139C260.814 289.61 263.864 288.072 266.945 286.597C268.396 285.903 269.848 285.21 271.3 284.52C272.088 284.147 272.875 283.773 273.663 283.401C274.003 283.24 274.339 283.066 274.687 282.922C275.149 282.731 275.5 282.77 275.977 282.652C276.754 282.46 277.091 283.449 276.494 283.878C276.003 284.233 275.744 284.536 275.183 284.81ZM264.259 301.583C264.091 301.175 264.442 300.679 264.83 300.577C265.295 300.455 265.667 300.737 265.837 301.148C266.285 302.239 266.924 303.24 267.747 304.085C268.482 304.841 267.325 305.998 266.59 305.242C265.559 304.182 264.818 302.944 264.259 301.583ZM256.222 275.326C255.476 274.581 256.633 273.424 257.379 274.17L259.5 276.289C260.246 277.035 259.088 278.192 258.343 277.446L256.222 275.326ZM234.465 271.87C232.94 272.317 231.162 272.728 230.122 274.028C230.072 274.092 229.986 274.01 230.017 273.947C231.348 271.189 235.164 270.221 237.806 269.256C239.675 268.572 241.593 268.005 243.526 267.499C243.333 265.294 243.866 262.93 244.051 260.735C244.249 258.393 244.41 256.043 244.493 253.693C244.577 251.296 244.598 248.882 244.519 246.484C244.44 244.095 244.13 241.735 243.994 239.354C243.981 239.123 244.302 239.112 244.371 239.303C245.174 241.513 245.517 243.96 245.778 246.29C246.048 248.69 246.137 251.084 246.103 253.498C246.067 255.98 245.923 258.457 245.724 260.931C245.631 262.104 245.521 263.276 245.419 264.447C245.34 265.342 245.304 266.229 245.121 267.095C246.288 266.809 247.456 266.538 248.622 266.275C252.337 265.437 256.069 264.659 259.769 263.752C261.585 263.308 263.376 262.775 265.184 262.302C266.886 261.857 268.683 261.316 270.431 261.117C271.055 261.046 271.135 261.899 270.722 262.189C269.301 263.186 267.414 263.881 265.773 264.439C264.126 264.999 262.414 265.402 260.726 265.817C257.205 266.682 253.652 267.39 250.103 268.127C246.56 268.863 243.01 269.594 239.506 270.503C237.819 270.94 236.137 271.379 234.465 271.87ZM226.11 228.108C225.199 228.642 224.376 227.228 225.284 226.695C226.472 225.998 227.738 225.474 229.014 224.964C229.993 224.572 230.415 226.155 229.449 226.541C228.302 227 227.177 227.482 226.11 228.108ZM222.811 288.88C221.897 289.41 221.074 287.996 221.985 287.468C223.264 286.727 224.665 286.233 225.991 285.584C226.934 285.122 227.762 286.534 226.817 286.996C225.491 287.645 224.09 288.14 222.811 288.88ZM221.327 254.383C222.21 255.222 223.389 255.617 224.501 256.058C225.47 256.441 225.045 258.022 224.066 257.635C222.681 257.085 221.27 256.585 220.17 255.54C219.405 254.813 220.564 253.658 221.327 254.383ZM231.098 207.532C232.069 207.914 231.644 209.494 230.663 209.111C229.576 208.684 228.452 208.359 227.364 207.932C226.394 207.552 226.819 205.97 227.8 206.355C228.887 206.781 230.011 207.106 231.098 207.532ZM248.336 188.923C249.367 188.75 249.807 190.326 248.771 190.502C247.485 190.718 246.22 190.972 245.001 191.444C244.016 191.824 243.594 190.242 244.566 189.866C245.785 189.394 247.051 189.14 248.336 188.923ZM254.031 234.232C253.085 233.767 253.915 232.357 254.857 232.82C255.849 233.307 256.878 233.685 257.96 233.915C258.992 234.135 258.552 235.711 257.525 235.492C256.307 235.233 255.147 234.781 254.031 234.232ZM259.411 208.711C260.429 208.432 260.86 210.01 259.846 210.288C258.061 210.777 256.224 211.031 254.426 211.466C253.401 211.714 252.968 210.136 253.991 209.888C255.789 209.453 257.626 209.199 259.411 208.711ZM282.23 200.702C283.266 200.893 282.825 202.469 281.796 202.279C280.7 202.076 279.589 202.073 278.479 202.073C277.424 202.072 277.426 200.436 278.479 200.437C279.741 200.438 280.986 200.471 282.23 200.702ZM356.655 209.247C353.982 208.992 351.305 208.788 348.623 208.635C348.498 208.628 348.375 208.62 348.25 208.614C348.236 208.585 348.218 208.558 348.199 208.53C347.324 207.246 346.68 205.962 346.122 204.51C345.588 203.127 345.07 201.702 344.248 200.455C343.31 199.034 342.044 197.922 340.656 196.959C339.815 197.524 339.034 198.186 338.319 198.889C337.567 199.628 336.409 198.471 337.161 197.732C337.796 197.108 338.475 196.532 339.191 196.011C338.364 195.509 337.519 195.036 336.696 194.566C333.609 192.806 330.449 191.178 327.223 189.689C325.724 188.996 324.207 188.38 322.679 187.757C321.856 187.422 321.045 186.991 320.223 186.602C320.281 186.021 320.108 185.371 319.662 184.988C319.332 184.708 319.077 184.604 318.684 184.406C318.596 184.375 318.543 184.356 318.519 184.346C318.537 184.351 318.59 184.366 318.678 184.396C318.887 184.492 318.902 184.463 318.727 184.312C318.716 183.981 318.064 183.281 317.915 182.94C317.396 181.768 317.234 180.529 316.467 179.462C315.409 177.992 313.634 177.435 311.979 177.934C311.807 176.165 311.762 174.319 311.095 172.741C311.077 172.698 311.017 172.679 310.991 172.726C310.296 173.91 310.236 175.229 310.183 176.595C310.132 177.877 310.181 179.188 310.349 180.462C310.243 180.543 310.134 180.621 310.022 180.696C309.494 181.044 308.925 181.312 308.328 181.51C307.19 181.886 305.999 182.05 304.806 182.108C301.728 182.254 298.555 181.943 295.528 181.416C292.465 180.882 287.772 180.081 285.047 178.55C283.249 177.54 281.591 176.306 279.909 175.113C280.519 173.149 280.674 171.039 280.06 169.381C279.986 169.183 279.676 169.146 279.617 169.381C279.232 170.963 279.119 172.555 278.608 174.119C278.6 174.141 278.592 174.166 278.583 174.188C278.424 174.08 278.264 173.974 278.105 173.867C277.737 173.623 277.236 173.806 277.015 174.153C273.482 179.717 267.888 180.036 262.014 181.03C255.585 182.118 249.123 183.291 242.942 185.42C237.031 187.457 231.381 190.422 226.906 194.851C225.893 195.853 224.945 196.922 224.051 198.037C224.916 198.146 225.774 198.315 226.621 198.582C227.624 198.896 227.193 200.475 226.186 200.159C225.098 199.817 223.997 199.648 222.885 199.563C219.844 203.722 217.473 208.438 215.423 213.079C211.49 221.978 208.93 231.455 207.752 241.104C208.399 240.716 209.058 240.347 209.732 240.004C210.67 239.527 211.497 240.939 210.558 241.416C209.516 241.947 208.503 242.531 207.523 243.164C207.094 247.387 206.928 251.638 207.029 255.882C207.268 265.999 208.634 276.413 211.725 286.067C213.24 290.805 215.249 295.503 218.242 299.507C219.596 301.321 221.134 302.956 222.946 304.32C223.823 304.983 224.752 305.573 225.732 306.072C226.994 306.718 228.638 306.931 229.727 307.846C230.085 308.147 230.361 308.543 230.569 308.991C230.449 309.841 230.434 310.694 230.667 311.544C230.741 311.81 230.942 312.027 231.189 312.131C231.193 312.205 231.193 312.276 231.193 312.346C231.193 312.378 231.242 312.387 231.248 312.354C231.259 312.291 231.269 312.227 231.279 312.162C231.359 312.189 231.443 312.201 231.529 312.201C234.636 312.212 237.746 312.137 240.858 312.031C240.617 311.295 240.356 310.565 240.106 309.828C239.767 308.827 241.347 308.401 241.684 309.393C241.977 310.254 242.283 311.108 242.555 311.972C245.888 311.849 249.221 311.699 252.547 311.59C259.622 311.354 266.695 311.276 273.772 311.128C284.763 310.895 295.833 310.418 306.84 310.884C307.221 310.077 307.647 309.287 308.051 308.491C308.527 307.551 309.939 308.38 309.463 309.317C309.183 309.87 308.892 310.416 308.616 310.969C310.845 311.085 313.072 311.238 315.294 311.446C319.087 311.802 322.843 312.434 326.63 312.827C330.482 313.227 334.249 313.156 338.071 312.52C338.758 312.405 339.163 311.99 339.33 311.475C339.336 311.473 339.34 311.469 339.344 311.462C339.541 311.233 339.725 311.044 339.915 310.878C340.142 310.73 340.388 310.606 340.676 310.495C341.214 310.291 341.775 310.166 342.343 310.083C342.969 309.989 343.603 309.98 344.229 309.902C344.757 309.835 345.273 309.735 345.788 309.612C346.714 309.391 347.594 309.103 348.469 308.721C349.233 308.387 349.922 307.909 350.572 307.387C351.918 306.404 353.084 305.149 354.102 303.844C354.696 303.081 355.254 302.29 355.761 301.466C356.645 300.038 357.398 298.556 358.159 297.061C358.435 296.618 358.687 296.165 358.917 295.702C357.43 295.264 355.929 294.907 354.352 294.881C353.299 294.865 353.299 293.229 354.352 293.245C356.16 293.275 357.87 293.696 359.569 294.2C359.652 293.98 359.732 293.758 359.805 293.534C360.008 293.066 360.175 292.585 360.314 292.099C360.396 291.878 360.478 291.657 360.56 291.436C360.744 290.672 360.928 289.905 361.114 289.138C361.485 287.911 361.777 286.666 361.992 285.404C362.172 284.574 362.311 283.738 362.405 282.891C362.691 280.84 362.924 278.794 362.941 276.72C362.916 275.442 362.835 274.166 362.696 272.896C362.636 272.033 362.536 271.175 362.401 270.322C362.225 269.054 362.051 267.799 361.759 266.548C361.54 265.701 361.321 264.855 361.102 264.008C360.556 262.244 359.911 260.513 359.169 258.823C359.128 258.716 358.922 258.483 358.797 258.481C358.703 258.479 358.571 258.564 358.615 258.679C358.619 258.689 358.622 258.702 358.627 258.712C358.584 258.616 358.544 258.518 358.5 258.422C358.463 258.331 358.321 258.152 358.21 258.154C358.203 258.154 358.197 258.154 358.189 258.155C358.217 258.135 358.244 258.108 358.271 258.078C359.005 257.209 359.482 256.066 360.008 255.06C360.444 254.23 360.854 253.355 360.973 252.416C361.077 251.592 360.936 250.781 360.418 250.114C359.83 249.355 358.721 249 359.336 247.903C360.036 246.656 361.065 245.574 360.04 244.158C359.519 243.435 358.693 243.039 358.079 242.411C357.373 241.685 357.037 240.714 357.056 239.722C357.099 239.747 357.156 239.735 357.177 239.673C357.77 237.882 357.341 235.916 356.733 234.171C356.401 233.224 355.7 232.965 354.884 232.918C358.418 226.017 361.726 219.005 364.674 211.832C364.772 211.596 364.867 211.362 364.964 211.126C365.107 210.775 364.804 210.307 364.454 210.229C361.906 209.67 359.251 209.493 356.655 209.247Z"
        fill="black" />
    <path fill-rule="evenodd" clip-rule="evenodd"
        d="M333.898 103.346C333.829 100.901 330.272 99.8853 329.244 102.307C329.18 102.372 329.111 102.434 329.046 102.49C329.368 102.214 328.695 102.67 328.586 102.727C328.492 102.775 328.397 102.819 328.301 102.864C327.64 96.6693 325.395 89.9915 319.596 86.8823C311.508 82.9613 302.162 82.1959 293.288 82.5854C288.793 82.8521 283.602 83.5706 279.608 81.2972C278.364 80.5889 277.366 79.4739 275.96 79.0361C271.521 77.8357 269.507 82.3926 270.112 86.14C268.219 86.155 266.34 87.2029 265.523 88.9282C265.043 89.9494 265.052 91.0513 264.638 92.0762C263.368 94.675 261.552 96.5431 262.579 99.6941C260.772 101.749 261.802 104.859 263.26 106.827C263.98 107.85 264.837 108.832 265.364 109.978C265.876 111.074 265.103 112.375 264.673 113.414C261.495 120.949 261.677 129.247 263.387 137.106C259.955 138.595 258.925 143.249 261.163 146.179C261.933 147.215 262.872 147.6 263.938 148.236C265.286 148.978 264.185 151.949 264.617 153.385C265.203 156.888 268.394 159.046 271.549 156.77C273.551 156.468 275.166 162.291 276.62 163.753C277.516 164.93 278.51 165.988 279.592 166.964C282.813 175.25 299.32 179.452 307.482 178.972C316.029 178.078 321.795 170.822 326.596 164.382C329.061 160.951 330.665 157.111 331.248 152.922C331.834 148.712 331.577 144.494 331.181 140.28C330.35 131.325 329.037 118.423 328.19 109.371C331.252 109.119 333.991 106.513 333.898 103.346Z"
        fill="white" />
    <path fill-rule="evenodd" clip-rule="evenodd"
        d="M267.139 97.9614C267.136 97.9743 267.14 97.9841 267.143 97.9979C267.144 97.994 267.145 97.9918 267.146 97.987C267.143 97.9766 267.141 97.9698 267.139 97.9614Z"
        fill="#4F66AF" />
    <path fill-rule="evenodd" clip-rule="evenodd"
        d="M267.139 98.0923C267.127 98.0802 267.111 98.0713 267.095 98.0592L267.094 98.0605C267.109 98.0705 267.124 98.0819 267.139 98.0923Z"
        fill="#4F66AF" />
    <path fill-rule="evenodd" clip-rule="evenodd"
        d="M333.411 104.503C334.417 103.667 336.002 104.436 335.661 105.812C335.29 107.31 333.685 108.334 332.359 108.949C330.993 109.582 329.664 109.704 328.176 109.635L328.157 109.631C328.57 111.288 328.805 113.01 329.121 114.677C329.522 116.792 329.917 118.908 330.306 121.024C330.682 123.07 331.158 125.119 331.447 127.175C331.738 129.251 332.018 131.328 332.304 133.404C332.782 136.871 333.168 140.355 333.575 143.833L333.768 145.479C334.176 148.963 334.503 152.452 333.731 155.919C333.008 159.169 331.379 162.2 329.488 164.913C327.637 167.569 325.569 170.122 323.298 172.432C318.919 176.889 313.52 180.457 307.188 181.119C304.461 181.404 301.55 181.087 298.987 180.096L298.817 180.03C296.222 179.006 293.044 177.252 292.369 174.375C291.955 172.61 293.774 171.232 295.369 172.069C296.108 172.458 296.664 172.901 297.27 173.457L297.378 173.556C297.874 174.016 298.065 174.158 298.637 174.518C299.811 175.256 300.69 175.606 302.023 175.941C304.48 176.558 307.133 176.461 309.627 175.73C314.923 174.179 319.032 170.13 322.552 166.071C324.463 163.866 326.277 161.553 327.677 158.985C329.144 156.289 329.822 153.459 329.781 150.391C329.735 146.931 329.257 143.457 328.943 140.013C328.623 136.501 328.327 132.991 328.067 129.474C327.823 126.177 327.799 122.864 327.714 119.556L327.697 118.936C327.647 117.18 327.612 115.424 327.572 113.667C327.533 111.916 327.394 110.142 327.575 108.398C327.587 108.271 327.759 108.239 327.8 108.367C327.906 108.694 327.999 109.026 328.088 109.36C328.101 109.35 328.116 109.34 328.134 109.334C329.301 108.933 330.376 108.133 331.251 107.27C332.087 106.447 332.523 105.241 333.411 104.503ZM269.579 79.9661C270.312 76.9571 273.61 76.285 276.049 77.7341C277.221 78.4309 278.161 79.4359 279.256 80.2346C280.346 81.0288 281.55 81.6665 282.82 82.117C285.345 83.0118 288.006 83.3371 290.674 83.3487C297.166 83.3771 303.525 81.5533 310.027 81.7567C315.058 81.9142 320.399 83.4004 324.048 87.0361C326.013 88.9945 327.28 91.5125 327.959 94.1855C328.277 95.4348 328.514 96.7145 328.7 97.9911L328.746 98.3102C328.85 99.0564 329.019 99.8462 329.034 100.6C329.048 101.278 328.876 101.986 328.784 102.657C328.588 104.069 326.399 103.909 326.084 102.657C325.368 99.8059 325.668 96.8639 324.792 94.0232C324.016 91.5041 322.511 89.3015 320.331 87.7951C311.135 81.44 299.343 86.7618 289.211 86.2674C286.734 86.1466 284.221 85.764 281.886 84.9116C280.681 84.4719 279.495 83.9358 278.403 83.2614C277.402 82.644 276.536 81.8682 275.61 81.1543L275.201 80.8438C274.566 80.3662 273.485 79.6196 272.844 80.2513C272.566 80.5263 272.549 81.1481 272.554 81.6229L272.557 81.8375C272.586 83.8532 272.997 85.8652 272.242 87.8126C271.898 88.7009 270.941 89.261 270.032 88.7579L269.985 88.731C268.06 87.5864 265.532 89.8862 267.01 91.7896L267.056 91.8471C267.888 92.8577 267.444 94.6373 265.956 94.6328L265.902 94.6319C263.249 94.5491 262.073 97.863 264.359 99.3109L264.429 99.3542C266.285 100.465 264.657 103.135 262.755 102.218C262.916 102.296 262.636 102.295 262.476 102.51C262.321 102.716 262.31 102.895 262.347 103.156C262.458 103.946 263.153 104.613 263.716 105.113C264.996 106.249 266.582 107.034 268.217 107.511C274.764 109.425 281.482 107.084 287.861 105.67C294.511 104.197 302.023 103.603 307.823 107.785C307.892 107.834 307.832 107.945 307.755 107.901C303.592 105.484 298.495 105.699 293.945 106.69C287.978 107.989 282.064 110.407 275.953 111.044C277.669 114.072 278.386 117.647 277.929 121.11C277.613 123.494 276.664 125.562 275.543 127.657L275.329 128.056C274.33 129.937 273.556 131.714 273.543 133.893C273.531 136.057 270.312 136.514 269.766 134.404C268.527 129.612 273.041 125.837 274.882 121.886C276.456 118.508 276.505 114.57 275.231 111.111C273.794 111.227 272.346 111.239 270.883 111.108C269.626 110.996 268.334 110.769 267.074 110.411L266.57 112.53C265.902 115.351 265.283 118.171 265.095 121.102C264.957 123.255 264.965 125.419 265.175 127.568C265.356 129.423 265.74 131.212 266.13 133.024C266.464 133.465 266.635 134.14 266.541 134.678C268.714 135.304 270.422 137.017 271.046 139.287C271.084 139.425 270.891 139.502 270.819 139.382C269.337 136.926 265.524 136.022 263.111 137.645C260.807 139.195 259.898 142.323 261.202 144.8C261.888 146.102 262.905 147.017 264.217 147.647L264.481 147.771C265.168 148.096 265.799 148.45 266.241 149.103C266.814 149.95 266.833 150.846 266.779 151.814L266.756 152.206C266.719 152.855 266.711 153.522 266.905 154.146L266.949 154.284C267 154.44 267.053 154.578 267.146 154.726C267.174 154.77 267.435 155.027 267.52 155.119L267.627 155.152L267.747 155.156C267.88 155.159 268.055 155.101 267.998 155.141L268.013 155.132C268.064 155.101 268.11 155.067 268.149 155.038L268.223 154.98C268.397 154.729 268.615 154.522 268.882 154.363L269.137 154.25C269.799 153.551 270.934 153.918 271.409 154.615C271.751 155.116 271.935 155.625 271.95 156.127C272.003 156.042 272.122 155.995 272.198 156.091L272.648 156.665C274.371 158.866 276.064 161.08 278.022 163.086C279.1 164.191 280.26 165.229 281.473 166.187C282.508 167.004 284.473 167.789 284.503 169.278C284.512 169.76 284.17 170.102 283.75 170.267C282.383 170.8 280.695 168.985 279.709 168.103L279.629 168.031C278.421 166.974 277.319 165.813 276.301 164.572C274.326 162.161 272.675 159.386 271.947 156.334C271.912 156.866 271.684 157.388 271.239 157.881C270.646 158.536 269.835 158.996 268.969 159.186C267.006 159.614 265.09 158.908 263.922 157.273C262.935 155.891 262.645 154.066 262.772 152.397L262.788 152.197C262.806 151.928 262.829 151.437 262.898 151.228L262.28 150.889C261.522 150.486 260.82 149.957 260.19 149.376C257.657 147.042 256.386 143.249 257.544 139.929C258.268 137.853 259.79 136.045 261.739 135.106C261.414 134.354 261.305 133.46 261.182 132.669L261.161 132.539C260.953 131.241 260.778 129.928 260.712 128.615C260.587 126.163 260.739 123.689 261.124 121.266C261.75 117.33 263.046 113.155 265.421 109.854C263.609 109.134 261.941 108.093 260.653 106.647C259.308 105.136 258.45 102.972 259.491 101.053C259.756 100.564 260.101 100.153 260.498 99.8266C259.81 98.5269 259.587 96.9909 260.012 95.5228C260.52 93.7676 261.898 92.3986 263.563 91.7594C263.159 90.0964 263.489 88.3077 264.725 86.9218C265.951 85.5469 267.854 85.0461 269.615 85.3604C269.711 83.5917 269.154 81.7105 269.579 79.9661ZM264.639 142.065C266.254 141.275 268.168 141.401 269.781 142.149L269.89 142.201C271.652 143.055 273.984 145.05 273.425 147.171C273.097 148.412 271.718 148.836 270.649 148.3C269.755 147.853 269.552 147.053 269.104 146.249C268.787 145.68 268.395 145.236 267.935 144.779C266.965 143.816 265.876 143.101 264.639 142.529C264.46 142.446 264.467 142.15 264.639 142.065ZM305.333 99.1807C305.181 99.1116 305.291 98.8746 305.444 98.9179C309.502 100.077 313.286 102.677 315.547 106.287C315.685 106.507 315.706 106.869 315.547 107.087L315.474 107.186C315.37 107.322 315.267 107.421 315.073 107.452C314.706 107.509 314.387 107.413 314.176 107.087C311.949 103.647 309.095 100.901 305.333 99.1807ZM332.501 99.862C332.845 99.2799 333.757 99.397 333.938 100.05L333.964 100.107C334.062 100.329 334.017 100.375 333.835 100.249C334.287 100.621 334.492 101.176 334.353 101.773C333.607 104.995 329.956 107.297 326.772 106.98C326.494 106.952 326.456 106.611 326.709 106.509C327.933 106.013 329.02 105.208 329.894 104.221C330.744 103.26 331.101 102.162 331.557 101.002C331.729 100.567 331.996 100.253 332.371 100.082C332.421 100.014 332.464 99.9404 332.501 99.862ZM314.4 97.7912L314.422 97.7926C316.057 98.0038 317.472 98.8106 318.621 99.9929C319.726 101.132 321.123 103.01 321.003 104.681C320.924 105.789 319.348 106.422 318.761 105.288C318.41 104.612 318.33 103.87 318.084 103.155C317.859 102.5 317.548 101.877 317.175 101.293C316.408 100.091 315.353 99.0718 314.273 98.1525C314.146 98.0448 314.234 97.7917 314.4 97.7912ZM272.451 97.3003C272.088 96.9552 272.465 96.3666 272.927 96.4832C275.359 97.0989 277.769 97.8477 280.297 97.9221C281.56 97.9591 282.817 97.8595 284.068 97.6962L284.702 97.612C285.677 97.4847 286.67 97.3847 287.635 97.5851C288.278 97.7186 288.404 98.5468 288.003 98.9788C286.111 101.019 282.461 100.824 279.951 100.48C277.226 100.107 274.476 99.2294 272.451 97.3003ZM316.38 90.9402C316.214 90.7094 316.494 90.3449 316.759 90.4474C319.177 91.3815 321.71 93.8133 322.376 96.3576C322.552 97.0297 321.704 97.5372 321.206 97.0382C320.279 96.1085 319.623 95.0103 318.839 93.9652C318.058 92.9234 317.143 91.9982 316.38 90.9402ZM276.769 92.0765C276.575 91.8828 276.77 91.4972 277.049 91.5958C278.623 92.153 280.209 92.6351 281.862 92.8881C283.556 93.1469 285.266 92.9503 286.968 93.0551C287.657 93.0974 288.125 94.1685 287.36 94.5018C283.958 95.9824 279.338 94.6398 276.769 92.0765ZM281.116 88.7555C280.845 88.5555 281 88.0067 281.368 88.1599C282.866 88.7838 284.382 88.937 285.991 88.8728C286.585 88.849 286.71 89.7824 286.131 89.9084C284.353 90.295 282.57 89.8294 281.116 88.7555Z"
        fill="black" />
    <path fill-rule="evenodd" clip-rule="evenodd"
        d="M312.533 157.226C312.846 156.681 313.569 156.175 314.23 156.253C317.191 156.6 317.186 160.19 316.043 162.285C315.029 164.143 312.93 165.234 310.83 165.074C308.624 164.907 306.744 163.61 305.917 161.547C305.369 160.182 305.116 157.662 306.572 156.745C306.599 156.728 306.643 156.733 306.665 156.757C307.363 157.569 307.39 158.787 308.001 159.69C308.569 160.531 309.452 161.225 310.486 161.332C311.259 161.413 312.04 161.134 312.342 160.44C312.506 160.066 312.487 159.862 312.425 159.604L312.369 159.38C312.177 158.594 312.089 157.996 312.533 157.226ZM313.324 141.484C314.869 142.423 317.222 144.612 315.56 146.938C313.605 148.99 310.789 146.638 309.401 145.574C308.114 144.75 306.668 146.87 307.862 147.832C317.889 155.254 321.959 141.73 314.105 140.382C313.24 140.232 312.919 141.195 313.324 141.484ZM297.013 135.049C297.961 133.627 300.125 133.836 300.647 135.524C300.931 136.438 300.54 137.259 300.56 138.172C300.577 138.943 300.527 139.802 300.29 140.549C299.75 142.252 298.218 143.455 296.406 143.405C294.599 143.355 293.009 142.212 292.252 140.602C291.492 138.986 291.653 137.314 292.208 135.671C292.234 135.592 292.338 135.554 292.4 135.62C293.055 136.316 293.535 137.051 294.031 137.83L294.54 138.629C294.929 139.231 295.494 139.999 296.219 139.951L296.328 139.941C296.53 139.923 296.499 139.963 296.654 139.688C296.726 139.561 296.714 139.325 296.748 139.175L296.761 139.123L296.754 139.097C296.738 139.024 296.723 138.887 296.711 138.649L296.708 138.597C296.656 137.485 296.342 136.056 297.013 135.049ZM321.045 135.996C320.875 134.177 323.433 133.773 324.283 135.119C324.727 135.82 324.856 136.702 324.954 137.537L325 137.933C325.1 138.792 325.14 139.683 324.768 140.484C324.181 141.744 322.905 142.41 321.529 142.305C320.215 142.204 319.016 141.442 318.384 140.286C317.821 139.254 317.26 137.239 317.945 136.163C317.986 136.098 318.069 136.09 318.125 136.14C318.772 136.714 318.877 137.761 319.262 138.508C319.659 139.28 320.26 140.031 321.171 140.149C322.044 140.261 322.377 139.785 322.154 138.953C321.867 137.881 321.153 137.151 321.045 135.996ZM297.705 124.237L298.123 124.077C299.555 123.536 301.523 122.91 302.688 124.075C303.407 124.793 303.544 125.851 303.031 126.728C302.409 127.79 301.294 127.816 300.217 127.973C298.993 128.15 297.747 128.489 296.607 128.971C295.323 129.514 294.131 130.191 292.963 130.948C291.854 131.666 290.747 132.841 289.419 133.062C289.365 133.072 289.303 133.048 289.289 132.989C288.987 131.69 289.826 130.412 290.574 129.4C291.479 128.173 292.576 127.166 293.802 126.264C294.986 125.393 296.338 124.763 297.705 124.237ZM323.736 128.853L323.863 128.831C324.733 128.686 325.52 128.72 326.175 129.408C326.675 129.933 326.867 130.613 326.629 131.307C326.41 131.947 325.918 132.597 325.204 132.732C322.795 133.185 320.126 133.11 317.705 132.767C316.597 132.61 315.479 132.418 314.4 132.115L313.903 131.971C313.003 131.713 311.971 131.445 311.317 130.782C311.082 130.544 311.218 130.204 311.498 130.093C312.641 129.646 314.206 129.884 315.423 129.849C316.839 129.809 318.258 129.703 319.667 129.557C321.045 129.413 322.377 129.102 323.736 128.853Z"
        fill="black" />
    <path fill-rule="evenodd" clip-rule="evenodd"
        d="M313.549 149.451C311.274 148.427 307.19 149.321 305.706 149.676C302.259 150.503 298.791 152.289 297.719 155.087C296.511 158.24 298.921 159.233 299.275 159.071C301.662 159.239 304.504 157.739 307.005 157.352C309.035 157.035 311.177 156.758 313.079 155.681C314.468 156.444 317.605 156.857 320.136 157.525C322.293 158.093 323.226 159.326 325.225 159.063C327.622 158.75 326.641 153.713 323.971 151.673C321.049 149.439 316.107 148.534 313.549 149.451ZM318.053 170.987C316.063 171.473 315.929 167.112 315.706 165.571C315.532 164.368 314.549 161.264 312.059 161.398C309.568 161.532 308.632 164.132 308.759 165.75C308.841 166.798 309.807 172.111 306.721 172.783C304.754 172.777 302.478 172.644 300.409 172.262C297.974 171.712 294.808 169.781 293.972 173.582C293.671 174.95 304.396 179.014 309.156 179.382C313.983 180.36 319.63 178.857 323.067 175.165C323.848 174.325 326.051 170.84 326.208 169.986C326.537 168.191 325.774 167.036 323.553 167.669C321.984 168.507 319.333 170.676 318.053 170.987Z"
        fill="black" />
    <path fill-rule="evenodd" clip-rule="evenodd"
        d="M331.63 142.73C329.146 145.295 325.001 146.031 321.697 144.656C313.213 141.112 317.365 130.06 323.908 127.092C324.726 126.889 325.817 126.406 326.813 126.296C326.903 126.252 327.099 126.38 327.336 126.259C334.55 127.064 336.193 138.259 331.63 142.73ZM304.266 143.387C301.481 147.08 296.303 148.219 292.072 146.502C283.715 143.212 286.679 133.412 292.397 129.569C304.477 125.032 309.465 136.577 304.266 143.387ZM286.148 135.204C286.14 135.2 286.133 135.198 286.124 135.195C286.169 135.175 286.213 135.156 286.257 135.136C286.242 135.173 286.227 135.21 286.213 135.248C286.191 135.233 286.173 135.216 286.148 135.204ZM337.38 131.212C336.698 131.213 335.713 131.325 335.148 131.798C333.756 127.105 328.617 122.761 324.148 125.929C320.63 127.06 318.018 129.569 316.534 132.905C313.858 131.314 309.65 131.993 307.33 134.098C305.81 129.077 302.07 127.32 297.617 127.06C292.759 126.264 287.915 130.982 286.404 134.766C285.148 134.623 283.27 134.224 282.089 134.999C274.417 132.988 261.004 131.879 259.444 132.996C258.333 133.422 257.723 136.045 259.275 136.187C260.628 135.995 259.117 134.265 260.481 134.076C267.747 133.626 274.8 135.089 281.99 135.703C282.632 136.566 284.705 136.854 285.812 136.508C284.069 142.928 287.831 147.295 293.467 148.604C302.194 150.607 309.787 142.803 307.505 134.685C310.148 133.37 313.189 133.427 316.07 134.119C311.257 151.825 339.782 151.031 335.327 132.405C338.291 133.879 338.936 131.509 337.38 131.212Z"
        fill="black" />
</svg>